G04 EAGLE Gerber X2 export*
%TF.Part,Single*%
%TF.FileFunction,Other,Bottom Solder Paste*%
%TF.FilePolarity,Positive*%
%TF.GenerationSoftware,Autodesk,EAGLE,8.6.1*%
%TF.CreationDate,2018-03-12T23:29:27Z*%
G75*
%MOMM*%
%FSLAX34Y34*%
%LPD*%
%AMOC8*
5,1,8,0,0,1.08239X$1,22.5*%
G01*
%ADD10R,1.100000X1.000000*%
%ADD11R,1.000000X1.100000*%
%ADD12R,0.800000X1.200000*%


D10*
X224400Y241300D03*
X207400Y241300D03*
D11*
X292100Y283600D03*
X292100Y300600D03*
D10*
X321700Y260350D03*
X338700Y260350D03*
D11*
X241300Y283600D03*
X241300Y300600D03*
D10*
X275200Y285750D03*
X258200Y285750D03*
X275200Y304800D03*
X258200Y304800D03*
X224400Y304800D03*
X207400Y304800D03*
X224400Y285750D03*
X207400Y285750D03*
D11*
X190500Y300600D03*
X190500Y283600D03*
D10*
X105800Y133350D03*
X122800Y133350D03*
X74050Y158750D03*
X91050Y158750D03*
D11*
X368300Y143900D03*
X368300Y160900D03*
D10*
X232800Y57150D03*
X249800Y57150D03*
D11*
X50800Y99450D03*
X50800Y116450D03*
X311150Y283600D03*
X311150Y300600D03*
D10*
X224400Y215900D03*
X207400Y215900D03*
D12*
X308500Y177800D03*
X326500Y177800D03*
D10*
X364100Y127000D03*
X347100Y127000D03*
D11*
X177800Y48650D03*
X177800Y65650D03*
D10*
X321700Y228600D03*
X338700Y228600D03*
X239150Y190500D03*
X256150Y190500D03*
D11*
X215900Y61350D03*
X215900Y78350D03*
D10*
X91050Y177800D03*
X74050Y177800D03*
X55000Y254000D03*
X72000Y254000D03*
X143900Y209550D03*
X160900Y209550D03*
X23250Y69850D03*
X40250Y69850D03*
X23250Y50800D03*
X40250Y50800D03*
X23250Y31750D03*
X40250Y31750D03*
X105800Y63500D03*
X122800Y63500D03*
X122800Y82550D03*
X105800Y82550D03*
M02*
