G04 EAGLE Gerber X2 export*
%TF.Part,Single*%
%TF.FileFunction,Other,Bottom Copper Layer*%
%TF.FilePolarity,Positive*%
%TF.GenerationSoftware,Autodesk,EAGLE,8.6.1*%
%TF.CreationDate,2018-03-12T23:29:27Z*%
G75*
%MOMM*%
%FSLAX34Y34*%
%LPD*%
%AMOC8*
5,1,8,0,0,1.08239X$1,22.5*%
G01*
%ADD10R,1.100000X1.000000*%
%ADD11R,1.000000X1.100000*%
%ADD12C,1.879600*%
%ADD13R,0.800000X1.200000*%
%ADD14C,0.152400*%
%ADD15C,0.508000*%
%ADD16C,0.203200*%
%ADD17C,0.554000*%
%ADD18C,0.604000*%
%ADD19C,0.177800*%

G36*
X387916Y4835D02*
X387916Y4835D01*
X387974Y4833D01*
X388056Y4855D01*
X388140Y4867D01*
X388193Y4890D01*
X388249Y4905D01*
X388322Y4948D01*
X388399Y4983D01*
X388444Y5021D01*
X388494Y5050D01*
X388552Y5112D01*
X388616Y5166D01*
X388648Y5215D01*
X388688Y5258D01*
X388727Y5333D01*
X388774Y5403D01*
X388791Y5459D01*
X388818Y5511D01*
X388829Y5579D01*
X388859Y5674D01*
X388862Y5774D01*
X388873Y5842D01*
X388873Y317500D01*
X388865Y317558D01*
X388867Y317616D01*
X388845Y317698D01*
X388833Y317782D01*
X388810Y317835D01*
X388795Y317891D01*
X388752Y317964D01*
X388717Y318041D01*
X388679Y318086D01*
X388650Y318136D01*
X388588Y318194D01*
X388534Y318258D01*
X388485Y318290D01*
X388442Y318330D01*
X388367Y318369D01*
X388297Y318416D01*
X388241Y318433D01*
X388189Y318460D01*
X388121Y318471D01*
X388026Y318501D01*
X387926Y318504D01*
X387858Y318515D01*
X192354Y318515D01*
X192268Y318503D01*
X192183Y318501D01*
X192128Y318483D01*
X192072Y318475D01*
X191994Y318440D01*
X191912Y318414D01*
X191865Y318382D01*
X191813Y318359D01*
X191747Y318304D01*
X191676Y318256D01*
X191639Y318212D01*
X191596Y318176D01*
X191548Y318104D01*
X191493Y318038D01*
X191470Y317986D01*
X191438Y317939D01*
X191412Y317857D01*
X191377Y317778D01*
X191369Y317722D01*
X191352Y317668D01*
X191350Y317582D01*
X191338Y317497D01*
X191346Y317441D01*
X191345Y317384D01*
X191367Y317301D01*
X191379Y317216D01*
X191402Y317164D01*
X191417Y317109D01*
X191461Y317035D01*
X191496Y316956D01*
X191533Y316913D01*
X191562Y316864D01*
X191625Y316805D01*
X191680Y316740D01*
X191722Y316714D01*
X191769Y316670D01*
X191899Y316604D01*
X191965Y316562D01*
X193650Y315864D01*
X195214Y314300D01*
X196061Y312256D01*
X196061Y310044D01*
X196053Y310026D01*
X196053Y310025D01*
X196052Y310023D01*
X196017Y309885D01*
X195982Y309751D01*
X195982Y309749D01*
X195982Y309748D01*
X195987Y309607D01*
X195991Y309467D01*
X195991Y309465D01*
X195991Y309464D01*
X196034Y309331D01*
X196077Y309196D01*
X196078Y309195D01*
X196079Y309193D01*
X196087Y309181D01*
X196236Y308960D01*
X196259Y308940D01*
X196273Y308920D01*
X196539Y308654D01*
X196609Y308602D01*
X196673Y308542D01*
X196722Y308516D01*
X196766Y308483D01*
X196848Y308452D01*
X196926Y308412D01*
X196973Y308404D01*
X197032Y308382D01*
X197180Y308370D01*
X197257Y308357D01*
X198344Y308357D01*
X198402Y308365D01*
X198460Y308363D01*
X198542Y308385D01*
X198626Y308397D01*
X198679Y308420D01*
X198735Y308435D01*
X198808Y308478D01*
X198885Y308513D01*
X198930Y308551D01*
X198980Y308580D01*
X199038Y308642D01*
X199102Y308696D01*
X199134Y308745D01*
X199174Y308788D01*
X199213Y308863D01*
X199260Y308933D01*
X199277Y308989D01*
X199304Y309041D01*
X199315Y309109D01*
X199345Y309204D01*
X199348Y309304D01*
X199359Y309372D01*
X199359Y310852D01*
X200848Y312341D01*
X213952Y312341D01*
X215182Y311111D01*
X215229Y311076D01*
X215269Y311033D01*
X215342Y310991D01*
X215409Y310940D01*
X215464Y310919D01*
X215514Y310890D01*
X215596Y310869D01*
X215675Y310839D01*
X215733Y310834D01*
X215790Y310820D01*
X215874Y310822D01*
X215958Y310815D01*
X216016Y310827D01*
X216074Y310829D01*
X216154Y310855D01*
X216237Y310871D01*
X216289Y310898D01*
X216345Y310916D01*
X216401Y310956D01*
X216489Y311002D01*
X216562Y311071D01*
X216618Y311111D01*
X217848Y312341D01*
X226490Y312341D01*
X226577Y312353D01*
X226664Y312356D01*
X226717Y312373D01*
X226772Y312381D01*
X226852Y312416D01*
X226935Y312443D01*
X226974Y312471D01*
X227031Y312497D01*
X227144Y312593D01*
X227208Y312638D01*
X229277Y314707D01*
X237251Y314707D01*
X237338Y314719D01*
X237425Y314722D01*
X237478Y314739D01*
X237532Y314747D01*
X237612Y314782D01*
X237696Y314809D01*
X237735Y314837D01*
X237792Y314863D01*
X237905Y314959D01*
X237969Y315004D01*
X238422Y315457D01*
X240289Y316231D01*
X242311Y316231D01*
X244178Y315457D01*
X244631Y315004D01*
X244701Y314952D01*
X244765Y314892D01*
X244814Y314866D01*
X244858Y314833D01*
X244940Y314802D01*
X245018Y314762D01*
X245065Y314754D01*
X245124Y314732D01*
X245272Y314720D01*
X245349Y314707D01*
X253323Y314707D01*
X255392Y312638D01*
X255462Y312586D01*
X255526Y312526D01*
X255575Y312500D01*
X255619Y312467D01*
X255701Y312436D01*
X255779Y312396D01*
X255826Y312388D01*
X255885Y312366D01*
X256032Y312354D01*
X256110Y312341D01*
X264752Y312341D01*
X266024Y311070D01*
X266062Y311040D01*
X266095Y311004D01*
X266176Y310955D01*
X266251Y310899D01*
X266296Y310881D01*
X266338Y310856D01*
X266428Y310831D01*
X266516Y310798D01*
X266565Y310793D01*
X266612Y310781D01*
X266706Y310782D01*
X266800Y310774D01*
X266847Y310784D01*
X266896Y310784D01*
X266986Y310811D01*
X267078Y310830D01*
X267122Y310852D01*
X267168Y310866D01*
X267247Y310918D01*
X267331Y310961D01*
X267366Y310994D01*
X267407Y311021D01*
X267454Y311078D01*
X267537Y311157D01*
X267581Y311232D01*
X267621Y311280D01*
X267667Y311360D01*
X268140Y311833D01*
X268719Y312168D01*
X269366Y312341D01*
X273169Y312341D01*
X273169Y305816D01*
X273177Y305758D01*
X273175Y305700D01*
X273197Y305618D01*
X273209Y305535D01*
X273233Y305481D01*
X273247Y305425D01*
X273290Y305352D01*
X273325Y305275D01*
X273363Y305231D01*
X273393Y305180D01*
X273454Y305123D01*
X273509Y305058D01*
X273557Y305026D01*
X273600Y304986D01*
X273675Y304947D01*
X273745Y304901D01*
X273801Y304883D01*
X273853Y304856D01*
X273921Y304845D01*
X274016Y304815D01*
X274116Y304812D01*
X274184Y304801D01*
X276216Y304801D01*
X276274Y304809D01*
X276332Y304808D01*
X276414Y304829D01*
X276497Y304841D01*
X276551Y304865D01*
X276607Y304879D01*
X276680Y304922D01*
X276757Y304957D01*
X276801Y304995D01*
X276852Y305025D01*
X276909Y305086D01*
X276974Y305141D01*
X277006Y305189D01*
X277046Y305232D01*
X277085Y305307D01*
X277131Y305377D01*
X277149Y305433D01*
X277176Y305485D01*
X277187Y305553D01*
X277217Y305648D01*
X277220Y305748D01*
X277231Y305816D01*
X277231Y312341D01*
X281034Y312341D01*
X281681Y312168D01*
X282260Y311833D01*
X282733Y311360D01*
X283068Y310781D01*
X283241Y310134D01*
X283241Y308285D01*
X283245Y308256D01*
X283242Y308227D01*
X283265Y308116D01*
X283281Y308003D01*
X283293Y307977D01*
X283298Y307948D01*
X283351Y307847D01*
X283397Y307744D01*
X283416Y307722D01*
X283429Y307696D01*
X283507Y307613D01*
X283580Y307527D01*
X283605Y307511D01*
X283625Y307489D01*
X283723Y307432D01*
X283817Y307369D01*
X283845Y307361D01*
X283870Y307346D01*
X283980Y307318D01*
X284088Y307284D01*
X284118Y307283D01*
X284146Y307276D01*
X284259Y307279D01*
X284372Y307276D01*
X284401Y307284D01*
X284430Y307285D01*
X284538Y307320D01*
X284647Y307348D01*
X284673Y307363D01*
X284701Y307372D01*
X284765Y307418D01*
X284892Y307493D01*
X284935Y307539D01*
X284974Y307567D01*
X285540Y308133D01*
X286119Y308468D01*
X286766Y308641D01*
X290069Y308641D01*
X290069Y301616D01*
X290077Y301558D01*
X290075Y301500D01*
X290097Y301418D01*
X290109Y301335D01*
X290133Y301281D01*
X290147Y301225D01*
X290190Y301152D01*
X290225Y301075D01*
X290263Y301031D01*
X290293Y300980D01*
X290354Y300923D01*
X290409Y300858D01*
X290457Y300826D01*
X290500Y300786D01*
X290575Y300747D01*
X290645Y300701D01*
X290701Y300683D01*
X290753Y300656D01*
X290821Y300645D01*
X290916Y300615D01*
X291016Y300612D01*
X291084Y300601D01*
X292101Y300601D01*
X292101Y299584D01*
X292109Y299526D01*
X292108Y299468D01*
X292129Y299386D01*
X292141Y299303D01*
X292165Y299249D01*
X292179Y299193D01*
X292222Y299120D01*
X292257Y299043D01*
X292295Y298998D01*
X292325Y298948D01*
X292386Y298890D01*
X292441Y298826D01*
X292489Y298794D01*
X292532Y298754D01*
X292607Y298715D01*
X292677Y298669D01*
X292733Y298651D01*
X292785Y298624D01*
X292853Y298613D01*
X292948Y298583D01*
X293048Y298580D01*
X293116Y298569D01*
X299641Y298569D01*
X299641Y294766D01*
X299468Y294119D01*
X299133Y293540D01*
X298660Y293067D01*
X298580Y293021D01*
X298565Y293009D01*
X298548Y293002D01*
X298526Y292982D01*
X298498Y292968D01*
X298430Y292903D01*
X298356Y292846D01*
X298344Y292828D01*
X298331Y292818D01*
X298316Y292795D01*
X298292Y292772D01*
X298245Y292691D01*
X298190Y292615D01*
X298182Y292593D01*
X298174Y292581D01*
X298166Y292558D01*
X298148Y292527D01*
X298125Y292436D01*
X298093Y292348D01*
X298092Y292322D01*
X298088Y292310D01*
X298087Y292288D01*
X298078Y292252D01*
X298081Y292158D01*
X298075Y292064D01*
X298081Y292037D01*
X298081Y292026D01*
X298086Y292006D01*
X298087Y291967D01*
X298116Y291878D01*
X298136Y291786D01*
X298150Y291762D01*
X298153Y291751D01*
X298163Y291734D01*
X298175Y291697D01*
X298218Y291636D01*
X298272Y291536D01*
X298292Y291516D01*
X298298Y291507D01*
X298336Y291471D01*
X298370Y291424D01*
X299641Y290152D01*
X299641Y279690D01*
X299645Y279661D01*
X299642Y279631D01*
X299665Y279520D01*
X299681Y279408D01*
X299693Y279382D01*
X299698Y279353D01*
X299750Y279252D01*
X299797Y279149D01*
X299816Y279126D01*
X299829Y279100D01*
X299907Y279018D01*
X299980Y278932D01*
X300005Y278916D01*
X300025Y278894D01*
X300123Y278837D01*
X300217Y278774D01*
X300245Y278765D01*
X300270Y278751D01*
X300380Y278723D01*
X300488Y278688D01*
X300518Y278688D01*
X300546Y278680D01*
X300659Y278684D01*
X300772Y278681D01*
X300801Y278689D01*
X300830Y278690D01*
X300938Y278724D01*
X301047Y278753D01*
X301073Y278768D01*
X301101Y278777D01*
X301164Y278822D01*
X301292Y278898D01*
X301335Y278944D01*
X301374Y278972D01*
X303312Y280910D01*
X303364Y280980D01*
X303424Y281044D01*
X303450Y281093D01*
X303483Y281137D01*
X303514Y281219D01*
X303554Y281297D01*
X303562Y281344D01*
X303584Y281403D01*
X303596Y281550D01*
X303609Y281628D01*
X303609Y290152D01*
X304880Y291424D01*
X304903Y291454D01*
X304919Y291467D01*
X304925Y291476D01*
X304946Y291496D01*
X304995Y291576D01*
X305051Y291651D01*
X305065Y291687D01*
X305076Y291704D01*
X305079Y291714D01*
X305094Y291738D01*
X305119Y291829D01*
X305153Y291916D01*
X305156Y291955D01*
X305162Y291975D01*
X305162Y291986D01*
X305170Y292012D01*
X305168Y292106D01*
X305176Y292200D01*
X305169Y292237D01*
X305169Y292259D01*
X305166Y292270D01*
X305166Y292296D01*
X305139Y292386D01*
X305120Y292478D01*
X305104Y292511D01*
X305097Y292534D01*
X305090Y292546D01*
X305084Y292569D01*
X305033Y292647D01*
X304989Y292731D01*
X304966Y292755D01*
X304952Y292778D01*
X304941Y292789D01*
X304929Y292807D01*
X304872Y292854D01*
X304793Y292937D01*
X304766Y292953D01*
X304745Y292973D01*
X304701Y292995D01*
X304670Y293021D01*
X304590Y293067D01*
X304117Y293540D01*
X303782Y294119D01*
X303609Y294766D01*
X303609Y298569D01*
X310134Y298569D01*
X310192Y298577D01*
X310250Y298575D01*
X310332Y298597D01*
X310415Y298609D01*
X310469Y298633D01*
X310525Y298647D01*
X310598Y298690D01*
X310675Y298725D01*
X310719Y298763D01*
X310770Y298793D01*
X310827Y298854D01*
X310892Y298909D01*
X310924Y298957D01*
X310964Y299000D01*
X311003Y299075D01*
X311049Y299145D01*
X311067Y299201D01*
X311094Y299253D01*
X311105Y299321D01*
X311135Y299416D01*
X311138Y299516D01*
X311149Y299584D01*
X311149Y300601D01*
X311151Y300601D01*
X311151Y299584D01*
X311159Y299526D01*
X311158Y299468D01*
X311179Y299386D01*
X311191Y299303D01*
X311215Y299249D01*
X311229Y299193D01*
X311272Y299120D01*
X311307Y299043D01*
X311345Y298998D01*
X311375Y298948D01*
X311436Y298890D01*
X311491Y298826D01*
X311539Y298794D01*
X311582Y298754D01*
X311657Y298715D01*
X311727Y298669D01*
X311783Y298651D01*
X311835Y298624D01*
X311903Y298613D01*
X311998Y298583D01*
X312098Y298580D01*
X312166Y298569D01*
X318691Y298569D01*
X318691Y294766D01*
X318518Y294119D01*
X318183Y293540D01*
X317710Y293067D01*
X317630Y293021D01*
X317615Y293009D01*
X317598Y293002D01*
X317576Y292982D01*
X317548Y292968D01*
X317480Y292903D01*
X317406Y292846D01*
X317394Y292828D01*
X317381Y292818D01*
X317366Y292795D01*
X317342Y292772D01*
X317295Y292691D01*
X317240Y292615D01*
X317232Y292593D01*
X317224Y292581D01*
X317216Y292558D01*
X317198Y292527D01*
X317175Y292436D01*
X317143Y292348D01*
X317142Y292322D01*
X317138Y292310D01*
X317137Y292288D01*
X317128Y292252D01*
X317131Y292158D01*
X317125Y292064D01*
X317131Y292037D01*
X317131Y292026D01*
X317136Y292006D01*
X317137Y291967D01*
X317166Y291878D01*
X317186Y291786D01*
X317200Y291762D01*
X317203Y291751D01*
X317213Y291734D01*
X317225Y291697D01*
X317268Y291636D01*
X317322Y291536D01*
X317342Y291516D01*
X317348Y291507D01*
X317386Y291471D01*
X317420Y291424D01*
X318691Y290152D01*
X318691Y277048D01*
X317202Y275559D01*
X308442Y275559D01*
X308355Y275547D01*
X308268Y275544D01*
X308215Y275527D01*
X308160Y275519D01*
X308080Y275484D01*
X307997Y275457D01*
X307958Y275429D01*
X307901Y275403D01*
X307788Y275307D01*
X307724Y275262D01*
X305860Y273398D01*
X305808Y273328D01*
X305748Y273264D01*
X305722Y273215D01*
X305689Y273171D01*
X305658Y273089D01*
X305618Y273011D01*
X305610Y272964D01*
X305588Y272905D01*
X305579Y272797D01*
X305564Y272722D01*
X305566Y272700D01*
X305563Y272680D01*
X305563Y272667D01*
X305566Y272643D01*
X305564Y272622D01*
X305579Y272548D01*
X305589Y272439D01*
X305599Y272413D01*
X305603Y272385D01*
X305619Y272348D01*
X305620Y272343D01*
X305629Y272326D01*
X305649Y272281D01*
X305691Y272173D01*
X305707Y272151D01*
X305719Y272126D01*
X305793Y272038D01*
X305862Y271947D01*
X305885Y271930D01*
X305902Y271909D01*
X305998Y271845D01*
X306090Y271777D01*
X306116Y271767D01*
X306139Y271751D01*
X306249Y271717D01*
X306356Y271676D01*
X306384Y271674D01*
X306410Y271666D01*
X306525Y271663D01*
X306639Y271654D01*
X306664Y271659D01*
X306694Y271658D01*
X306952Y271726D01*
X306967Y271729D01*
X307091Y271781D01*
X309113Y271781D01*
X310980Y271007D01*
X311433Y270554D01*
X311503Y270502D01*
X311567Y270442D01*
X311616Y270416D01*
X311660Y270383D01*
X311742Y270352D01*
X311820Y270312D01*
X311868Y270304D01*
X311926Y270282D01*
X312074Y270270D01*
X312151Y270257D01*
X316823Y270257D01*
X318892Y268188D01*
X318962Y268136D01*
X319026Y268076D01*
X319075Y268050D01*
X319119Y268017D01*
X319201Y267986D01*
X319279Y267946D01*
X319326Y267938D01*
X319385Y267916D01*
X319532Y267904D01*
X319610Y267891D01*
X328252Y267891D01*
X329524Y266620D01*
X329563Y266590D01*
X329596Y266554D01*
X329676Y266505D01*
X329751Y266449D01*
X329796Y266431D01*
X329838Y266406D01*
X329929Y266381D01*
X330016Y266347D01*
X330065Y266343D01*
X330112Y266330D01*
X330206Y266332D01*
X330300Y266324D01*
X330348Y266334D01*
X330396Y266334D01*
X330486Y266361D01*
X330578Y266380D01*
X330622Y266402D01*
X330669Y266416D01*
X330747Y266467D01*
X330831Y266511D01*
X330866Y266544D01*
X330907Y266571D01*
X330954Y266628D01*
X331037Y266707D01*
X331081Y266782D01*
X331121Y266830D01*
X331167Y266910D01*
X331640Y267383D01*
X332219Y267718D01*
X332866Y267891D01*
X336669Y267891D01*
X336669Y261366D01*
X336677Y261308D01*
X336675Y261250D01*
X336697Y261168D01*
X336709Y261085D01*
X336733Y261031D01*
X336747Y260975D01*
X336790Y260902D01*
X336825Y260825D01*
X336863Y260781D01*
X336893Y260730D01*
X336954Y260673D01*
X337009Y260608D01*
X337057Y260576D01*
X337100Y260536D01*
X337175Y260497D01*
X337245Y260451D01*
X337301Y260433D01*
X337353Y260406D01*
X337421Y260395D01*
X337516Y260365D01*
X337616Y260362D01*
X337684Y260351D01*
X338701Y260351D01*
X338701Y260349D01*
X337684Y260349D01*
X337626Y260341D01*
X337568Y260342D01*
X337486Y260321D01*
X337403Y260309D01*
X337349Y260285D01*
X337293Y260271D01*
X337220Y260228D01*
X337143Y260193D01*
X337098Y260155D01*
X337048Y260125D01*
X336990Y260064D01*
X336926Y260009D01*
X336894Y259961D01*
X336854Y259918D01*
X336815Y259843D01*
X336769Y259773D01*
X336751Y259717D01*
X336724Y259665D01*
X336713Y259597D01*
X336683Y259502D01*
X336680Y259402D01*
X336669Y259334D01*
X336669Y252809D01*
X332866Y252809D01*
X332219Y252982D01*
X331640Y253317D01*
X331167Y253790D01*
X331121Y253870D01*
X331091Y253908D01*
X331068Y253952D01*
X331003Y254020D01*
X330946Y254094D01*
X330906Y254123D01*
X330872Y254158D01*
X330791Y254205D01*
X330715Y254260D01*
X330669Y254277D01*
X330627Y254302D01*
X330536Y254325D01*
X330448Y254357D01*
X330399Y254360D01*
X330352Y254372D01*
X330258Y254369D01*
X330164Y254375D01*
X330116Y254364D01*
X330067Y254363D01*
X329978Y254334D01*
X329886Y254314D01*
X329843Y254290D01*
X329797Y254275D01*
X329736Y254232D01*
X329636Y254178D01*
X329575Y254117D01*
X329524Y254080D01*
X328252Y252809D01*
X315148Y252809D01*
X313782Y254175D01*
X313690Y254244D01*
X313602Y254318D01*
X313577Y254329D01*
X313555Y254346D01*
X313447Y254387D01*
X313342Y254433D01*
X313315Y254437D01*
X313289Y254447D01*
X313175Y254457D01*
X313061Y254472D01*
X313033Y254468D01*
X313006Y254471D01*
X312893Y254448D01*
X312779Y254432D01*
X312754Y254420D01*
X312727Y254415D01*
X312625Y254362D01*
X312520Y254314D01*
X312499Y254297D01*
X312475Y254284D01*
X312391Y254204D01*
X312304Y254130D01*
X312291Y254109D01*
X312269Y254088D01*
X312186Y253946D01*
X310726Y252487D01*
X308859Y251713D01*
X308218Y251713D01*
X308131Y251701D01*
X308044Y251698D01*
X307991Y251681D01*
X307936Y251673D01*
X307856Y251638D01*
X307773Y251611D01*
X307734Y251583D01*
X307677Y251557D01*
X307564Y251461D01*
X307500Y251416D01*
X304749Y248665D01*
X294756Y248665D01*
X294669Y248653D01*
X294582Y248650D01*
X294529Y248633D01*
X294474Y248625D01*
X294394Y248590D01*
X294311Y248563D01*
X294272Y248535D01*
X294215Y248509D01*
X294102Y248413D01*
X294038Y248368D01*
X258013Y212343D01*
X238999Y212343D01*
X238912Y212331D01*
X238825Y212328D01*
X238772Y212311D01*
X238718Y212303D01*
X238638Y212268D01*
X238554Y212241D01*
X238515Y212213D01*
X238458Y212187D01*
X238345Y212091D01*
X238281Y212046D01*
X237828Y211593D01*
X235961Y210819D01*
X233939Y210819D01*
X233845Y210859D01*
X233827Y210863D01*
X233819Y210867D01*
X233798Y210871D01*
X233734Y210887D01*
X233624Y210922D01*
X233596Y210923D01*
X233569Y210930D01*
X233455Y210926D01*
X233340Y210929D01*
X233313Y210922D01*
X233285Y210921D01*
X233176Y210886D01*
X233065Y210857D01*
X233041Y210843D01*
X233014Y210835D01*
X232919Y210771D01*
X232820Y210712D01*
X232801Y210692D01*
X232778Y210676D01*
X232704Y210589D01*
X232701Y210586D01*
X232698Y210583D01*
X232696Y210580D01*
X232626Y210505D01*
X232613Y210480D01*
X232595Y210459D01*
X232554Y210367D01*
X232540Y210346D01*
X232534Y210325D01*
X232496Y210252D01*
X232492Y210227D01*
X232480Y210199D01*
X232469Y210119D01*
X232455Y210075D01*
X232453Y210006D01*
X232443Y209935D01*
X232441Y209921D01*
X232441Y209848D01*
X230952Y208359D01*
X217848Y208359D01*
X216576Y209630D01*
X216537Y209660D01*
X216504Y209696D01*
X216467Y209719D01*
X216463Y209722D01*
X216450Y209729D01*
X216424Y209745D01*
X216349Y209801D01*
X216304Y209819D01*
X216262Y209844D01*
X216171Y209869D01*
X216084Y209903D01*
X216035Y209907D01*
X215988Y209920D01*
X215894Y209918D01*
X215800Y209926D01*
X215752Y209916D01*
X215704Y209916D01*
X215614Y209889D01*
X215522Y209870D01*
X215478Y209848D01*
X215431Y209834D01*
X215353Y209783D01*
X215269Y209739D01*
X215234Y209706D01*
X215193Y209679D01*
X215146Y209622D01*
X215063Y209543D01*
X215019Y209468D01*
X214979Y209420D01*
X214933Y209340D01*
X214460Y208867D01*
X213881Y208532D01*
X213234Y208359D01*
X209431Y208359D01*
X209431Y214884D01*
X209423Y214942D01*
X209424Y215000D01*
X209403Y215082D01*
X209391Y215165D01*
X209367Y215219D01*
X209353Y215275D01*
X209310Y215348D01*
X209275Y215425D01*
X209237Y215469D01*
X209207Y215520D01*
X209146Y215577D01*
X209091Y215642D01*
X209043Y215674D01*
X209000Y215714D01*
X208925Y215753D01*
X208855Y215799D01*
X208799Y215817D01*
X208747Y215844D01*
X208679Y215855D01*
X208584Y215885D01*
X208484Y215888D01*
X208416Y215899D01*
X207399Y215899D01*
X207399Y215901D01*
X208416Y215901D01*
X208474Y215909D01*
X208532Y215908D01*
X208614Y215929D01*
X208697Y215941D01*
X208751Y215965D01*
X208807Y215979D01*
X208880Y216022D01*
X208957Y216057D01*
X209001Y216095D01*
X209052Y216125D01*
X209109Y216186D01*
X209174Y216241D01*
X209206Y216289D01*
X209246Y216332D01*
X209285Y216407D01*
X209331Y216477D01*
X209349Y216533D01*
X209376Y216585D01*
X209387Y216653D01*
X209417Y216748D01*
X209420Y216848D01*
X209431Y216916D01*
X209431Y223441D01*
X213234Y223441D01*
X213881Y223268D01*
X214460Y222933D01*
X214933Y222460D01*
X214979Y222380D01*
X215009Y222342D01*
X215032Y222298D01*
X215097Y222230D01*
X215154Y222156D01*
X215194Y222127D01*
X215228Y222092D01*
X215309Y222045D01*
X215385Y221990D01*
X215431Y221973D01*
X215473Y221948D01*
X215564Y221925D01*
X215652Y221893D01*
X215701Y221890D01*
X215748Y221878D01*
X215842Y221881D01*
X215936Y221875D01*
X215984Y221886D01*
X216033Y221887D01*
X216122Y221916D01*
X216214Y221936D01*
X216257Y221960D01*
X216303Y221975D01*
X216364Y222018D01*
X216464Y222072D01*
X216525Y222133D01*
X216576Y222170D01*
X217848Y223441D01*
X230952Y223441D01*
X232441Y221952D01*
X232441Y221879D01*
X232457Y221766D01*
X232467Y221651D01*
X232477Y221625D01*
X232481Y221598D01*
X232527Y221493D01*
X232569Y221386D01*
X232586Y221364D01*
X232597Y221338D01*
X232671Y221251D01*
X232740Y221159D01*
X232763Y221143D01*
X232780Y221121D01*
X232876Y221058D01*
X232968Y220989D01*
X232994Y220979D01*
X233017Y220964D01*
X233127Y220929D01*
X233234Y220889D01*
X233262Y220886D01*
X233288Y220878D01*
X233403Y220875D01*
X233517Y220866D01*
X233542Y220872D01*
X233572Y220871D01*
X233830Y220938D01*
X233845Y220941D01*
X233939Y220981D01*
X235961Y220981D01*
X237828Y220207D01*
X238281Y219754D01*
X238351Y219702D01*
X238415Y219642D01*
X238464Y219616D01*
X238508Y219583D01*
X238590Y219552D01*
X238668Y219512D01*
X238715Y219504D01*
X238774Y219482D01*
X238922Y219470D01*
X238999Y219457D01*
X254646Y219457D01*
X254733Y219469D01*
X254820Y219472D01*
X254873Y219489D01*
X254928Y219497D01*
X255008Y219532D01*
X255091Y219559D01*
X255130Y219587D01*
X255187Y219613D01*
X255300Y219709D01*
X255364Y219754D01*
X291389Y255779D01*
X301382Y255779D01*
X301469Y255791D01*
X301556Y255794D01*
X301609Y255811D01*
X301664Y255819D01*
X301744Y255854D01*
X301827Y255881D01*
X301866Y255909D01*
X301923Y255935D01*
X302036Y256031D01*
X302100Y256076D01*
X302470Y256446D01*
X302522Y256516D01*
X302582Y256580D01*
X302608Y256629D01*
X302641Y256673D01*
X302672Y256755D01*
X302712Y256833D01*
X302720Y256880D01*
X302742Y256939D01*
X302754Y257086D01*
X302767Y257164D01*
X302767Y257805D01*
X303541Y259672D01*
X305025Y261156D01*
X305060Y261203D01*
X305102Y261243D01*
X305145Y261316D01*
X305196Y261383D01*
X305217Y261438D01*
X305246Y261488D01*
X305267Y261570D01*
X305297Y261649D01*
X305302Y261707D01*
X305316Y261764D01*
X305314Y261848D01*
X305321Y261932D01*
X305309Y261990D01*
X305307Y262048D01*
X305281Y262128D01*
X305265Y262211D01*
X305238Y262263D01*
X305220Y262319D01*
X305180Y262375D01*
X305134Y262463D01*
X305065Y262536D01*
X305025Y262592D01*
X303795Y263822D01*
X303021Y265689D01*
X303021Y267083D01*
X303005Y267197D01*
X302995Y267311D01*
X302985Y267337D01*
X302981Y267365D01*
X302935Y267469D01*
X302893Y267577D01*
X302877Y267599D01*
X302865Y267624D01*
X302791Y267712D01*
X302722Y267803D01*
X302699Y267820D01*
X302682Y267841D01*
X302586Y267905D01*
X302494Y267973D01*
X302468Y267983D01*
X302445Y267999D01*
X302335Y268033D01*
X302228Y268074D01*
X302200Y268076D01*
X302174Y268084D01*
X302059Y268087D01*
X301945Y268096D01*
X301920Y268091D01*
X301890Y268092D01*
X301632Y268024D01*
X301617Y268021D01*
X301493Y267969D01*
X299471Y267969D01*
X297604Y268743D01*
X297151Y269196D01*
X297081Y269248D01*
X297017Y269308D01*
X296968Y269334D01*
X296924Y269367D01*
X296842Y269398D01*
X296764Y269438D01*
X296717Y269446D01*
X296658Y269468D01*
X296510Y269480D01*
X296433Y269493D01*
X293994Y269493D01*
X293907Y269481D01*
X293820Y269478D01*
X293767Y269461D01*
X293712Y269453D01*
X293632Y269418D01*
X293549Y269391D01*
X293510Y269363D01*
X293453Y269337D01*
X293340Y269241D01*
X293276Y269196D01*
X289604Y265524D01*
X289552Y265454D01*
X289492Y265390D01*
X289466Y265341D01*
X289433Y265297D01*
X289402Y265215D01*
X289362Y265137D01*
X289354Y265090D01*
X289332Y265031D01*
X289321Y264900D01*
X289321Y264899D01*
X289321Y264894D01*
X289320Y264884D01*
X289307Y264806D01*
X289307Y258877D01*
X287223Y256793D01*
X232649Y256793D01*
X232562Y256781D01*
X232475Y256778D01*
X232422Y256761D01*
X232368Y256753D01*
X232288Y256718D01*
X232205Y256691D01*
X232165Y256663D01*
X232108Y256637D01*
X231995Y256541D01*
X231931Y256496D01*
X231478Y256043D01*
X229611Y255269D01*
X227589Y255269D01*
X225722Y256043D01*
X224293Y257472D01*
X223519Y259339D01*
X223519Y261361D01*
X224293Y263228D01*
X225722Y264657D01*
X227589Y265431D01*
X229611Y265431D01*
X231478Y264657D01*
X231931Y264204D01*
X232001Y264152D01*
X232065Y264092D01*
X232114Y264066D01*
X232158Y264033D01*
X232240Y264002D01*
X232318Y263962D01*
X232366Y263954D01*
X232424Y263932D01*
X232572Y263920D01*
X232649Y263907D01*
X281178Y263907D01*
X281236Y263915D01*
X281294Y263913D01*
X281376Y263935D01*
X281460Y263947D01*
X281513Y263970D01*
X281569Y263985D01*
X281642Y264028D01*
X281719Y264063D01*
X281764Y264101D01*
X281814Y264130D01*
X281872Y264192D01*
X281936Y264246D01*
X281968Y264295D01*
X282008Y264338D01*
X282047Y264413D01*
X282094Y264483D01*
X282111Y264539D01*
X282138Y264591D01*
X282149Y264659D01*
X282179Y264754D01*
X282182Y264854D01*
X282193Y264922D01*
X282193Y267188D01*
X282177Y267302D01*
X282167Y267416D01*
X282157Y267442D01*
X282153Y267470D01*
X282106Y267575D01*
X282065Y267682D01*
X282049Y267704D01*
X282037Y267729D01*
X281963Y267817D01*
X281894Y267908D01*
X281871Y267925D01*
X281854Y267946D01*
X281758Y268010D01*
X281666Y268079D01*
X281640Y268088D01*
X281617Y268104D01*
X281507Y268138D01*
X281400Y268179D01*
X281372Y268181D01*
X281346Y268190D01*
X281231Y268192D01*
X281117Y268202D01*
X281092Y268196D01*
X281062Y268197D01*
X280805Y268130D01*
X280789Y268126D01*
X280411Y267969D01*
X278389Y267969D01*
X276522Y268743D01*
X275093Y270172D01*
X274319Y272039D01*
X274319Y274061D01*
X275093Y275928D01*
X275641Y276476D01*
X275659Y276500D01*
X275681Y276519D01*
X275744Y276613D01*
X275812Y276703D01*
X275822Y276731D01*
X275839Y276755D01*
X275873Y276863D01*
X275913Y276969D01*
X275915Y276998D01*
X275924Y277026D01*
X275927Y277140D01*
X275937Y277252D01*
X275931Y277281D01*
X275932Y277310D01*
X275903Y277420D01*
X275881Y277531D01*
X275867Y277557D01*
X275860Y277585D01*
X275802Y277683D01*
X275750Y277783D01*
X275729Y277805D01*
X275715Y277830D01*
X275632Y277907D01*
X275554Y277989D01*
X275529Y278004D01*
X275507Y278024D01*
X275406Y278076D01*
X275309Y278133D01*
X275280Y278140D01*
X275254Y278154D01*
X275177Y278167D01*
X275033Y278203D01*
X274971Y278201D01*
X274923Y278209D01*
X268648Y278209D01*
X267418Y279439D01*
X267371Y279474D01*
X267331Y279517D01*
X267258Y279559D01*
X267191Y279610D01*
X267136Y279631D01*
X267086Y279660D01*
X267004Y279681D01*
X266925Y279711D01*
X266867Y279716D01*
X266810Y279730D01*
X266726Y279728D01*
X266642Y279735D01*
X266584Y279723D01*
X266526Y279721D01*
X266446Y279695D01*
X266363Y279679D01*
X266311Y279652D01*
X266255Y279634D01*
X266199Y279594D01*
X266111Y279548D01*
X266038Y279479D01*
X265982Y279439D01*
X264725Y278181D01*
X264724Y278181D01*
X264640Y278169D01*
X264587Y278146D01*
X264531Y278131D01*
X264458Y278088D01*
X264381Y278053D01*
X264336Y278015D01*
X264286Y277986D01*
X264228Y277924D01*
X264164Y277870D01*
X264132Y277821D01*
X264092Y277778D01*
X264053Y277703D01*
X264006Y277633D01*
X263989Y277577D01*
X263962Y277525D01*
X263951Y277457D01*
X263921Y277362D01*
X263918Y277262D01*
X263907Y277194D01*
X263907Y277099D01*
X263919Y277012D01*
X263922Y276925D01*
X263939Y276872D01*
X263947Y276818D01*
X263982Y276738D01*
X264009Y276655D01*
X264037Y276615D01*
X264063Y276558D01*
X264159Y276445D01*
X264204Y276381D01*
X264657Y275928D01*
X265431Y274061D01*
X265431Y272039D01*
X264657Y270172D01*
X263228Y268743D01*
X261361Y267969D01*
X259339Y267969D01*
X257472Y268743D01*
X256043Y270172D01*
X255269Y272039D01*
X255269Y274061D01*
X256043Y275928D01*
X256496Y276381D01*
X256548Y276451D01*
X256608Y276515D01*
X256634Y276564D01*
X256667Y276608D01*
X256698Y276690D01*
X256738Y276768D01*
X256746Y276816D01*
X256768Y276874D01*
X256780Y277022D01*
X256793Y277099D01*
X256793Y277194D01*
X256785Y277252D01*
X256787Y277310D01*
X256765Y277392D01*
X256753Y277476D01*
X256730Y277529D01*
X256715Y277585D01*
X256672Y277658D01*
X256637Y277735D01*
X256599Y277780D01*
X256570Y277830D01*
X256508Y277888D01*
X256454Y277952D01*
X256405Y277984D01*
X256362Y278024D01*
X256287Y278063D01*
X256217Y278110D01*
X256161Y278127D01*
X256109Y278154D01*
X256041Y278165D01*
X255946Y278195D01*
X255846Y278198D01*
X255778Y278209D01*
X251648Y278209D01*
X250574Y279283D01*
X250550Y279301D01*
X250531Y279323D01*
X250437Y279386D01*
X250347Y279454D01*
X250319Y279464D01*
X250295Y279481D01*
X250187Y279515D01*
X250081Y279555D01*
X250052Y279558D01*
X250024Y279566D01*
X249910Y279569D01*
X249798Y279579D01*
X249769Y279573D01*
X249740Y279574D01*
X249630Y279545D01*
X249519Y279523D01*
X249493Y279509D01*
X249465Y279502D01*
X249367Y279444D01*
X249267Y279392D01*
X249245Y279372D01*
X249220Y279357D01*
X249143Y279274D01*
X249061Y279196D01*
X249046Y279171D01*
X249026Y279149D01*
X248974Y279048D01*
X248917Y278951D01*
X248910Y278922D01*
X248896Y278896D01*
X248883Y278819D01*
X248847Y278675D01*
X248849Y278613D01*
X248841Y278565D01*
X248841Y277048D01*
X247352Y275559D01*
X247279Y275559D01*
X247166Y275543D01*
X247051Y275533D01*
X247025Y275523D01*
X246998Y275519D01*
X246893Y275473D01*
X246786Y275431D01*
X246764Y275414D01*
X246738Y275403D01*
X246651Y275329D01*
X246559Y275260D01*
X246543Y275237D01*
X246521Y275220D01*
X246458Y275124D01*
X246389Y275032D01*
X246379Y275006D01*
X246364Y274983D01*
X246329Y274873D01*
X246289Y274766D01*
X246286Y274738D01*
X246278Y274712D01*
X246275Y274597D01*
X246266Y274483D01*
X246272Y274458D01*
X246271Y274428D01*
X246338Y274170D01*
X246341Y274155D01*
X246381Y274061D01*
X246381Y272039D01*
X245607Y270172D01*
X244178Y268743D01*
X242311Y267969D01*
X240289Y267969D01*
X238422Y268743D01*
X236993Y270172D01*
X236219Y272039D01*
X236219Y274061D01*
X236259Y274155D01*
X236287Y274266D01*
X236322Y274376D01*
X236323Y274404D01*
X236330Y274431D01*
X236326Y274545D01*
X236329Y274660D01*
X236322Y274687D01*
X236321Y274715D01*
X236286Y274824D01*
X236257Y274935D01*
X236243Y274959D01*
X236235Y274986D01*
X236171Y275081D01*
X236112Y275180D01*
X236092Y275199D01*
X236076Y275222D01*
X235989Y275296D01*
X235905Y275374D01*
X235880Y275387D01*
X235859Y275405D01*
X235754Y275452D01*
X235652Y275504D01*
X235627Y275508D01*
X235599Y275520D01*
X235335Y275557D01*
X235321Y275559D01*
X235248Y275559D01*
X235122Y275685D01*
X235053Y275736D01*
X234991Y275795D01*
X234941Y275821D01*
X234895Y275856D01*
X234815Y275886D01*
X234738Y275926D01*
X234683Y275937D01*
X234629Y275957D01*
X234544Y275964D01*
X234459Y275981D01*
X234403Y275976D01*
X234346Y275980D01*
X234262Y275963D01*
X234176Y275956D01*
X234123Y275936D01*
X234067Y275925D01*
X233991Y275885D01*
X233911Y275854D01*
X233865Y275820D01*
X233815Y275794D01*
X233753Y275734D01*
X233684Y275682D01*
X233650Y275637D01*
X233609Y275598D01*
X233565Y275524D01*
X233514Y275455D01*
X233494Y275402D01*
X233465Y275352D01*
X233444Y275269D01*
X233414Y275189D01*
X233409Y275132D01*
X233395Y275077D01*
X233398Y274991D01*
X233391Y274905D01*
X233402Y274857D01*
X233404Y274793D01*
X233449Y274655D01*
X233466Y274578D01*
X233681Y274061D01*
X233681Y272039D01*
X232907Y270172D01*
X231478Y268743D01*
X229611Y267969D01*
X227589Y267969D01*
X225722Y268743D01*
X224293Y270172D01*
X223519Y272039D01*
X223519Y274061D01*
X224293Y275928D01*
X224746Y276381D01*
X224798Y276451D01*
X224858Y276515D01*
X224884Y276564D01*
X224917Y276608D01*
X224948Y276690D01*
X224988Y276768D01*
X224996Y276816D01*
X225018Y276874D01*
X225030Y277022D01*
X225043Y277099D01*
X225043Y277194D01*
X225035Y277252D01*
X225037Y277310D01*
X225015Y277392D01*
X225003Y277476D01*
X224980Y277529D01*
X224965Y277585D01*
X224922Y277658D01*
X224887Y277735D01*
X224849Y277780D01*
X224820Y277830D01*
X224758Y277888D01*
X224704Y277952D01*
X224655Y277984D01*
X224612Y278024D01*
X224537Y278063D01*
X224467Y278110D01*
X224411Y278127D01*
X224359Y278154D01*
X224291Y278165D01*
X224196Y278195D01*
X224096Y278198D01*
X224028Y278209D01*
X217848Y278209D01*
X216576Y279480D01*
X216537Y279510D01*
X216504Y279546D01*
X216424Y279595D01*
X216349Y279651D01*
X216304Y279669D01*
X216262Y279694D01*
X216171Y279719D01*
X216084Y279753D01*
X216035Y279757D01*
X215988Y279770D01*
X215894Y279768D01*
X215800Y279776D01*
X215752Y279766D01*
X215704Y279766D01*
X215614Y279739D01*
X215522Y279720D01*
X215478Y279698D01*
X215431Y279684D01*
X215353Y279633D01*
X215269Y279589D01*
X215234Y279556D01*
X215193Y279529D01*
X215146Y279472D01*
X215063Y279393D01*
X215019Y279318D01*
X214979Y279270D01*
X214933Y279190D01*
X214460Y278717D01*
X213881Y278382D01*
X213234Y278209D01*
X209431Y278209D01*
X209431Y284734D01*
X209423Y284792D01*
X209424Y284850D01*
X209403Y284932D01*
X209391Y285015D01*
X209367Y285069D01*
X209353Y285125D01*
X209310Y285198D01*
X209275Y285275D01*
X209237Y285319D01*
X209207Y285370D01*
X209146Y285427D01*
X209091Y285492D01*
X209043Y285524D01*
X209000Y285564D01*
X208925Y285603D01*
X208855Y285649D01*
X208799Y285667D01*
X208747Y285694D01*
X208679Y285705D01*
X208584Y285735D01*
X208484Y285738D01*
X208416Y285749D01*
X206384Y285749D01*
X206326Y285741D01*
X206268Y285742D01*
X206186Y285721D01*
X206103Y285709D01*
X206049Y285685D01*
X205993Y285671D01*
X205920Y285628D01*
X205843Y285593D01*
X205798Y285555D01*
X205748Y285525D01*
X205690Y285464D01*
X205626Y285409D01*
X205594Y285361D01*
X205554Y285318D01*
X205515Y285243D01*
X205469Y285173D01*
X205451Y285117D01*
X205424Y285065D01*
X205413Y284997D01*
X205383Y284902D01*
X205380Y284802D01*
X205369Y284734D01*
X205369Y278209D01*
X201566Y278209D01*
X200919Y278382D01*
X200340Y278717D01*
X199774Y279283D01*
X199750Y279301D01*
X199731Y279323D01*
X199637Y279386D01*
X199547Y279454D01*
X199519Y279464D01*
X199495Y279481D01*
X199387Y279515D01*
X199281Y279555D01*
X199252Y279558D01*
X199224Y279566D01*
X199110Y279569D01*
X198998Y279579D01*
X198969Y279573D01*
X198940Y279574D01*
X198830Y279545D01*
X198719Y279523D01*
X198693Y279509D01*
X198665Y279502D01*
X198567Y279444D01*
X198467Y279392D01*
X198445Y279372D01*
X198420Y279357D01*
X198343Y279274D01*
X198261Y279196D01*
X198246Y279171D01*
X198226Y279149D01*
X198174Y279048D01*
X198117Y278951D01*
X198110Y278922D01*
X198096Y278896D01*
X198083Y278819D01*
X198047Y278675D01*
X198049Y278613D01*
X198041Y278565D01*
X198041Y277766D01*
X197868Y277119D01*
X197533Y276540D01*
X197060Y276067D01*
X196481Y275732D01*
X195834Y275559D01*
X192531Y275559D01*
X192531Y282584D01*
X192523Y282642D01*
X192524Y282700D01*
X192503Y282782D01*
X192491Y282865D01*
X192467Y282919D01*
X192453Y282975D01*
X192410Y283048D01*
X192375Y283125D01*
X192337Y283169D01*
X192307Y283220D01*
X192246Y283277D01*
X192191Y283342D01*
X192143Y283374D01*
X192100Y283414D01*
X192025Y283453D01*
X191955Y283499D01*
X191899Y283517D01*
X191847Y283544D01*
X191779Y283555D01*
X191684Y283585D01*
X191584Y283588D01*
X191516Y283599D01*
X190499Y283599D01*
X190499Y284616D01*
X190491Y284674D01*
X190492Y284732D01*
X190471Y284814D01*
X190459Y284897D01*
X190435Y284951D01*
X190421Y285007D01*
X190378Y285080D01*
X190343Y285157D01*
X190305Y285201D01*
X190275Y285252D01*
X190214Y285309D01*
X190159Y285374D01*
X190111Y285406D01*
X190068Y285446D01*
X189993Y285485D01*
X189923Y285531D01*
X189867Y285549D01*
X189815Y285576D01*
X189747Y285587D01*
X189652Y285617D01*
X189552Y285620D01*
X189484Y285631D01*
X182959Y285631D01*
X182959Y289434D01*
X183132Y290081D01*
X183467Y290660D01*
X183940Y291133D01*
X184020Y291179D01*
X184058Y291209D01*
X184102Y291232D01*
X184170Y291297D01*
X184244Y291354D01*
X184273Y291394D01*
X184308Y291428D01*
X184355Y291509D01*
X184410Y291585D01*
X184427Y291631D01*
X184452Y291673D01*
X184475Y291764D01*
X184507Y291852D01*
X184510Y291901D01*
X184522Y291948D01*
X184519Y292042D01*
X184525Y292136D01*
X184514Y292184D01*
X184513Y292233D01*
X184484Y292322D01*
X184464Y292414D01*
X184440Y292457D01*
X184425Y292503D01*
X184382Y292564D01*
X184328Y292664D01*
X184267Y292725D01*
X184230Y292776D01*
X182959Y294048D01*
X182959Y307152D01*
X184727Y308920D01*
X184728Y308921D01*
X184729Y308922D01*
X184814Y309035D01*
X184897Y309147D01*
X184898Y309148D01*
X184899Y309150D01*
X184949Y309282D01*
X184999Y309413D01*
X184999Y309414D01*
X184999Y309416D01*
X185011Y309558D01*
X185022Y309696D01*
X185022Y309697D01*
X185022Y309699D01*
X185018Y309715D01*
X184966Y309975D01*
X184952Y310002D01*
X184947Y310026D01*
X184939Y310044D01*
X184939Y312256D01*
X185786Y314300D01*
X187350Y315864D01*
X189035Y316562D01*
X189109Y316606D01*
X189187Y316641D01*
X189231Y316678D01*
X189280Y316707D01*
X189339Y316769D01*
X189404Y316825D01*
X189436Y316872D01*
X189475Y316913D01*
X189514Y316990D01*
X189562Y317061D01*
X189579Y317115D01*
X189605Y317166D01*
X189622Y317250D01*
X189648Y317332D01*
X189649Y317389D01*
X189660Y317445D01*
X189653Y317530D01*
X189655Y317616D01*
X189641Y317671D01*
X189636Y317728D01*
X189605Y317808D01*
X189583Y317891D01*
X189554Y317940D01*
X189534Y317993D01*
X189482Y318062D01*
X189438Y318136D01*
X189396Y318175D01*
X189362Y318220D01*
X189293Y318272D01*
X189231Y318330D01*
X189180Y318356D01*
X189134Y318390D01*
X189054Y318421D01*
X188977Y318460D01*
X188929Y318468D01*
X188868Y318491D01*
X188724Y318502D01*
X188646Y318515D01*
X168290Y318515D01*
X168205Y318503D01*
X168119Y318501D01*
X168065Y318483D01*
X168008Y318475D01*
X167930Y318440D01*
X167848Y318414D01*
X167801Y318382D01*
X167749Y318359D01*
X167683Y318304D01*
X167612Y318256D01*
X167575Y318212D01*
X167532Y318176D01*
X167484Y318104D01*
X167429Y318038D01*
X167406Y317986D01*
X167374Y317939D01*
X167348Y317857D01*
X167314Y317778D01*
X167306Y317722D01*
X167289Y317668D01*
X167286Y317582D01*
X167275Y317497D01*
X167283Y317441D01*
X167281Y317384D01*
X167303Y317301D01*
X167315Y317216D01*
X167339Y317164D01*
X167353Y317109D01*
X167397Y317035D01*
X167432Y316956D01*
X167469Y316913D01*
X167498Y316864D01*
X167561Y316805D01*
X167617Y316740D01*
X167659Y316714D01*
X167706Y316670D01*
X167835Y316604D01*
X167901Y316562D01*
X171863Y314921D01*
X175221Y311563D01*
X177039Y307175D01*
X177039Y302425D01*
X175221Y298037D01*
X171863Y294679D01*
X167745Y292973D01*
X167710Y292953D01*
X167672Y292940D01*
X167648Y292922D01*
X167621Y292912D01*
X167565Y292867D01*
X167500Y292829D01*
X167472Y292799D01*
X167439Y292776D01*
X167420Y292753D01*
X167398Y292735D01*
X167357Y292677D01*
X167305Y292622D01*
X167286Y292586D01*
X167261Y292555D01*
X167249Y292527D01*
X167233Y292504D01*
X167209Y292437D01*
X167174Y292369D01*
X167167Y292330D01*
X167151Y292293D01*
X167148Y292262D01*
X167138Y292236D01*
X167134Y292165D01*
X167119Y292090D01*
X167123Y292050D01*
X167118Y292010D01*
X167123Y291980D01*
X167122Y291952D01*
X167137Y291883D01*
X167144Y291807D01*
X167158Y291770D01*
X167165Y291730D01*
X167178Y291702D01*
X167184Y291675D01*
X167219Y291612D01*
X167246Y291542D01*
X167270Y291510D01*
X167287Y291474D01*
X167308Y291451D01*
X167321Y291426D01*
X167372Y291375D01*
X167417Y291315D01*
X167449Y291291D01*
X167476Y291261D01*
X167502Y291245D01*
X167522Y291225D01*
X167576Y291196D01*
X167645Y291145D01*
X167683Y291131D01*
X167716Y291109D01*
X167771Y291095D01*
X167820Y291069D01*
X169683Y290464D01*
X171357Y289611D01*
X172878Y288506D01*
X174206Y287178D01*
X175311Y285657D01*
X176164Y283983D01*
X176745Y282196D01*
X176866Y281431D01*
X166116Y281431D01*
X166058Y281423D01*
X166000Y281425D01*
X165918Y281403D01*
X165835Y281391D01*
X165781Y281367D01*
X165725Y281353D01*
X165652Y281310D01*
X165575Y281275D01*
X165531Y281237D01*
X165480Y281207D01*
X165423Y281146D01*
X165358Y281091D01*
X165326Y281043D01*
X165286Y281000D01*
X165247Y280925D01*
X165201Y280855D01*
X165183Y280799D01*
X165156Y280747D01*
X165145Y280679D01*
X165115Y280584D01*
X165112Y280484D01*
X165101Y280416D01*
X165101Y279399D01*
X165099Y279399D01*
X165099Y280416D01*
X165091Y280474D01*
X165092Y280532D01*
X165071Y280614D01*
X165059Y280697D01*
X165035Y280751D01*
X165021Y280807D01*
X164978Y280880D01*
X164943Y280957D01*
X164905Y281002D01*
X164875Y281052D01*
X164814Y281110D01*
X164759Y281174D01*
X164711Y281206D01*
X164668Y281246D01*
X164593Y281285D01*
X164523Y281331D01*
X164467Y281349D01*
X164415Y281376D01*
X164347Y281387D01*
X164252Y281417D01*
X164152Y281420D01*
X164084Y281431D01*
X140716Y281431D01*
X140658Y281423D01*
X140600Y281425D01*
X140518Y281403D01*
X140435Y281391D01*
X140381Y281367D01*
X140325Y281353D01*
X140252Y281310D01*
X140175Y281275D01*
X140131Y281237D01*
X140080Y281207D01*
X140023Y281146D01*
X139958Y281091D01*
X139926Y281043D01*
X139886Y281000D01*
X139847Y280925D01*
X139801Y280855D01*
X139783Y280799D01*
X139756Y280747D01*
X139745Y280679D01*
X139715Y280584D01*
X139712Y280484D01*
X139701Y280416D01*
X139701Y279399D01*
X139699Y279399D01*
X139699Y280416D01*
X139691Y280474D01*
X139692Y280532D01*
X139671Y280614D01*
X139659Y280697D01*
X139635Y280751D01*
X139621Y280807D01*
X139578Y280880D01*
X139543Y280957D01*
X139505Y281002D01*
X139475Y281052D01*
X139414Y281110D01*
X139359Y281174D01*
X139311Y281206D01*
X139268Y281246D01*
X139193Y281285D01*
X139123Y281331D01*
X139067Y281349D01*
X139015Y281376D01*
X138947Y281387D01*
X138852Y281417D01*
X138752Y281420D01*
X138684Y281431D01*
X127934Y281431D01*
X128055Y282196D01*
X128636Y283983D01*
X129489Y285657D01*
X130594Y287178D01*
X131922Y288506D01*
X133443Y289611D01*
X135117Y290464D01*
X136980Y291069D01*
X137006Y291082D01*
X137036Y291089D01*
X137071Y291109D01*
X137109Y291121D01*
X137171Y291162D01*
X137236Y291194D01*
X137257Y291214D01*
X137283Y291228D01*
X137312Y291257D01*
X137345Y291279D01*
X137393Y291337D01*
X137447Y291385D01*
X137461Y291409D01*
X137483Y291431D01*
X137502Y291466D01*
X137528Y291497D01*
X137559Y291566D01*
X137596Y291627D01*
X137604Y291654D01*
X137618Y291681D01*
X137627Y291720D01*
X137643Y291757D01*
X137654Y291832D01*
X137673Y291901D01*
X137673Y291928D01*
X137679Y291959D01*
X137677Y291999D01*
X137682Y292038D01*
X137671Y292114D01*
X137671Y292185D01*
X137663Y292211D01*
X137661Y292242D01*
X137647Y292280D01*
X137641Y292320D01*
X137610Y292389D01*
X137590Y292457D01*
X137575Y292481D01*
X137564Y292510D01*
X137541Y292542D01*
X137524Y292579D01*
X137475Y292636D01*
X137437Y292697D01*
X137415Y292715D01*
X137398Y292740D01*
X137366Y292765D01*
X137340Y292795D01*
X137286Y292829D01*
X137223Y292884D01*
X137197Y292896D01*
X137174Y292915D01*
X137103Y292943D01*
X137055Y292973D01*
X132937Y294679D01*
X129579Y298037D01*
X127761Y302425D01*
X127761Y307175D01*
X129579Y311563D01*
X132937Y314921D01*
X136899Y316562D01*
X136973Y316606D01*
X137051Y316641D01*
X137094Y316678D01*
X137143Y316707D01*
X137202Y316769D01*
X137268Y316825D01*
X137300Y316872D01*
X137339Y316913D01*
X137378Y316990D01*
X137426Y317061D01*
X137443Y317115D01*
X137469Y317166D01*
X137485Y317250D01*
X137511Y317332D01*
X137513Y317389D01*
X137524Y317445D01*
X137517Y317530D01*
X137519Y317616D01*
X137504Y317671D01*
X137499Y317728D01*
X137469Y317808D01*
X137447Y317891D01*
X137418Y317940D01*
X137397Y317993D01*
X137346Y318062D01*
X137302Y318136D01*
X137260Y318175D01*
X137226Y318220D01*
X137157Y318271D01*
X137094Y318330D01*
X137044Y318356D01*
X136998Y318390D01*
X136918Y318421D01*
X136841Y318460D01*
X136792Y318468D01*
X136732Y318491D01*
X136588Y318502D01*
X136510Y318515D01*
X112522Y318515D01*
X112464Y318507D01*
X112406Y318509D01*
X112324Y318487D01*
X112240Y318475D01*
X112187Y318452D01*
X112131Y318437D01*
X112058Y318394D01*
X111981Y318359D01*
X111936Y318321D01*
X111886Y318292D01*
X111828Y318230D01*
X111764Y318176D01*
X111732Y318127D01*
X111692Y318084D01*
X111653Y318009D01*
X111606Y317939D01*
X111589Y317883D01*
X111562Y317831D01*
X111551Y317763D01*
X111521Y317668D01*
X111518Y317568D01*
X111507Y317500D01*
X111507Y201727D01*
X100628Y190848D01*
X100576Y190778D01*
X100516Y190714D01*
X100490Y190665D01*
X100457Y190621D01*
X100426Y190539D01*
X100386Y190461D01*
X100378Y190414D01*
X100356Y190355D01*
X100344Y190208D01*
X100331Y190130D01*
X100331Y189489D01*
X99557Y187622D01*
X98157Y186222D01*
X98122Y186175D01*
X98080Y186135D01*
X98037Y186062D01*
X97986Y185995D01*
X97965Y185940D01*
X97936Y185890D01*
X97915Y185808D01*
X97885Y185729D01*
X97880Y185671D01*
X97866Y185614D01*
X97868Y185530D01*
X97861Y185446D01*
X97873Y185388D01*
X97875Y185330D01*
X97901Y185250D01*
X97917Y185167D01*
X97944Y185115D01*
X97962Y185059D01*
X98002Y185003D01*
X98048Y184915D01*
X98117Y184842D01*
X98157Y184786D01*
X99091Y183852D01*
X99091Y182772D01*
X99095Y182743D01*
X99092Y182713D01*
X99115Y182602D01*
X99131Y182490D01*
X99143Y182464D01*
X99148Y182435D01*
X99201Y182334D01*
X99247Y182231D01*
X99266Y182208D01*
X99279Y182182D01*
X99357Y182100D01*
X99430Y182014D01*
X99455Y181998D01*
X99475Y181976D01*
X99573Y181919D01*
X99667Y181856D01*
X99695Y181847D01*
X99720Y181833D01*
X99830Y181805D01*
X99938Y181770D01*
X99968Y181770D01*
X99996Y181762D01*
X100109Y181766D01*
X100222Y181763D01*
X100251Y181771D01*
X100280Y181772D01*
X100388Y181806D01*
X100497Y181835D01*
X100523Y181850D01*
X100551Y181859D01*
X100615Y181905D01*
X100742Y181980D01*
X100785Y182026D01*
X100824Y182054D01*
X102572Y183802D01*
X102602Y183842D01*
X102612Y183850D01*
X102630Y183878D01*
X102684Y183936D01*
X102710Y183985D01*
X102743Y184029D01*
X102759Y184071D01*
X102770Y184087D01*
X102782Y184127D01*
X102814Y184189D01*
X102822Y184236D01*
X102844Y184295D01*
X102847Y184332D01*
X102855Y184358D01*
X102858Y184451D01*
X102869Y184520D01*
X102869Y185161D01*
X103643Y187028D01*
X105072Y188457D01*
X106939Y189231D01*
X108961Y189231D01*
X110828Y188457D01*
X112257Y187028D01*
X113031Y185161D01*
X113031Y183139D01*
X112257Y181272D01*
X110828Y179843D01*
X108961Y179069D01*
X108320Y179069D01*
X108233Y179057D01*
X108146Y179054D01*
X108093Y179037D01*
X108038Y179029D01*
X107958Y178994D01*
X107875Y178967D01*
X107836Y178939D01*
X107779Y178913D01*
X107666Y178817D01*
X107602Y178772D01*
X103073Y174243D01*
X100106Y174243D01*
X100048Y174235D01*
X99990Y174237D01*
X99908Y174215D01*
X99824Y174203D01*
X99771Y174180D01*
X99715Y174165D01*
X99642Y174122D01*
X99565Y174087D01*
X99520Y174049D01*
X99470Y174020D01*
X99412Y173958D01*
X99348Y173904D01*
X99316Y173855D01*
X99276Y173812D01*
X99237Y173737D01*
X99190Y173667D01*
X99173Y173611D01*
X99146Y173559D01*
X99135Y173491D01*
X99105Y173396D01*
X99102Y173296D01*
X99091Y173228D01*
X99091Y171748D01*
X97602Y170259D01*
X84498Y170259D01*
X83268Y171489D01*
X83221Y171524D01*
X83181Y171567D01*
X83108Y171609D01*
X83041Y171660D01*
X82986Y171681D01*
X82936Y171710D01*
X82854Y171731D01*
X82775Y171761D01*
X82717Y171766D01*
X82660Y171780D01*
X82576Y171778D01*
X82492Y171785D01*
X82434Y171773D01*
X82376Y171771D01*
X82296Y171745D01*
X82213Y171729D01*
X82161Y171702D01*
X82105Y171684D01*
X82049Y171644D01*
X81961Y171598D01*
X81888Y171529D01*
X81832Y171489D01*
X80602Y170259D01*
X78622Y170259D01*
X78564Y170251D01*
X78506Y170253D01*
X78424Y170231D01*
X78340Y170219D01*
X78287Y170196D01*
X78231Y170181D01*
X78158Y170138D01*
X78081Y170103D01*
X78036Y170065D01*
X77986Y170036D01*
X77928Y169974D01*
X77864Y169920D01*
X77832Y169871D01*
X77792Y169828D01*
X77753Y169753D01*
X77706Y169683D01*
X77689Y169627D01*
X77662Y169575D01*
X77651Y169507D01*
X77621Y169412D01*
X77618Y169312D01*
X77607Y169244D01*
X77607Y167306D01*
X77615Y167248D01*
X77613Y167190D01*
X77635Y167108D01*
X77647Y167024D01*
X77670Y166971D01*
X77685Y166915D01*
X77728Y166842D01*
X77763Y166765D01*
X77801Y166720D01*
X77830Y166670D01*
X77892Y166612D01*
X77946Y166548D01*
X77995Y166516D01*
X78038Y166476D01*
X78113Y166437D01*
X78183Y166390D01*
X78239Y166373D01*
X78291Y166346D01*
X78359Y166335D01*
X78454Y166305D01*
X78554Y166302D01*
X78622Y166291D01*
X80602Y166291D01*
X81874Y165020D01*
X81912Y164990D01*
X81945Y164954D01*
X82026Y164905D01*
X82101Y164849D01*
X82146Y164831D01*
X82188Y164806D01*
X82278Y164781D01*
X82366Y164748D01*
X82415Y164743D01*
X82462Y164731D01*
X82556Y164732D01*
X82650Y164724D01*
X82697Y164734D01*
X82746Y164734D01*
X82836Y164761D01*
X82928Y164780D01*
X82972Y164802D01*
X83018Y164816D01*
X83097Y164868D01*
X83181Y164911D01*
X83216Y164944D01*
X83257Y164971D01*
X83304Y165028D01*
X83387Y165107D01*
X83431Y165182D01*
X83471Y165230D01*
X83517Y165310D01*
X83990Y165783D01*
X84569Y166118D01*
X85216Y166291D01*
X89019Y166291D01*
X89019Y159766D01*
X89027Y159708D01*
X89025Y159650D01*
X89047Y159568D01*
X89059Y159485D01*
X89083Y159431D01*
X89097Y159375D01*
X89140Y159302D01*
X89175Y159225D01*
X89213Y159181D01*
X89243Y159130D01*
X89304Y159073D01*
X89359Y159008D01*
X89407Y158976D01*
X89450Y158936D01*
X89525Y158897D01*
X89595Y158851D01*
X89651Y158833D01*
X89703Y158806D01*
X89771Y158795D01*
X89866Y158765D01*
X89966Y158762D01*
X90034Y158751D01*
X91051Y158751D01*
X91051Y158749D01*
X90034Y158749D01*
X89976Y158741D01*
X89918Y158742D01*
X89836Y158721D01*
X89753Y158709D01*
X89699Y158685D01*
X89643Y158671D01*
X89570Y158628D01*
X89493Y158593D01*
X89448Y158555D01*
X89398Y158525D01*
X89340Y158464D01*
X89276Y158409D01*
X89244Y158361D01*
X89204Y158318D01*
X89165Y158243D01*
X89119Y158173D01*
X89101Y158117D01*
X89074Y158065D01*
X89063Y157997D01*
X89033Y157902D01*
X89030Y157802D01*
X89019Y157734D01*
X89019Y151209D01*
X85216Y151209D01*
X84569Y151382D01*
X83990Y151717D01*
X83517Y152190D01*
X83471Y152270D01*
X83441Y152309D01*
X83418Y152352D01*
X83353Y152420D01*
X83295Y152494D01*
X83256Y152523D01*
X83222Y152558D01*
X83141Y152605D01*
X83065Y152660D01*
X83019Y152677D01*
X82977Y152702D01*
X82886Y152725D01*
X82798Y152757D01*
X82749Y152760D01*
X82702Y152772D01*
X82608Y152769D01*
X82514Y152775D01*
X82466Y152764D01*
X82417Y152763D01*
X82328Y152734D01*
X82236Y152714D01*
X82193Y152690D01*
X82147Y152675D01*
X82086Y152632D01*
X81986Y152578D01*
X81925Y152517D01*
X81874Y152480D01*
X80602Y151209D01*
X74327Y151209D01*
X74298Y151205D01*
X74269Y151208D01*
X74158Y151185D01*
X74045Y151169D01*
X74019Y151157D01*
X73990Y151152D01*
X73889Y151099D01*
X73786Y151053D01*
X73764Y151034D01*
X73738Y151021D01*
X73655Y150943D01*
X73569Y150870D01*
X73553Y150845D01*
X73532Y150825D01*
X73474Y150727D01*
X73411Y150633D01*
X73403Y150605D01*
X73388Y150580D01*
X73360Y150470D01*
X73326Y150362D01*
X73325Y150332D01*
X73318Y150304D01*
X73321Y150191D01*
X73318Y150078D01*
X73326Y150049D01*
X73327Y150020D01*
X73362Y149912D01*
X73390Y149803D01*
X73405Y149777D01*
X73414Y149749D01*
X73460Y149685D01*
X73535Y149558D01*
X73581Y149515D01*
X73609Y149476D01*
X74157Y148928D01*
X74931Y147061D01*
X74931Y145039D01*
X74157Y143172D01*
X72728Y141743D01*
X70861Y140969D01*
X70220Y140969D01*
X70133Y140957D01*
X70046Y140954D01*
X69993Y140937D01*
X69938Y140929D01*
X69858Y140894D01*
X69775Y140867D01*
X69736Y140839D01*
X69679Y140813D01*
X69566Y140717D01*
X69502Y140672D01*
X68173Y139343D01*
X35799Y139343D01*
X35712Y139331D01*
X35625Y139328D01*
X35572Y139311D01*
X35518Y139303D01*
X35438Y139268D01*
X35355Y139241D01*
X35315Y139213D01*
X35258Y139187D01*
X35145Y139091D01*
X35081Y139046D01*
X34628Y138593D01*
X32761Y137819D01*
X30739Y137819D01*
X28872Y138593D01*
X27443Y140022D01*
X26669Y141889D01*
X26669Y143911D01*
X27443Y145778D01*
X28872Y147207D01*
X30739Y147981D01*
X32761Y147981D01*
X34628Y147207D01*
X35081Y146754D01*
X35151Y146702D01*
X35215Y146642D01*
X35264Y146616D01*
X35308Y146583D01*
X35390Y146552D01*
X35468Y146512D01*
X35516Y146504D01*
X35574Y146482D01*
X35722Y146470D01*
X35799Y146457D01*
X40757Y146457D01*
X40786Y146461D01*
X40815Y146458D01*
X40926Y146481D01*
X41039Y146497D01*
X41065Y146509D01*
X41094Y146514D01*
X41195Y146567D01*
X41298Y146613D01*
X41320Y146632D01*
X41346Y146645D01*
X41429Y146723D01*
X41515Y146796D01*
X41531Y146821D01*
X41552Y146841D01*
X41610Y146939D01*
X41673Y147033D01*
X41681Y147061D01*
X41696Y147086D01*
X41724Y147196D01*
X41758Y147304D01*
X41759Y147334D01*
X41766Y147362D01*
X41763Y147475D01*
X41766Y147588D01*
X41758Y147617D01*
X41757Y147646D01*
X41722Y147754D01*
X41694Y147863D01*
X41679Y147889D01*
X41670Y147917D01*
X41624Y147981D01*
X41549Y148108D01*
X41503Y148151D01*
X41475Y148190D01*
X40143Y149522D01*
X39369Y151389D01*
X39369Y153411D01*
X40143Y155278D01*
X41572Y156707D01*
X43439Y157481D01*
X45461Y157481D01*
X47328Y156707D01*
X47781Y156254D01*
X47851Y156202D01*
X47915Y156142D01*
X47964Y156116D01*
X48008Y156083D01*
X48090Y156052D01*
X48168Y156012D01*
X48216Y156004D01*
X48274Y155982D01*
X48422Y155970D01*
X48499Y155957D01*
X64994Y155957D01*
X65052Y155965D01*
X65110Y155963D01*
X65192Y155985D01*
X65276Y155997D01*
X65329Y156020D01*
X65385Y156035D01*
X65458Y156078D01*
X65535Y156113D01*
X65580Y156151D01*
X65630Y156180D01*
X65688Y156242D01*
X65752Y156296D01*
X65784Y156345D01*
X65824Y156388D01*
X65863Y156463D01*
X65910Y156533D01*
X65927Y156589D01*
X65954Y156641D01*
X65965Y156709D01*
X65995Y156804D01*
X65998Y156904D01*
X66009Y156972D01*
X66009Y164802D01*
X67498Y166291D01*
X69478Y166291D01*
X69536Y166299D01*
X69594Y166297D01*
X69676Y166319D01*
X69760Y166331D01*
X69813Y166354D01*
X69869Y166369D01*
X69942Y166412D01*
X70019Y166447D01*
X70064Y166485D01*
X70114Y166514D01*
X70172Y166576D01*
X70236Y166630D01*
X70268Y166679D01*
X70308Y166722D01*
X70347Y166797D01*
X70394Y166867D01*
X70411Y166923D01*
X70438Y166975D01*
X70449Y167043D01*
X70479Y167138D01*
X70482Y167238D01*
X70493Y167306D01*
X70493Y169244D01*
X70485Y169302D01*
X70487Y169360D01*
X70465Y169442D01*
X70453Y169526D01*
X70430Y169579D01*
X70415Y169635D01*
X70372Y169708D01*
X70337Y169785D01*
X70299Y169830D01*
X70270Y169880D01*
X70208Y169938D01*
X70154Y170002D01*
X70105Y170034D01*
X70062Y170074D01*
X69987Y170113D01*
X69917Y170160D01*
X69861Y170177D01*
X69809Y170204D01*
X69741Y170215D01*
X69646Y170245D01*
X69546Y170248D01*
X69478Y170259D01*
X67498Y170259D01*
X66009Y171748D01*
X66009Y183852D01*
X67367Y185210D01*
X67385Y185234D01*
X67407Y185253D01*
X67470Y185347D01*
X67538Y185437D01*
X67548Y185465D01*
X67565Y185489D01*
X67599Y185597D01*
X67639Y185703D01*
X67642Y185732D01*
X67650Y185760D01*
X67653Y185874D01*
X67663Y185986D01*
X67657Y186015D01*
X67658Y186044D01*
X67629Y186154D01*
X67607Y186265D01*
X67593Y186291D01*
X67586Y186319D01*
X67528Y186417D01*
X67476Y186517D01*
X67456Y186539D01*
X67441Y186564D01*
X67358Y186641D01*
X67280Y186723D01*
X67255Y186738D01*
X67233Y186758D01*
X67132Y186810D01*
X67035Y186867D01*
X67006Y186874D01*
X66980Y186888D01*
X66903Y186901D01*
X66759Y186937D01*
X66697Y186935D01*
X66649Y186943D01*
X59044Y186943D01*
X58957Y186931D01*
X58870Y186928D01*
X58817Y186911D01*
X58762Y186903D01*
X58682Y186868D01*
X58599Y186841D01*
X58560Y186813D01*
X58503Y186787D01*
X58390Y186691D01*
X58326Y186646D01*
X56178Y184498D01*
X56126Y184428D01*
X56066Y184364D01*
X56040Y184315D01*
X56007Y184271D01*
X55976Y184189D01*
X55936Y184111D01*
X55928Y184064D01*
X55906Y184005D01*
X55894Y183858D01*
X55881Y183780D01*
X55881Y183139D01*
X55107Y181272D01*
X53678Y179843D01*
X51811Y179069D01*
X49789Y179069D01*
X47922Y179843D01*
X46493Y181272D01*
X45719Y183139D01*
X45719Y185161D01*
X46493Y187028D01*
X47922Y188457D01*
X49789Y189231D01*
X50430Y189231D01*
X50517Y189243D01*
X50604Y189246D01*
X50657Y189263D01*
X50712Y189271D01*
X50792Y189306D01*
X50875Y189333D01*
X50914Y189361D01*
X50971Y189387D01*
X51084Y189483D01*
X51148Y189528D01*
X55677Y194057D01*
X77978Y194057D01*
X78036Y194065D01*
X78094Y194063D01*
X78176Y194085D01*
X78260Y194097D01*
X78313Y194120D01*
X78369Y194135D01*
X78442Y194178D01*
X78519Y194213D01*
X78564Y194251D01*
X78614Y194280D01*
X78672Y194342D01*
X78736Y194396D01*
X78768Y194445D01*
X78808Y194488D01*
X78847Y194563D01*
X78894Y194633D01*
X78911Y194689D01*
X78938Y194741D01*
X78949Y194809D01*
X78979Y194904D01*
X78982Y195004D01*
X78993Y195072D01*
X78993Y245444D01*
X78985Y245501D01*
X78987Y245557D01*
X78987Y245558D01*
X78987Y245560D01*
X78965Y245642D01*
X78953Y245726D01*
X78930Y245779D01*
X78915Y245835D01*
X78872Y245908D01*
X78837Y245985D01*
X78799Y246030D01*
X78770Y246080D01*
X78708Y246138D01*
X78654Y246202D01*
X78605Y246234D01*
X78562Y246274D01*
X78487Y246313D01*
X78417Y246360D01*
X78361Y246377D01*
X78309Y246404D01*
X78241Y246415D01*
X78146Y246445D01*
X78046Y246448D01*
X77978Y246459D01*
X65448Y246459D01*
X64176Y247730D01*
X64138Y247760D01*
X64105Y247796D01*
X64024Y247845D01*
X63949Y247901D01*
X63904Y247919D01*
X63862Y247944D01*
X63772Y247969D01*
X63684Y248002D01*
X63635Y248007D01*
X63588Y248019D01*
X63494Y248018D01*
X63400Y248026D01*
X63353Y248016D01*
X63304Y248016D01*
X63214Y247989D01*
X63122Y247970D01*
X63078Y247948D01*
X63032Y247934D01*
X62953Y247882D01*
X62869Y247839D01*
X62834Y247806D01*
X62793Y247779D01*
X62746Y247722D01*
X62663Y247643D01*
X62619Y247568D01*
X62579Y247520D01*
X62533Y247440D01*
X62060Y246967D01*
X61481Y246632D01*
X60834Y246459D01*
X57031Y246459D01*
X57031Y252984D01*
X57023Y253042D01*
X57024Y253100D01*
X57003Y253182D01*
X56991Y253265D01*
X56967Y253319D01*
X56953Y253375D01*
X56910Y253448D01*
X56875Y253525D01*
X56837Y253569D01*
X56807Y253620D01*
X56746Y253677D01*
X56691Y253742D01*
X56643Y253774D01*
X56600Y253814D01*
X56525Y253853D01*
X56455Y253899D01*
X56399Y253917D01*
X56347Y253944D01*
X56279Y253955D01*
X56184Y253985D01*
X56084Y253988D01*
X56016Y253999D01*
X54999Y253999D01*
X54999Y254001D01*
X56016Y254001D01*
X56074Y254009D01*
X56132Y254008D01*
X56214Y254029D01*
X56297Y254041D01*
X56351Y254065D01*
X56407Y254079D01*
X56480Y254122D01*
X56557Y254157D01*
X56601Y254195D01*
X56652Y254225D01*
X56709Y254286D01*
X56774Y254341D01*
X56806Y254389D01*
X56846Y254432D01*
X56885Y254507D01*
X56931Y254577D01*
X56949Y254633D01*
X56976Y254685D01*
X56987Y254753D01*
X57017Y254848D01*
X57020Y254948D01*
X57031Y255016D01*
X57031Y261541D01*
X60834Y261541D01*
X61481Y261368D01*
X62060Y261033D01*
X62533Y260560D01*
X62579Y260480D01*
X62609Y260441D01*
X62632Y260398D01*
X62697Y260330D01*
X62755Y260256D01*
X62794Y260227D01*
X62828Y260192D01*
X62909Y260145D01*
X62985Y260090D01*
X63031Y260073D01*
X63073Y260048D01*
X63164Y260025D01*
X63252Y259993D01*
X63301Y259990D01*
X63348Y259978D01*
X63442Y259981D01*
X63536Y259975D01*
X63584Y259986D01*
X63633Y259987D01*
X63722Y260016D01*
X63814Y260036D01*
X63857Y260060D01*
X63903Y260075D01*
X63964Y260118D01*
X64064Y260172D01*
X64125Y260233D01*
X64176Y260270D01*
X65448Y261541D01*
X74090Y261541D01*
X74177Y261553D01*
X74264Y261556D01*
X74317Y261573D01*
X74372Y261581D01*
X74452Y261616D01*
X74535Y261643D01*
X74574Y261671D01*
X74631Y261697D01*
X74744Y261793D01*
X74808Y261838D01*
X76877Y263907D01*
X78501Y263907D01*
X78588Y263919D01*
X78675Y263922D01*
X78728Y263939D01*
X78782Y263947D01*
X78862Y263982D01*
X78945Y264009D01*
X78985Y264037D01*
X79042Y264063D01*
X79155Y264159D01*
X79219Y264204D01*
X79672Y264657D01*
X81539Y265431D01*
X83561Y265431D01*
X85428Y264657D01*
X86857Y263228D01*
X87631Y261361D01*
X87631Y259339D01*
X86857Y257472D01*
X86404Y257019D01*
X86352Y256949D01*
X86292Y256885D01*
X86266Y256836D01*
X86233Y256792D01*
X86202Y256710D01*
X86162Y256632D01*
X86154Y256584D01*
X86132Y256526D01*
X86120Y256378D01*
X86107Y256301D01*
X86107Y194549D01*
X86119Y194462D01*
X86122Y194375D01*
X86139Y194322D01*
X86147Y194268D01*
X86182Y194188D01*
X86209Y194105D01*
X86237Y194065D01*
X86263Y194008D01*
X86359Y193895D01*
X86404Y193831D01*
X86857Y193378D01*
X87631Y191511D01*
X87631Y189489D01*
X86857Y187622D01*
X86309Y187074D01*
X86291Y187050D01*
X86269Y187031D01*
X86206Y186937D01*
X86138Y186847D01*
X86128Y186819D01*
X86111Y186795D01*
X86077Y186687D01*
X86037Y186581D01*
X86035Y186552D01*
X86026Y186524D01*
X86023Y186410D01*
X86013Y186298D01*
X86019Y186269D01*
X86018Y186240D01*
X86047Y186130D01*
X86069Y186019D01*
X86083Y185993D01*
X86090Y185965D01*
X86148Y185867D01*
X86200Y185767D01*
X86221Y185745D01*
X86235Y185720D01*
X86318Y185643D01*
X86396Y185561D01*
X86421Y185546D01*
X86443Y185526D01*
X86544Y185474D01*
X86641Y185417D01*
X86670Y185410D01*
X86696Y185396D01*
X86773Y185383D01*
X86917Y185347D01*
X86979Y185349D01*
X87027Y185341D01*
X90773Y185341D01*
X90802Y185345D01*
X90831Y185342D01*
X90942Y185365D01*
X91055Y185381D01*
X91081Y185393D01*
X91110Y185398D01*
X91211Y185451D01*
X91314Y185497D01*
X91336Y185516D01*
X91362Y185529D01*
X91445Y185607D01*
X91531Y185680D01*
X91547Y185705D01*
X91568Y185725D01*
X91626Y185823D01*
X91689Y185917D01*
X91697Y185945D01*
X91712Y185970D01*
X91740Y186080D01*
X91774Y186188D01*
X91775Y186218D01*
X91782Y186246D01*
X91779Y186359D01*
X91782Y186472D01*
X91774Y186501D01*
X91773Y186530D01*
X91738Y186638D01*
X91710Y186747D01*
X91695Y186773D01*
X91686Y186801D01*
X91640Y186865D01*
X91565Y186992D01*
X91519Y187035D01*
X91491Y187074D01*
X90943Y187622D01*
X90169Y189489D01*
X90169Y191511D01*
X90943Y193378D01*
X92372Y194807D01*
X94239Y195581D01*
X94880Y195581D01*
X94967Y195593D01*
X95054Y195596D01*
X95107Y195613D01*
X95162Y195621D01*
X95242Y195656D01*
X95325Y195683D01*
X95364Y195711D01*
X95421Y195737D01*
X95534Y195833D01*
X95598Y195878D01*
X104096Y204376D01*
X104148Y204446D01*
X104208Y204510D01*
X104234Y204559D01*
X104267Y204603D01*
X104298Y204685D01*
X104338Y204763D01*
X104346Y204810D01*
X104368Y204869D01*
X104380Y205016D01*
X104393Y205094D01*
X104393Y317500D01*
X104385Y317558D01*
X104387Y317616D01*
X104365Y317698D01*
X104353Y317782D01*
X104330Y317835D01*
X104315Y317891D01*
X104272Y317964D01*
X104237Y318041D01*
X104199Y318086D01*
X104170Y318136D01*
X104108Y318194D01*
X104054Y318258D01*
X104005Y318290D01*
X103962Y318330D01*
X103887Y318369D01*
X103817Y318416D01*
X103761Y318433D01*
X103709Y318460D01*
X103641Y318471D01*
X103546Y318501D01*
X103446Y318504D01*
X103378Y318515D01*
X99822Y318515D01*
X99764Y318507D01*
X99706Y318509D01*
X99624Y318487D01*
X99540Y318475D01*
X99487Y318452D01*
X99431Y318437D01*
X99358Y318394D01*
X99281Y318359D01*
X99236Y318321D01*
X99186Y318292D01*
X99128Y318230D01*
X99064Y318176D01*
X99032Y318127D01*
X98992Y318084D01*
X98953Y318009D01*
X98906Y317939D01*
X98889Y317883D01*
X98862Y317831D01*
X98851Y317763D01*
X98821Y317668D01*
X98818Y317568D01*
X98807Y317500D01*
X98807Y245674D01*
X98819Y245588D01*
X98822Y245500D01*
X98839Y245448D01*
X98847Y245393D01*
X98882Y245313D01*
X98909Y245230D01*
X98937Y245191D01*
X98963Y245133D01*
X99059Y245020D01*
X99104Y244956D01*
X99752Y244308D01*
X100561Y242356D01*
X100561Y240244D01*
X99752Y238292D01*
X98258Y236798D01*
X96306Y235989D01*
X94194Y235989D01*
X92242Y236798D01*
X90748Y238292D01*
X89939Y240244D01*
X89939Y242356D01*
X90748Y244308D01*
X91396Y244956D01*
X91448Y245026D01*
X91508Y245090D01*
X91534Y245140D01*
X91567Y245184D01*
X91598Y245265D01*
X91638Y245343D01*
X91646Y245391D01*
X91668Y245449D01*
X91680Y245597D01*
X91693Y245674D01*
X91693Y317500D01*
X91685Y317558D01*
X91687Y317616D01*
X91665Y317698D01*
X91653Y317782D01*
X91630Y317835D01*
X91615Y317891D01*
X91572Y317964D01*
X91537Y318041D01*
X91499Y318086D01*
X91470Y318136D01*
X91408Y318194D01*
X91354Y318258D01*
X91305Y318290D01*
X91262Y318330D01*
X91187Y318369D01*
X91117Y318416D01*
X91061Y318433D01*
X91009Y318460D01*
X90941Y318471D01*
X90846Y318501D01*
X90746Y318504D01*
X90678Y318515D01*
X5842Y318515D01*
X5784Y318507D01*
X5726Y318509D01*
X5644Y318487D01*
X5560Y318475D01*
X5507Y318452D01*
X5451Y318437D01*
X5378Y318394D01*
X5301Y318359D01*
X5256Y318321D01*
X5206Y318292D01*
X5148Y318230D01*
X5084Y318176D01*
X5052Y318127D01*
X5012Y318084D01*
X4973Y318009D01*
X4926Y317939D01*
X4909Y317883D01*
X4882Y317831D01*
X4871Y317763D01*
X4841Y317668D01*
X4838Y317568D01*
X4827Y317500D01*
X4827Y5842D01*
X4835Y5784D01*
X4833Y5726D01*
X4855Y5644D01*
X4867Y5560D01*
X4890Y5507D01*
X4905Y5451D01*
X4948Y5378D01*
X4983Y5301D01*
X5021Y5256D01*
X5050Y5206D01*
X5112Y5148D01*
X5166Y5084D01*
X5215Y5052D01*
X5258Y5012D01*
X5333Y4973D01*
X5403Y4926D01*
X5459Y4909D01*
X5511Y4882D01*
X5579Y4871D01*
X5674Y4841D01*
X5774Y4838D01*
X5842Y4827D01*
X387858Y4827D01*
X387916Y4835D01*
G37*
%LPC*%
G36*
X105575Y13461D02*
X105575Y13461D01*
X101187Y15279D01*
X97829Y18637D01*
X96011Y23025D01*
X96011Y27775D01*
X97829Y32163D01*
X101187Y35521D01*
X105575Y37339D01*
X110325Y37339D01*
X114713Y35521D01*
X118071Y32163D01*
X119712Y28201D01*
X119727Y28176D01*
X119736Y28148D01*
X119799Y28054D01*
X119857Y27957D01*
X119878Y27936D01*
X119894Y27912D01*
X119981Y27839D01*
X120063Y27761D01*
X120089Y27748D01*
X120112Y27729D01*
X120215Y27683D01*
X120316Y27631D01*
X120345Y27626D01*
X120372Y27614D01*
X120484Y27598D01*
X120595Y27576D01*
X120624Y27579D01*
X120653Y27575D01*
X120765Y27591D01*
X120878Y27601D01*
X120905Y27611D01*
X120935Y27615D01*
X121038Y27662D01*
X121143Y27703D01*
X121167Y27720D01*
X121194Y27732D01*
X121280Y27806D01*
X121370Y27874D01*
X121388Y27898D01*
X121410Y27917D01*
X121452Y27983D01*
X121540Y28102D01*
X121562Y28161D01*
X121588Y28201D01*
X123229Y32163D01*
X126591Y35525D01*
X126598Y35527D01*
X126692Y35590D01*
X126789Y35648D01*
X126809Y35669D01*
X126834Y35686D01*
X126907Y35772D01*
X126984Y35855D01*
X126998Y35881D01*
X127017Y35903D01*
X127063Y36007D01*
X127115Y36107D01*
X127120Y36136D01*
X127132Y36163D01*
X127148Y36275D01*
X127170Y36386D01*
X127167Y36415D01*
X127171Y36445D01*
X127155Y36557D01*
X127145Y36669D01*
X127135Y36697D01*
X127131Y36726D01*
X127084Y36829D01*
X127043Y36935D01*
X127026Y36958D01*
X127013Y36985D01*
X126940Y37071D01*
X126872Y37161D01*
X126848Y37179D01*
X126829Y37201D01*
X126763Y37243D01*
X126644Y37332D01*
X126585Y37354D01*
X126544Y37379D01*
X125392Y37857D01*
X123963Y39286D01*
X123318Y40843D01*
X123302Y40869D01*
X123293Y40899D01*
X123247Y40963D01*
X123173Y41088D01*
X123127Y41132D01*
X123098Y41172D01*
X108608Y55662D01*
X108538Y55714D01*
X108474Y55774D01*
X108425Y55800D01*
X108381Y55833D01*
X108299Y55864D01*
X108221Y55904D01*
X108174Y55912D01*
X108115Y55934D01*
X107968Y55946D01*
X107890Y55959D01*
X99248Y55959D01*
X97759Y57448D01*
X97759Y69552D01*
X99248Y71041D01*
X101228Y71041D01*
X101286Y71049D01*
X101344Y71047D01*
X101426Y71069D01*
X101510Y71081D01*
X101563Y71104D01*
X101619Y71119D01*
X101692Y71162D01*
X101769Y71197D01*
X101814Y71235D01*
X101864Y71264D01*
X101922Y71326D01*
X101986Y71380D01*
X102018Y71429D01*
X102058Y71472D01*
X102097Y71547D01*
X102144Y71617D01*
X102161Y71673D01*
X102188Y71725D01*
X102199Y71793D01*
X102229Y71888D01*
X102232Y71988D01*
X102243Y72056D01*
X102243Y73994D01*
X102235Y74052D01*
X102237Y74110D01*
X102215Y74192D01*
X102203Y74276D01*
X102180Y74329D01*
X102165Y74385D01*
X102122Y74458D01*
X102087Y74535D01*
X102049Y74580D01*
X102020Y74630D01*
X101958Y74688D01*
X101904Y74752D01*
X101855Y74784D01*
X101812Y74824D01*
X101737Y74863D01*
X101667Y74910D01*
X101611Y74927D01*
X101559Y74954D01*
X101491Y74965D01*
X101396Y74995D01*
X101296Y74998D01*
X101228Y75009D01*
X99248Y75009D01*
X97759Y76498D01*
X97759Y88602D01*
X99248Y90091D01*
X112352Y90091D01*
X113624Y88820D01*
X113662Y88790D01*
X113695Y88754D01*
X113776Y88705D01*
X113851Y88649D01*
X113896Y88631D01*
X113938Y88606D01*
X114028Y88581D01*
X114116Y88548D01*
X114165Y88543D01*
X114212Y88531D01*
X114306Y88532D01*
X114400Y88524D01*
X114447Y88534D01*
X114496Y88534D01*
X114586Y88561D01*
X114678Y88580D01*
X114722Y88602D01*
X114768Y88616D01*
X114847Y88668D01*
X114931Y88711D01*
X114966Y88744D01*
X115007Y88771D01*
X115054Y88828D01*
X115137Y88907D01*
X115181Y88982D01*
X115221Y89030D01*
X115267Y89110D01*
X115740Y89583D01*
X116319Y89918D01*
X116966Y90091D01*
X120769Y90091D01*
X120769Y83566D01*
X120777Y83508D01*
X120775Y83450D01*
X120797Y83368D01*
X120809Y83285D01*
X120833Y83231D01*
X120847Y83175D01*
X120890Y83102D01*
X120925Y83025D01*
X120963Y82981D01*
X120993Y82930D01*
X121054Y82873D01*
X121109Y82808D01*
X121157Y82776D01*
X121200Y82736D01*
X121275Y82697D01*
X121345Y82651D01*
X121401Y82633D01*
X121453Y82606D01*
X121521Y82595D01*
X121616Y82565D01*
X121716Y82562D01*
X121784Y82551D01*
X123816Y82551D01*
X123874Y82559D01*
X123932Y82558D01*
X124014Y82579D01*
X124097Y82591D01*
X124151Y82615D01*
X124207Y82629D01*
X124280Y82672D01*
X124357Y82707D01*
X124401Y82745D01*
X124452Y82775D01*
X124509Y82836D01*
X124574Y82891D01*
X124606Y82939D01*
X124646Y82982D01*
X124685Y83057D01*
X124731Y83127D01*
X124749Y83183D01*
X124776Y83235D01*
X124787Y83303D01*
X124817Y83398D01*
X124820Y83498D01*
X124831Y83566D01*
X124831Y90091D01*
X128768Y90091D01*
X128772Y90091D01*
X128796Y90088D01*
X128845Y90096D01*
X128894Y90095D01*
X128984Y90118D01*
X129076Y90133D01*
X129121Y90154D01*
X129169Y90167D01*
X129249Y90214D01*
X129334Y90254D01*
X129371Y90286D01*
X129414Y90312D01*
X129478Y90380D01*
X129548Y90441D01*
X129574Y90483D01*
X129608Y90519D01*
X129651Y90602D01*
X129701Y90680D01*
X129715Y90728D01*
X129738Y90772D01*
X129750Y90845D01*
X129782Y90953D01*
X129783Y91041D01*
X129793Y91103D01*
X129793Y120906D01*
X129781Y120993D01*
X129778Y121080D01*
X129761Y121133D01*
X129753Y121188D01*
X129718Y121268D01*
X129691Y121351D01*
X129663Y121390D01*
X129637Y121447D01*
X129541Y121560D01*
X129496Y121624D01*
X125608Y125512D01*
X125538Y125564D01*
X125474Y125624D01*
X125425Y125650D01*
X125381Y125683D01*
X125299Y125714D01*
X125221Y125754D01*
X125174Y125762D01*
X125115Y125784D01*
X124968Y125796D01*
X124890Y125809D01*
X116248Y125809D01*
X114976Y127080D01*
X114938Y127110D01*
X114905Y127146D01*
X114824Y127195D01*
X114749Y127251D01*
X114704Y127269D01*
X114662Y127294D01*
X114572Y127319D01*
X114484Y127352D01*
X114435Y127357D01*
X114388Y127369D01*
X114294Y127368D01*
X114200Y127376D01*
X114153Y127366D01*
X114104Y127366D01*
X114014Y127339D01*
X113922Y127320D01*
X113878Y127298D01*
X113832Y127284D01*
X113753Y127232D01*
X113669Y127189D01*
X113634Y127156D01*
X113593Y127129D01*
X113546Y127072D01*
X113463Y126993D01*
X113419Y126918D01*
X113379Y126870D01*
X113333Y126790D01*
X112860Y126317D01*
X112281Y125982D01*
X111634Y125809D01*
X107831Y125809D01*
X107831Y132334D01*
X107823Y132392D01*
X107824Y132450D01*
X107803Y132532D01*
X107791Y132615D01*
X107767Y132669D01*
X107753Y132725D01*
X107710Y132798D01*
X107675Y132875D01*
X107637Y132919D01*
X107607Y132970D01*
X107546Y133027D01*
X107491Y133092D01*
X107443Y133124D01*
X107400Y133164D01*
X107325Y133203D01*
X107255Y133249D01*
X107199Y133267D01*
X107147Y133294D01*
X107079Y133305D01*
X106984Y133335D01*
X106884Y133338D01*
X106816Y133349D01*
X105799Y133349D01*
X105799Y133351D01*
X106816Y133351D01*
X106874Y133359D01*
X106932Y133358D01*
X107014Y133379D01*
X107097Y133391D01*
X107151Y133415D01*
X107207Y133429D01*
X107280Y133472D01*
X107357Y133507D01*
X107401Y133545D01*
X107452Y133575D01*
X107509Y133636D01*
X107574Y133691D01*
X107606Y133739D01*
X107646Y133782D01*
X107685Y133857D01*
X107731Y133927D01*
X107749Y133983D01*
X107776Y134035D01*
X107787Y134103D01*
X107817Y134198D01*
X107820Y134298D01*
X107831Y134366D01*
X107831Y140891D01*
X111634Y140891D01*
X112281Y140718D01*
X112860Y140383D01*
X113333Y139910D01*
X113379Y139830D01*
X113409Y139791D01*
X113432Y139748D01*
X113497Y139680D01*
X113555Y139606D01*
X113594Y139577D01*
X113628Y139542D01*
X113709Y139495D01*
X113785Y139440D01*
X113831Y139423D01*
X113873Y139398D01*
X113964Y139375D01*
X114052Y139343D01*
X114101Y139340D01*
X114148Y139328D01*
X114242Y139331D01*
X114336Y139325D01*
X114384Y139336D01*
X114433Y139337D01*
X114522Y139366D01*
X114614Y139386D01*
X114657Y139410D01*
X114703Y139425D01*
X114764Y139468D01*
X114864Y139522D01*
X114925Y139583D01*
X114976Y139620D01*
X116254Y140897D01*
X116342Y140915D01*
X116455Y140931D01*
X116481Y140943D01*
X116510Y140948D01*
X116611Y141001D01*
X116714Y141047D01*
X116736Y141066D01*
X116762Y141079D01*
X116845Y141157D01*
X116931Y141230D01*
X116947Y141255D01*
X116968Y141275D01*
X117026Y141373D01*
X117089Y141467D01*
X117097Y141495D01*
X117112Y141520D01*
X117140Y141630D01*
X117174Y141738D01*
X117175Y141768D01*
X117182Y141796D01*
X117179Y141909D01*
X117182Y142022D01*
X117174Y142051D01*
X117173Y142080D01*
X117138Y142188D01*
X117110Y142297D01*
X117095Y142323D01*
X117086Y142351D01*
X117040Y142415D01*
X116965Y142542D01*
X116919Y142585D01*
X116891Y142624D01*
X116343Y143172D01*
X115569Y145039D01*
X115569Y147061D01*
X116343Y148928D01*
X117772Y150357D01*
X119639Y151131D01*
X121661Y151131D01*
X123528Y150357D01*
X124957Y148928D01*
X125731Y147061D01*
X125731Y146420D01*
X125743Y146333D01*
X125746Y146246D01*
X125763Y146193D01*
X125771Y146138D01*
X125806Y146058D01*
X125833Y145975D01*
X125861Y145936D01*
X125887Y145879D01*
X125983Y145766D01*
X126028Y145702D01*
X126357Y145373D01*
X126357Y141906D01*
X126365Y141848D01*
X126363Y141790D01*
X126385Y141708D01*
X126397Y141624D01*
X126420Y141571D01*
X126435Y141515D01*
X126478Y141442D01*
X126513Y141365D01*
X126551Y141320D01*
X126580Y141270D01*
X126642Y141212D01*
X126696Y141148D01*
X126745Y141116D01*
X126788Y141076D01*
X126863Y141037D01*
X126933Y140990D01*
X126989Y140973D01*
X127041Y140946D01*
X127109Y140935D01*
X127204Y140905D01*
X127304Y140902D01*
X127372Y140891D01*
X129352Y140891D01*
X130841Y139402D01*
X130841Y130760D01*
X130853Y130673D01*
X130856Y130586D01*
X130873Y130533D01*
X130881Y130478D01*
X130916Y130398D01*
X130943Y130315D01*
X130971Y130276D01*
X130997Y130219D01*
X131092Y130107D01*
X131107Y130082D01*
X131116Y130073D01*
X131138Y130042D01*
X134410Y126770D01*
X134434Y126752D01*
X134453Y126730D01*
X134547Y126667D01*
X134637Y126599D01*
X134665Y126589D01*
X134689Y126572D01*
X134797Y126538D01*
X134903Y126498D01*
X134932Y126495D01*
X134960Y126486D01*
X135074Y126484D01*
X135186Y126474D01*
X135215Y126480D01*
X135244Y126479D01*
X135354Y126508D01*
X135465Y126530D01*
X135491Y126544D01*
X135519Y126551D01*
X135617Y126609D01*
X135717Y126661D01*
X135739Y126681D01*
X135764Y126696D01*
X135841Y126779D01*
X135923Y126857D01*
X135938Y126882D01*
X135958Y126904D01*
X136010Y127004D01*
X136067Y127102D01*
X136074Y127131D01*
X136088Y127157D01*
X136101Y127234D01*
X136137Y127378D01*
X136135Y127440D01*
X136143Y127488D01*
X136143Y129301D01*
X136131Y129388D01*
X136128Y129475D01*
X136111Y129528D01*
X136103Y129582D01*
X136068Y129662D01*
X136041Y129745D01*
X136013Y129785D01*
X135987Y129842D01*
X135891Y129955D01*
X135846Y130019D01*
X135393Y130472D01*
X134619Y132339D01*
X134619Y134361D01*
X135393Y136228D01*
X135973Y136808D01*
X136025Y136878D01*
X136085Y136942D01*
X136111Y136991D01*
X136144Y137035D01*
X136175Y137117D01*
X136215Y137195D01*
X136223Y137243D01*
X136245Y137301D01*
X136257Y137449D01*
X136270Y137526D01*
X136270Y147471D01*
X150979Y162180D01*
X179974Y162180D01*
X180061Y162192D01*
X180148Y162195D01*
X180201Y162212D01*
X180255Y162220D01*
X180335Y162255D01*
X180418Y162282D01*
X180458Y162310D01*
X180515Y162336D01*
X180628Y162432D01*
X180692Y162477D01*
X181272Y163057D01*
X183139Y163831D01*
X185161Y163831D01*
X185666Y163621D01*
X185778Y163593D01*
X185887Y163558D01*
X185915Y163557D01*
X185942Y163550D01*
X186056Y163554D01*
X186171Y163551D01*
X186198Y163558D01*
X186226Y163558D01*
X186335Y163593D01*
X186446Y163622D01*
X186470Y163637D01*
X186497Y163645D01*
X186592Y163709D01*
X186691Y163768D01*
X186710Y163788D01*
X186733Y163803D01*
X186807Y163891D01*
X186885Y163975D01*
X186898Y164000D01*
X186916Y164021D01*
X186963Y164126D01*
X187015Y164228D01*
X187019Y164253D01*
X187031Y164281D01*
X187068Y164545D01*
X187070Y164559D01*
X187070Y173624D01*
X187058Y173711D01*
X187055Y173798D01*
X187038Y173851D01*
X187030Y173905D01*
X186995Y173985D01*
X186968Y174068D01*
X186940Y174108D01*
X186914Y174165D01*
X186818Y174278D01*
X186773Y174342D01*
X186193Y174922D01*
X185419Y176789D01*
X185419Y178811D01*
X186193Y180678D01*
X187622Y182107D01*
X189489Y182881D01*
X191511Y182881D01*
X193378Y182107D01*
X194807Y180678D01*
X195581Y178811D01*
X195581Y176789D01*
X194807Y174922D01*
X194227Y174342D01*
X194175Y174272D01*
X194115Y174208D01*
X194089Y174159D01*
X194056Y174115D01*
X194025Y174033D01*
X193985Y173955D01*
X193977Y173907D01*
X193955Y173849D01*
X193943Y173701D01*
X193930Y173624D01*
X193930Y131167D01*
X191623Y128861D01*
X186734Y123972D01*
X186682Y123902D01*
X186622Y123838D01*
X186596Y123789D01*
X186563Y123745D01*
X186532Y123663D01*
X186492Y123585D01*
X186484Y123537D01*
X186462Y123479D01*
X186450Y123331D01*
X186437Y123254D01*
X186437Y122179D01*
X185663Y120312D01*
X184234Y118883D01*
X182367Y118109D01*
X180345Y118109D01*
X178478Y118883D01*
X177049Y120312D01*
X176275Y122179D01*
X176275Y124201D01*
X177049Y126068D01*
X178478Y127497D01*
X179612Y127967D01*
X179686Y128011D01*
X179765Y128046D01*
X179808Y128083D01*
X179857Y128112D01*
X179916Y128174D01*
X179982Y128230D01*
X180013Y128277D01*
X180052Y128318D01*
X180092Y128395D01*
X180139Y128466D01*
X180156Y128520D01*
X180182Y128571D01*
X180199Y128655D01*
X180225Y128737D01*
X180227Y128794D01*
X180238Y128850D01*
X180230Y128935D01*
X180232Y129021D01*
X180218Y129076D01*
X180213Y129133D01*
X180182Y129214D01*
X180161Y129296D01*
X180132Y129345D01*
X180111Y129398D01*
X180059Y129467D01*
X180015Y129541D01*
X179974Y129580D01*
X179939Y129625D01*
X179871Y129677D01*
X179808Y129735D01*
X179757Y129761D01*
X179712Y129795D01*
X179631Y129826D01*
X179555Y129865D01*
X179506Y129873D01*
X179446Y129896D01*
X179301Y129907D01*
X179224Y129920D01*
X157329Y129920D01*
X152526Y134723D01*
X152526Y134762D01*
X152514Y134849D01*
X152511Y134936D01*
X152494Y134989D01*
X152486Y135043D01*
X152451Y135123D01*
X152424Y135206D01*
X152396Y135246D01*
X152370Y135303D01*
X152310Y135374D01*
X152286Y135415D01*
X152255Y135444D01*
X152229Y135480D01*
X151649Y136060D01*
X151296Y136911D01*
X151266Y136962D01*
X151245Y137016D01*
X151194Y137084D01*
X151152Y137156D01*
X151109Y137196D01*
X151074Y137243D01*
X151006Y137294D01*
X150945Y137351D01*
X150893Y137378D01*
X150846Y137413D01*
X150767Y137443D01*
X150692Y137482D01*
X150635Y137493D01*
X150580Y137514D01*
X150496Y137520D01*
X150413Y137537D01*
X150355Y137532D01*
X150297Y137536D01*
X150229Y137521D01*
X150130Y137512D01*
X150037Y137476D01*
X149970Y137461D01*
X149855Y137413D01*
X147833Y137413D01*
X145966Y138187D01*
X144863Y139290D01*
X144839Y139308D01*
X144820Y139330D01*
X144726Y139393D01*
X144636Y139461D01*
X144608Y139471D01*
X144584Y139488D01*
X144476Y139522D01*
X144370Y139562D01*
X144341Y139564D01*
X144313Y139573D01*
X144199Y139576D01*
X144087Y139586D01*
X144058Y139580D01*
X144029Y139581D01*
X143919Y139552D01*
X143808Y139530D01*
X143782Y139516D01*
X143754Y139509D01*
X143656Y139451D01*
X143556Y139399D01*
X143534Y139378D01*
X143509Y139364D01*
X143432Y139281D01*
X143350Y139203D01*
X143335Y139178D01*
X143315Y139156D01*
X143263Y139055D01*
X143206Y138958D01*
X143199Y138929D01*
X143185Y138903D01*
X143172Y138826D01*
X143136Y138682D01*
X143138Y138620D01*
X143130Y138572D01*
X143130Y137526D01*
X143142Y137439D01*
X143145Y137352D01*
X143162Y137299D01*
X143170Y137245D01*
X143205Y137165D01*
X143232Y137082D01*
X143260Y137042D01*
X143286Y136985D01*
X143382Y136872D01*
X143427Y136808D01*
X144007Y136228D01*
X144781Y134361D01*
X144781Y132339D01*
X144007Y130472D01*
X143554Y130019D01*
X143502Y129949D01*
X143442Y129885D01*
X143416Y129836D01*
X143383Y129792D01*
X143352Y129710D01*
X143312Y129632D01*
X143304Y129584D01*
X143282Y129526D01*
X143270Y129378D01*
X143257Y129301D01*
X143257Y84444D01*
X143269Y84357D01*
X143272Y84270D01*
X143289Y84217D01*
X143297Y84162D01*
X143332Y84082D01*
X143359Y83999D01*
X143387Y83960D01*
X143413Y83903D01*
X143509Y83790D01*
X143554Y83726D01*
X164752Y62528D01*
X164822Y62476D01*
X164886Y62416D01*
X164935Y62390D01*
X164979Y62357D01*
X165061Y62326D01*
X165139Y62286D01*
X165186Y62278D01*
X165245Y62256D01*
X165392Y62244D01*
X165470Y62231D01*
X166111Y62231D01*
X167978Y61457D01*
X168526Y60909D01*
X168550Y60891D01*
X168569Y60869D01*
X168663Y60806D01*
X168753Y60738D01*
X168781Y60728D01*
X168805Y60711D01*
X168913Y60677D01*
X169019Y60637D01*
X169048Y60635D01*
X169076Y60626D01*
X169190Y60623D01*
X169302Y60613D01*
X169331Y60619D01*
X169360Y60618D01*
X169470Y60647D01*
X169581Y60669D01*
X169607Y60683D01*
X169635Y60690D01*
X169733Y60748D01*
X169833Y60800D01*
X169855Y60821D01*
X169880Y60835D01*
X169957Y60918D01*
X170039Y60996D01*
X170054Y61021D01*
X170074Y61043D01*
X170126Y61144D01*
X170183Y61241D01*
X170190Y61270D01*
X170204Y61296D01*
X170217Y61373D01*
X170253Y61517D01*
X170251Y61579D01*
X170259Y61627D01*
X170259Y72202D01*
X171748Y73691D01*
X180390Y73691D01*
X180477Y73703D01*
X180564Y73706D01*
X180617Y73723D01*
X180672Y73731D01*
X180752Y73766D01*
X180835Y73793D01*
X180874Y73821D01*
X180931Y73847D01*
X181044Y73943D01*
X181108Y73988D01*
X184496Y77376D01*
X186046Y78926D01*
X186062Y78948D01*
X186073Y78958D01*
X186090Y78973D01*
X186094Y78979D01*
X187622Y80507D01*
X189489Y81281D01*
X191511Y81281D01*
X193378Y80507D01*
X194807Y79078D01*
X195581Y77211D01*
X195581Y75189D01*
X194807Y73322D01*
X193378Y71893D01*
X191511Y71119D01*
X189489Y71119D01*
X189275Y71208D01*
X189273Y71209D01*
X189272Y71209D01*
X189136Y71244D01*
X188999Y71279D01*
X188998Y71279D01*
X188996Y71280D01*
X188855Y71275D01*
X188715Y71271D01*
X188714Y71271D01*
X188712Y71271D01*
X188577Y71227D01*
X188444Y71184D01*
X188443Y71184D01*
X188442Y71183D01*
X188429Y71174D01*
X188208Y71026D01*
X188189Y71003D01*
X188168Y70988D01*
X185638Y68458D01*
X185631Y68448D01*
X185630Y68448D01*
X185628Y68445D01*
X185586Y68388D01*
X185526Y68324D01*
X185500Y68275D01*
X185467Y68231D01*
X185436Y68149D01*
X185396Y68071D01*
X185388Y68024D01*
X185366Y67965D01*
X185354Y67818D01*
X185341Y67740D01*
X185341Y59098D01*
X184070Y57826D01*
X184040Y57787D01*
X184004Y57754D01*
X183955Y57674D01*
X183899Y57599D01*
X183881Y57554D01*
X183856Y57512D01*
X183831Y57421D01*
X183797Y57334D01*
X183793Y57285D01*
X183780Y57238D01*
X183782Y57144D01*
X183774Y57050D01*
X183784Y57002D01*
X183784Y56954D01*
X183811Y56864D01*
X183830Y56772D01*
X183852Y56728D01*
X183866Y56681D01*
X183917Y56603D01*
X183961Y56519D01*
X183994Y56484D01*
X184021Y56443D01*
X184078Y56396D01*
X184157Y56313D01*
X184232Y56269D01*
X184280Y56229D01*
X184360Y56183D01*
X184833Y55710D01*
X185168Y55131D01*
X185341Y54484D01*
X185341Y50681D01*
X178816Y50681D01*
X178758Y50673D01*
X178700Y50674D01*
X178618Y50653D01*
X178535Y50641D01*
X178481Y50617D01*
X178425Y50603D01*
X178352Y50560D01*
X178275Y50525D01*
X178231Y50487D01*
X178180Y50457D01*
X178123Y50396D01*
X178058Y50341D01*
X178026Y50293D01*
X177986Y50250D01*
X177947Y50175D01*
X177901Y50105D01*
X177883Y50049D01*
X177856Y49997D01*
X177845Y49929D01*
X177815Y49834D01*
X177812Y49734D01*
X177801Y49666D01*
X177801Y48649D01*
X177799Y48649D01*
X177799Y49666D01*
X177791Y49724D01*
X177792Y49782D01*
X177771Y49864D01*
X177759Y49947D01*
X177735Y50001D01*
X177721Y50057D01*
X177678Y50130D01*
X177643Y50207D01*
X177605Y50251D01*
X177575Y50302D01*
X177514Y50359D01*
X177459Y50424D01*
X177411Y50456D01*
X177368Y50496D01*
X177293Y50535D01*
X177223Y50581D01*
X177167Y50599D01*
X177115Y50626D01*
X177047Y50637D01*
X176952Y50667D01*
X176852Y50670D01*
X176784Y50681D01*
X170259Y50681D01*
X170259Y52673D01*
X170255Y52702D01*
X170258Y52731D01*
X170235Y52842D01*
X170219Y52955D01*
X170207Y52981D01*
X170202Y53010D01*
X170149Y53111D01*
X170103Y53214D01*
X170084Y53236D01*
X170071Y53262D01*
X169993Y53345D01*
X169920Y53431D01*
X169895Y53447D01*
X169875Y53468D01*
X169777Y53526D01*
X169683Y53589D01*
X169655Y53597D01*
X169630Y53612D01*
X169520Y53640D01*
X169412Y53674D01*
X169382Y53675D01*
X169354Y53682D01*
X169241Y53679D01*
X169128Y53682D01*
X169099Y53674D01*
X169070Y53673D01*
X168962Y53638D01*
X168853Y53610D01*
X168827Y53595D01*
X168799Y53586D01*
X168735Y53540D01*
X168608Y53465D01*
X168565Y53419D01*
X168526Y53391D01*
X167978Y52843D01*
X166111Y52069D01*
X164089Y52069D01*
X162222Y52843D01*
X161995Y53069D01*
X161904Y53138D01*
X161816Y53212D01*
X161790Y53224D01*
X161768Y53240D01*
X161661Y53281D01*
X161556Y53328D01*
X161529Y53332D01*
X161503Y53341D01*
X161388Y53351D01*
X161274Y53367D01*
X161247Y53363D01*
X161219Y53365D01*
X161107Y53342D01*
X160993Y53326D01*
X160968Y53315D01*
X160941Y53309D01*
X160839Y53256D01*
X160734Y53209D01*
X160713Y53191D01*
X160688Y53178D01*
X160605Y53099D01*
X160518Y53025D01*
X160504Y53003D01*
X160482Y52982D01*
X160347Y52752D01*
X160340Y52740D01*
X159501Y50716D01*
X158072Y49287D01*
X156205Y48513D01*
X154183Y48513D01*
X152316Y49287D01*
X151863Y49740D01*
X151793Y49792D01*
X151729Y49852D01*
X151680Y49878D01*
X151636Y49911D01*
X151554Y49942D01*
X151476Y49982D01*
X151428Y49990D01*
X151370Y50012D01*
X151222Y50024D01*
X151145Y50037D01*
X148133Y50037D01*
X138524Y59646D01*
X138454Y59698D01*
X138390Y59758D01*
X138341Y59784D01*
X138297Y59817D01*
X138215Y59848D01*
X138137Y59888D01*
X138090Y59896D01*
X138031Y59918D01*
X137884Y59930D01*
X137806Y59943D01*
X131856Y59943D01*
X131798Y59935D01*
X131740Y59937D01*
X131658Y59915D01*
X131574Y59903D01*
X131521Y59880D01*
X131465Y59865D01*
X131392Y59822D01*
X131315Y59787D01*
X131270Y59749D01*
X131220Y59720D01*
X131162Y59658D01*
X131098Y59604D01*
X131066Y59555D01*
X131026Y59512D01*
X130987Y59437D01*
X130940Y59367D01*
X130923Y59311D01*
X130896Y59259D01*
X130885Y59191D01*
X130855Y59096D01*
X130852Y58996D01*
X130841Y58928D01*
X130841Y57448D01*
X129352Y55959D01*
X120822Y55959D01*
X120793Y55955D01*
X120763Y55958D01*
X120652Y55935D01*
X120540Y55919D01*
X120514Y55907D01*
X120485Y55902D01*
X120384Y55850D01*
X120281Y55803D01*
X120258Y55784D01*
X120232Y55771D01*
X120150Y55693D01*
X120064Y55620D01*
X120048Y55595D01*
X120026Y55575D01*
X119969Y55477D01*
X119906Y55383D01*
X119897Y55355D01*
X119883Y55330D01*
X119855Y55220D01*
X119820Y55112D01*
X119820Y55082D01*
X119812Y55054D01*
X119816Y54941D01*
X119813Y54828D01*
X119821Y54799D01*
X119822Y54770D01*
X119856Y54662D01*
X119885Y54553D01*
X119900Y54527D01*
X119909Y54499D01*
X119955Y54436D01*
X120030Y54308D01*
X120076Y54265D01*
X120104Y54226D01*
X126788Y47542D01*
X126858Y47490D01*
X126922Y47430D01*
X126971Y47404D01*
X127015Y47371D01*
X127097Y47340D01*
X127175Y47300D01*
X127222Y47292D01*
X127281Y47270D01*
X127428Y47258D01*
X127506Y47245D01*
X129281Y47245D01*
X131148Y46471D01*
X132577Y45042D01*
X133351Y43175D01*
X133351Y41153D01*
X132577Y39286D01*
X132363Y39072D01*
X132346Y39048D01*
X132323Y39029D01*
X132260Y38935D01*
X132192Y38845D01*
X132182Y38817D01*
X132165Y38793D01*
X132131Y38685D01*
X132091Y38579D01*
X132089Y38550D01*
X132080Y38522D01*
X132077Y38409D01*
X132067Y38296D01*
X132073Y38267D01*
X132072Y38238D01*
X132101Y38128D01*
X132123Y38017D01*
X132137Y37991D01*
X132144Y37963D01*
X132202Y37865D01*
X132254Y37765D01*
X132274Y37743D01*
X132289Y37718D01*
X132372Y37641D01*
X132450Y37559D01*
X132475Y37544D01*
X132497Y37524D01*
X132598Y37472D01*
X132695Y37415D01*
X132724Y37408D01*
X132750Y37394D01*
X132827Y37381D01*
X132971Y37345D01*
X133033Y37347D01*
X133081Y37339D01*
X135725Y37339D01*
X140113Y35521D01*
X143471Y32163D01*
X145112Y28201D01*
X145127Y28176D01*
X145136Y28148D01*
X145199Y28054D01*
X145257Y27957D01*
X145278Y27936D01*
X145294Y27912D01*
X145381Y27839D01*
X145463Y27761D01*
X145489Y27748D01*
X145512Y27729D01*
X145615Y27683D01*
X145716Y27631D01*
X145745Y27626D01*
X145772Y27614D01*
X145884Y27598D01*
X145995Y27576D01*
X146024Y27579D01*
X146053Y27575D01*
X146165Y27591D01*
X146278Y27601D01*
X146305Y27611D01*
X146335Y27615D01*
X146438Y27662D01*
X146543Y27703D01*
X146567Y27720D01*
X146594Y27732D01*
X146680Y27806D01*
X146770Y27874D01*
X146788Y27898D01*
X146810Y27917D01*
X146852Y27983D01*
X146940Y28102D01*
X146962Y28161D01*
X146988Y28201D01*
X148629Y32163D01*
X151987Y35521D01*
X156375Y37339D01*
X161125Y37339D01*
X165513Y35521D01*
X168871Y32163D01*
X170512Y28201D01*
X170527Y28176D01*
X170536Y28148D01*
X170599Y28054D01*
X170657Y27957D01*
X170678Y27936D01*
X170694Y27912D01*
X170781Y27839D01*
X170863Y27761D01*
X170889Y27748D01*
X170912Y27729D01*
X171015Y27683D01*
X171116Y27631D01*
X171145Y27626D01*
X171172Y27614D01*
X171284Y27598D01*
X171395Y27576D01*
X171424Y27579D01*
X171453Y27575D01*
X171565Y27591D01*
X171678Y27601D01*
X171705Y27611D01*
X171735Y27615D01*
X171838Y27662D01*
X171943Y27703D01*
X171967Y27720D01*
X171994Y27732D01*
X172080Y27806D01*
X172170Y27874D01*
X172188Y27898D01*
X172210Y27917D01*
X172252Y27983D01*
X172340Y28102D01*
X172362Y28161D01*
X172388Y28201D01*
X174029Y32163D01*
X177387Y35521D01*
X181775Y37339D01*
X186525Y37339D01*
X190913Y35521D01*
X194271Y32163D01*
X195912Y28201D01*
X195927Y28176D01*
X195936Y28148D01*
X195999Y28054D01*
X196057Y27957D01*
X196078Y27936D01*
X196094Y27912D01*
X196181Y27839D01*
X196263Y27761D01*
X196289Y27748D01*
X196312Y27729D01*
X196415Y27683D01*
X196516Y27631D01*
X196545Y27626D01*
X196572Y27614D01*
X196684Y27598D01*
X196795Y27576D01*
X196824Y27579D01*
X196853Y27575D01*
X196965Y27591D01*
X197078Y27601D01*
X197105Y27611D01*
X197135Y27615D01*
X197238Y27662D01*
X197343Y27703D01*
X197367Y27720D01*
X197394Y27732D01*
X197480Y27806D01*
X197570Y27874D01*
X197588Y27898D01*
X197610Y27917D01*
X197652Y27983D01*
X197740Y28102D01*
X197762Y28161D01*
X197788Y28201D01*
X199429Y32163D01*
X202787Y35521D01*
X207175Y37339D01*
X211925Y37339D01*
X216313Y35521D01*
X219671Y32163D01*
X221312Y28201D01*
X221327Y28176D01*
X221336Y28148D01*
X221399Y28054D01*
X221457Y27957D01*
X221478Y27936D01*
X221494Y27912D01*
X221581Y27839D01*
X221663Y27761D01*
X221689Y27748D01*
X221712Y27729D01*
X221815Y27683D01*
X221916Y27631D01*
X221945Y27626D01*
X221972Y27614D01*
X222084Y27598D01*
X222195Y27576D01*
X222224Y27579D01*
X222253Y27575D01*
X222365Y27591D01*
X222478Y27601D01*
X222505Y27611D01*
X222535Y27615D01*
X222638Y27662D01*
X222743Y27703D01*
X222767Y27720D01*
X222794Y27732D01*
X222880Y27806D01*
X222970Y27874D01*
X222988Y27898D01*
X223010Y27917D01*
X223052Y27983D01*
X223140Y28102D01*
X223162Y28161D01*
X223188Y28201D01*
X224829Y32163D01*
X228187Y35521D01*
X232575Y37339D01*
X237325Y37339D01*
X241266Y35706D01*
X241295Y35699D01*
X241321Y35685D01*
X241432Y35663D01*
X241542Y35635D01*
X241571Y35636D01*
X241600Y35630D01*
X241713Y35640D01*
X241826Y35643D01*
X241854Y35652D01*
X241883Y35655D01*
X241989Y35695D01*
X242097Y35730D01*
X242121Y35746D01*
X242148Y35757D01*
X242239Y35825D01*
X242333Y35888D01*
X242352Y35911D01*
X242375Y35928D01*
X242443Y36019D01*
X242516Y36106D01*
X242528Y36133D01*
X242545Y36156D01*
X242585Y36262D01*
X242631Y36366D01*
X242635Y36395D01*
X242646Y36422D01*
X242655Y36535D01*
X242670Y36647D01*
X242666Y36676D01*
X242668Y36705D01*
X242651Y36782D01*
X242629Y36929D01*
X242604Y36985D01*
X242593Y37033D01*
X242569Y37089D01*
X242569Y39111D01*
X243343Y40978D01*
X244772Y42407D01*
X246639Y43181D01*
X247280Y43181D01*
X247367Y43193D01*
X247454Y43196D01*
X247507Y43213D01*
X247562Y43221D01*
X247642Y43256D01*
X247725Y43283D01*
X247764Y43311D01*
X247821Y43337D01*
X247934Y43433D01*
X247998Y43478D01*
X252396Y47876D01*
X252414Y47900D01*
X252436Y47919D01*
X252499Y48013D01*
X252567Y48103D01*
X252577Y48131D01*
X252594Y48155D01*
X252628Y48263D01*
X252668Y48369D01*
X252671Y48398D01*
X252680Y48426D01*
X252682Y48540D01*
X252692Y48652D01*
X252686Y48681D01*
X252687Y48710D01*
X252658Y48820D01*
X252636Y48931D01*
X252622Y48957D01*
X252615Y48985D01*
X252557Y49083D01*
X252505Y49183D01*
X252485Y49205D01*
X252470Y49230D01*
X252387Y49307D01*
X252309Y49389D01*
X252284Y49404D01*
X252262Y49424D01*
X252162Y49476D01*
X252064Y49533D01*
X252035Y49540D01*
X252009Y49554D01*
X251932Y49567D01*
X251831Y49592D01*
X251831Y55119D01*
X257877Y55119D01*
X257881Y55090D01*
X257904Y55037D01*
X257919Y54981D01*
X257962Y54908D01*
X257997Y54831D01*
X258035Y54786D01*
X258064Y54736D01*
X258126Y54678D01*
X258180Y54614D01*
X258229Y54582D01*
X258272Y54542D01*
X258347Y54503D01*
X258417Y54456D01*
X258473Y54439D01*
X258525Y54412D01*
X258593Y54401D01*
X258688Y54371D01*
X258788Y54368D01*
X258856Y54357D01*
X262651Y54357D01*
X262738Y54369D01*
X262825Y54372D01*
X262878Y54389D01*
X262932Y54397D01*
X263012Y54432D01*
X263095Y54459D01*
X263135Y54487D01*
X263192Y54513D01*
X263305Y54609D01*
X263369Y54654D01*
X263822Y55107D01*
X265689Y55881D01*
X267711Y55881D01*
X269578Y55107D01*
X271007Y53678D01*
X271781Y51811D01*
X271781Y49789D01*
X271007Y47922D01*
X269578Y46493D01*
X267711Y45719D01*
X265689Y45719D01*
X263822Y46493D01*
X263369Y46946D01*
X263299Y46998D01*
X263235Y47058D01*
X263186Y47084D01*
X263142Y47117D01*
X263060Y47148D01*
X262982Y47188D01*
X262934Y47196D01*
X262876Y47218D01*
X262728Y47230D01*
X262651Y47243D01*
X262244Y47243D01*
X262157Y47231D01*
X262070Y47228D01*
X262017Y47211D01*
X261962Y47203D01*
X261882Y47168D01*
X261799Y47141D01*
X261760Y47113D01*
X261703Y47087D01*
X261590Y46991D01*
X261526Y46946D01*
X253028Y38448D01*
X252976Y38378D01*
X252916Y38314D01*
X252890Y38265D01*
X252857Y38221D01*
X252826Y38139D01*
X252786Y38061D01*
X252778Y38014D01*
X252756Y37955D01*
X252744Y37808D01*
X252731Y37730D01*
X252731Y37089D01*
X252643Y36878D01*
X252626Y36811D01*
X252599Y36748D01*
X252591Y36674D01*
X252572Y36603D01*
X252574Y36534D01*
X252566Y36465D01*
X252578Y36392D01*
X252580Y36319D01*
X252602Y36253D01*
X252613Y36185D01*
X252645Y36118D01*
X252667Y36048D01*
X252706Y35991D01*
X252735Y35928D01*
X252784Y35873D01*
X252825Y35812D01*
X252878Y35767D01*
X252924Y35716D01*
X252987Y35676D01*
X253043Y35629D01*
X253106Y35601D01*
X253165Y35564D01*
X253235Y35543D01*
X253303Y35513D01*
X253371Y35504D01*
X253438Y35485D01*
X253511Y35485D01*
X253584Y35474D01*
X253653Y35484D01*
X253722Y35484D01*
X253781Y35503D01*
X253866Y35515D01*
X253971Y35563D01*
X254042Y35585D01*
X255767Y36464D01*
X257554Y37045D01*
X258319Y37166D01*
X258319Y26416D01*
X258327Y26358D01*
X258325Y26300D01*
X258347Y26218D01*
X258359Y26135D01*
X258383Y26081D01*
X258397Y26025D01*
X258440Y25952D01*
X258475Y25875D01*
X258513Y25831D01*
X258543Y25780D01*
X258604Y25723D01*
X258659Y25658D01*
X258707Y25626D01*
X258750Y25586D01*
X258825Y25547D01*
X258895Y25501D01*
X258951Y25483D01*
X259003Y25456D01*
X259071Y25445D01*
X259166Y25415D01*
X259266Y25412D01*
X259334Y25401D01*
X260351Y25401D01*
X260351Y25399D01*
X259334Y25399D01*
X259276Y25391D01*
X259218Y25392D01*
X259136Y25371D01*
X259053Y25359D01*
X258999Y25335D01*
X258943Y25321D01*
X258870Y25278D01*
X258793Y25243D01*
X258748Y25205D01*
X258698Y25175D01*
X258640Y25114D01*
X258576Y25059D01*
X258544Y25011D01*
X258504Y24968D01*
X258465Y24893D01*
X258419Y24823D01*
X258401Y24767D01*
X258374Y24715D01*
X258363Y24647D01*
X258333Y24552D01*
X258330Y24452D01*
X258319Y24384D01*
X258319Y13634D01*
X257554Y13755D01*
X255767Y14336D01*
X254093Y15189D01*
X252572Y16294D01*
X251244Y17622D01*
X250139Y19143D01*
X249286Y20817D01*
X248681Y22680D01*
X248668Y22706D01*
X248661Y22736D01*
X248641Y22771D01*
X248629Y22809D01*
X248588Y22871D01*
X248556Y22936D01*
X248536Y22957D01*
X248522Y22983D01*
X248493Y23012D01*
X248471Y23045D01*
X248413Y23093D01*
X248365Y23147D01*
X248341Y23161D01*
X248319Y23183D01*
X248284Y23202D01*
X248253Y23228D01*
X248184Y23259D01*
X248123Y23296D01*
X248096Y23304D01*
X248069Y23318D01*
X248030Y23327D01*
X247993Y23343D01*
X247918Y23354D01*
X247849Y23373D01*
X247822Y23373D01*
X247791Y23379D01*
X247751Y23377D01*
X247712Y23382D01*
X247636Y23371D01*
X247565Y23371D01*
X247539Y23363D01*
X247508Y23361D01*
X247470Y23347D01*
X247430Y23341D01*
X247361Y23310D01*
X247293Y23290D01*
X247269Y23275D01*
X247240Y23264D01*
X247208Y23241D01*
X247171Y23224D01*
X247114Y23175D01*
X247053Y23137D01*
X247035Y23115D01*
X247010Y23098D01*
X246985Y23066D01*
X246955Y23040D01*
X246921Y22986D01*
X246866Y22923D01*
X246854Y22897D01*
X246835Y22874D01*
X246807Y22803D01*
X246777Y22755D01*
X245071Y18637D01*
X241713Y15279D01*
X237325Y13461D01*
X232575Y13461D01*
X228187Y15279D01*
X224829Y18637D01*
X223188Y22599D01*
X223173Y22624D01*
X223164Y22652D01*
X223101Y22746D01*
X223043Y22843D01*
X223022Y22864D01*
X223006Y22888D01*
X222919Y22961D01*
X222837Y23039D01*
X222811Y23052D01*
X222788Y23071D01*
X222685Y23117D01*
X222584Y23169D01*
X222555Y23175D01*
X222528Y23186D01*
X222416Y23202D01*
X222305Y23224D01*
X222276Y23221D01*
X222247Y23225D01*
X222135Y23209D01*
X222022Y23199D01*
X221995Y23189D01*
X221966Y23185D01*
X221862Y23138D01*
X221757Y23097D01*
X221733Y23080D01*
X221706Y23068D01*
X221620Y22994D01*
X221530Y22926D01*
X221512Y22902D01*
X221490Y22883D01*
X221448Y22817D01*
X221360Y22698D01*
X221338Y22640D01*
X221312Y22599D01*
X219671Y18637D01*
X216313Y15279D01*
X211925Y13461D01*
X207175Y13461D01*
X202787Y15279D01*
X199429Y18637D01*
X197788Y22599D01*
X197773Y22624D01*
X197764Y22652D01*
X197701Y22746D01*
X197643Y22843D01*
X197622Y22864D01*
X197606Y22888D01*
X197519Y22961D01*
X197437Y23039D01*
X197411Y23052D01*
X197388Y23071D01*
X197285Y23117D01*
X197184Y23169D01*
X197155Y23175D01*
X197128Y23186D01*
X197016Y23202D01*
X196905Y23224D01*
X196876Y23221D01*
X196847Y23225D01*
X196735Y23209D01*
X196622Y23199D01*
X196595Y23189D01*
X196566Y23185D01*
X196462Y23138D01*
X196357Y23097D01*
X196333Y23080D01*
X196306Y23068D01*
X196220Y22994D01*
X196130Y22926D01*
X196112Y22902D01*
X196090Y22883D01*
X196048Y22817D01*
X195960Y22698D01*
X195938Y22640D01*
X195912Y22599D01*
X194271Y18637D01*
X190913Y15279D01*
X186525Y13461D01*
X181775Y13461D01*
X177387Y15279D01*
X174029Y18637D01*
X172388Y22599D01*
X172373Y22624D01*
X172364Y22652D01*
X172301Y22746D01*
X172243Y22843D01*
X172222Y22864D01*
X172206Y22888D01*
X172119Y22961D01*
X172037Y23039D01*
X172011Y23052D01*
X171988Y23071D01*
X171885Y23117D01*
X171784Y23169D01*
X171755Y23175D01*
X171728Y23186D01*
X171616Y23202D01*
X171505Y23224D01*
X171476Y23221D01*
X171447Y23225D01*
X171335Y23209D01*
X171222Y23199D01*
X171195Y23189D01*
X171166Y23185D01*
X171062Y23138D01*
X170957Y23097D01*
X170933Y23080D01*
X170906Y23068D01*
X170820Y22994D01*
X170730Y22926D01*
X170712Y22902D01*
X170690Y22883D01*
X170648Y22817D01*
X170560Y22698D01*
X170538Y22640D01*
X170512Y22599D01*
X168871Y18637D01*
X165513Y15279D01*
X161125Y13461D01*
X156375Y13461D01*
X151987Y15279D01*
X148629Y18637D01*
X146988Y22599D01*
X146973Y22624D01*
X146964Y22652D01*
X146901Y22746D01*
X146843Y22843D01*
X146822Y22864D01*
X146806Y22888D01*
X146719Y22961D01*
X146637Y23039D01*
X146611Y23052D01*
X146588Y23071D01*
X146485Y23117D01*
X146384Y23169D01*
X146355Y23175D01*
X146328Y23186D01*
X146216Y23202D01*
X146105Y23224D01*
X146076Y23221D01*
X146047Y23225D01*
X145935Y23209D01*
X145822Y23199D01*
X145795Y23189D01*
X145766Y23185D01*
X145662Y23138D01*
X145557Y23097D01*
X145533Y23080D01*
X145506Y23068D01*
X145420Y22994D01*
X145330Y22926D01*
X145312Y22902D01*
X145290Y22883D01*
X145248Y22817D01*
X145160Y22698D01*
X145138Y22640D01*
X145112Y22599D01*
X143471Y18637D01*
X140113Y15279D01*
X135725Y13461D01*
X130975Y13461D01*
X126587Y15279D01*
X123229Y18637D01*
X121588Y22599D01*
X121573Y22624D01*
X121564Y22652D01*
X121501Y22746D01*
X121443Y22843D01*
X121422Y22864D01*
X121406Y22888D01*
X121319Y22961D01*
X121237Y23039D01*
X121211Y23052D01*
X121188Y23071D01*
X121085Y23117D01*
X120984Y23169D01*
X120955Y23175D01*
X120928Y23186D01*
X120816Y23202D01*
X120705Y23224D01*
X120676Y23221D01*
X120647Y23225D01*
X120535Y23209D01*
X120422Y23199D01*
X120395Y23189D01*
X120366Y23185D01*
X120262Y23138D01*
X120157Y23097D01*
X120133Y23080D01*
X120106Y23068D01*
X120020Y22994D01*
X119930Y22926D01*
X119912Y22902D01*
X119890Y22883D01*
X119848Y22817D01*
X119760Y22698D01*
X119738Y22640D01*
X119712Y22599D01*
X118071Y18637D01*
X114713Y15279D01*
X110325Y13461D01*
X105575Y13461D01*
G37*
%LPD*%
%LPC*%
G36*
X11943Y16255D02*
X11943Y16255D01*
X10076Y17029D01*
X8647Y18458D01*
X7873Y20325D01*
X7873Y22347D01*
X8647Y24214D01*
X10076Y25643D01*
X11943Y26417D01*
X12646Y26417D01*
X12732Y26429D01*
X12820Y26432D01*
X12873Y26449D01*
X12927Y26457D01*
X13007Y26492D01*
X13090Y26519D01*
X13130Y26547D01*
X13187Y26573D01*
X13300Y26669D01*
X13364Y26714D01*
X14912Y28262D01*
X14964Y28332D01*
X15024Y28396D01*
X15050Y28445D01*
X15083Y28489D01*
X15114Y28571D01*
X15154Y28649D01*
X15162Y28697D01*
X15184Y28755D01*
X15196Y28903D01*
X15209Y28980D01*
X15209Y34350D01*
X15193Y34464D01*
X15183Y34578D01*
X15173Y34604D01*
X15169Y34632D01*
X15123Y34736D01*
X15081Y34844D01*
X15064Y34866D01*
X15053Y34891D01*
X14979Y34979D01*
X14910Y35070D01*
X14887Y35087D01*
X14870Y35108D01*
X14774Y35172D01*
X14682Y35241D01*
X14656Y35250D01*
X14633Y35266D01*
X14523Y35301D01*
X14416Y35341D01*
X14388Y35343D01*
X14362Y35352D01*
X14247Y35354D01*
X14133Y35364D01*
X14108Y35358D01*
X14078Y35359D01*
X13873Y35305D01*
X11825Y35305D01*
X9958Y36079D01*
X8529Y37508D01*
X7755Y39375D01*
X7755Y41397D01*
X8529Y43264D01*
X9958Y44693D01*
X11825Y45467D01*
X12646Y45467D01*
X12732Y45479D01*
X12820Y45482D01*
X12873Y45499D01*
X12927Y45507D01*
X13007Y45542D01*
X13090Y45569D01*
X13130Y45597D01*
X13187Y45623D01*
X13300Y45719D01*
X13364Y45764D01*
X14912Y47312D01*
X14964Y47382D01*
X15024Y47446D01*
X15050Y47495D01*
X15083Y47539D01*
X15114Y47621D01*
X15154Y47699D01*
X15162Y47747D01*
X15184Y47805D01*
X15196Y47953D01*
X15209Y48030D01*
X15209Y53711D01*
X15193Y53824D01*
X15183Y53939D01*
X15173Y53965D01*
X15169Y53992D01*
X15123Y54097D01*
X15081Y54204D01*
X15064Y54226D01*
X15053Y54252D01*
X14979Y54339D01*
X14910Y54431D01*
X14887Y54447D01*
X14870Y54469D01*
X14774Y54532D01*
X14682Y54601D01*
X14656Y54611D01*
X14633Y54626D01*
X14523Y54661D01*
X14416Y54701D01*
X14388Y54704D01*
X14362Y54712D01*
X14247Y54715D01*
X14133Y54724D01*
X14108Y54718D01*
X14078Y54719D01*
X13820Y54652D01*
X13805Y54649D01*
X13711Y54609D01*
X11689Y54609D01*
X9822Y55383D01*
X8393Y56812D01*
X7619Y58679D01*
X7619Y60701D01*
X8393Y62568D01*
X9822Y63997D01*
X11689Y64771D01*
X12510Y64771D01*
X12596Y64783D01*
X12684Y64786D01*
X12737Y64803D01*
X12791Y64811D01*
X12871Y64846D01*
X12954Y64873D01*
X12994Y64901D01*
X13051Y64927D01*
X13164Y65023D01*
X13228Y65068D01*
X14912Y66752D01*
X14964Y66822D01*
X15024Y66886D01*
X15050Y66935D01*
X15083Y66979D01*
X15114Y67061D01*
X15154Y67139D01*
X15162Y67187D01*
X15184Y67245D01*
X15196Y67393D01*
X15209Y67470D01*
X15209Y75902D01*
X16698Y77391D01*
X29802Y77391D01*
X31032Y76161D01*
X31079Y76126D01*
X31119Y76083D01*
X31192Y76041D01*
X31259Y75990D01*
X31314Y75969D01*
X31364Y75940D01*
X31446Y75919D01*
X31525Y75889D01*
X31583Y75884D01*
X31640Y75870D01*
X31724Y75872D01*
X31808Y75865D01*
X31866Y75877D01*
X31924Y75879D01*
X32004Y75905D01*
X32087Y75921D01*
X32139Y75948D01*
X32195Y75966D01*
X32251Y76006D01*
X32339Y76052D01*
X32412Y76121D01*
X32468Y76161D01*
X33698Y77391D01*
X46802Y77391D01*
X48291Y75902D01*
X48291Y74295D01*
X48299Y74237D01*
X48297Y74179D01*
X48319Y74097D01*
X48331Y74013D01*
X48354Y73960D01*
X48369Y73904D01*
X48412Y73831D01*
X48447Y73754D01*
X48485Y73709D01*
X48514Y73659D01*
X48576Y73601D01*
X48630Y73537D01*
X48679Y73505D01*
X48722Y73465D01*
X48797Y73426D01*
X48867Y73379D01*
X48923Y73362D01*
X48975Y73335D01*
X49043Y73324D01*
X49138Y73294D01*
X49238Y73291D01*
X49306Y73280D01*
X52221Y73280D01*
X56622Y68878D01*
X56692Y68826D01*
X56756Y68766D01*
X56805Y68740D01*
X56849Y68707D01*
X56931Y68676D01*
X57009Y68636D01*
X57057Y68628D01*
X57115Y68606D01*
X57263Y68594D01*
X57340Y68581D01*
X58161Y68581D01*
X60028Y67807D01*
X61457Y66378D01*
X62231Y64511D01*
X62231Y62489D01*
X61457Y60622D01*
X60028Y59193D01*
X58161Y58419D01*
X56139Y58419D01*
X54272Y59193D01*
X52843Y60622D01*
X52069Y62489D01*
X52069Y63310D01*
X52057Y63396D01*
X52054Y63484D01*
X52037Y63537D01*
X52029Y63591D01*
X51994Y63671D01*
X51967Y63754D01*
X51939Y63794D01*
X51913Y63851D01*
X51817Y63964D01*
X51772Y64028D01*
X50024Y65776D01*
X50000Y65793D01*
X49981Y65816D01*
X49887Y65879D01*
X49797Y65947D01*
X49769Y65957D01*
X49745Y65973D01*
X49637Y66008D01*
X49531Y66048D01*
X49502Y66050D01*
X49474Y66059D01*
X49360Y66062D01*
X49248Y66071D01*
X49219Y66066D01*
X49190Y66066D01*
X49080Y66038D01*
X48969Y66016D01*
X48943Y66002D01*
X48915Y65995D01*
X48817Y65937D01*
X48717Y65885D01*
X48695Y65864D01*
X48670Y65849D01*
X48593Y65767D01*
X48511Y65689D01*
X48496Y65663D01*
X48476Y65642D01*
X48424Y65541D01*
X48367Y65444D01*
X48360Y65415D01*
X48346Y65389D01*
X48333Y65312D01*
X48297Y65168D01*
X48299Y65106D01*
X48291Y65058D01*
X48291Y63798D01*
X46802Y62309D01*
X33698Y62309D01*
X32468Y63539D01*
X32421Y63574D01*
X32381Y63617D01*
X32308Y63659D01*
X32241Y63710D01*
X32186Y63731D01*
X32136Y63760D01*
X32054Y63781D01*
X31975Y63811D01*
X31917Y63816D01*
X31860Y63830D01*
X31776Y63828D01*
X31692Y63835D01*
X31634Y63823D01*
X31576Y63821D01*
X31496Y63795D01*
X31413Y63779D01*
X31361Y63752D01*
X31305Y63734D01*
X31249Y63694D01*
X31161Y63648D01*
X31088Y63579D01*
X31032Y63539D01*
X29802Y62309D01*
X20590Y62309D01*
X20504Y62297D01*
X20416Y62294D01*
X20363Y62277D01*
X20309Y62269D01*
X20229Y62234D01*
X20146Y62207D01*
X20106Y62179D01*
X20049Y62153D01*
X19936Y62057D01*
X19872Y62012D01*
X18078Y60218D01*
X18026Y60148D01*
X17966Y60084D01*
X17940Y60035D01*
X17907Y59991D01*
X17876Y59909D01*
X17836Y59831D01*
X17828Y59783D01*
X17806Y59725D01*
X17794Y59577D01*
X17781Y59500D01*
X17781Y59356D01*
X17789Y59298D01*
X17787Y59240D01*
X17809Y59158D01*
X17821Y59074D01*
X17844Y59021D01*
X17859Y58965D01*
X17902Y58892D01*
X17937Y58815D01*
X17975Y58770D01*
X18004Y58720D01*
X18066Y58662D01*
X18120Y58598D01*
X18169Y58566D01*
X18212Y58526D01*
X18287Y58487D01*
X18357Y58440D01*
X18413Y58423D01*
X18465Y58396D01*
X18533Y58385D01*
X18628Y58355D01*
X18728Y58352D01*
X18796Y58341D01*
X29802Y58341D01*
X31032Y57111D01*
X31079Y57076D01*
X31119Y57033D01*
X31192Y56991D01*
X31259Y56940D01*
X31314Y56919D01*
X31364Y56890D01*
X31446Y56869D01*
X31525Y56839D01*
X31583Y56834D01*
X31640Y56820D01*
X31724Y56822D01*
X31808Y56815D01*
X31866Y56827D01*
X31924Y56829D01*
X32004Y56855D01*
X32087Y56871D01*
X32139Y56898D01*
X32195Y56916D01*
X32251Y56956D01*
X32339Y57002D01*
X32412Y57071D01*
X32468Y57111D01*
X33698Y58341D01*
X46802Y58341D01*
X48291Y56852D01*
X48291Y55245D01*
X48299Y55187D01*
X48297Y55129D01*
X48319Y55047D01*
X48331Y54963D01*
X48354Y54910D01*
X48369Y54854D01*
X48412Y54781D01*
X48447Y54704D01*
X48485Y54659D01*
X48514Y54609D01*
X48576Y54551D01*
X48630Y54487D01*
X48679Y54455D01*
X48722Y54415D01*
X48797Y54376D01*
X48867Y54329D01*
X48923Y54312D01*
X48975Y54285D01*
X49043Y54274D01*
X49138Y54244D01*
X49238Y54241D01*
X49306Y54230D01*
X52221Y54230D01*
X54527Y51923D01*
X56622Y49828D01*
X56692Y49776D01*
X56756Y49716D01*
X56805Y49690D01*
X56849Y49657D01*
X56931Y49626D01*
X57009Y49586D01*
X57057Y49578D01*
X57115Y49556D01*
X57263Y49544D01*
X57340Y49531D01*
X58161Y49531D01*
X60028Y48757D01*
X61457Y47328D01*
X62231Y45461D01*
X62231Y43439D01*
X61457Y41572D01*
X60028Y40143D01*
X58161Y39369D01*
X56139Y39369D01*
X54272Y40143D01*
X52843Y41572D01*
X52069Y43439D01*
X52069Y44260D01*
X52057Y44346D01*
X52054Y44434D01*
X52037Y44487D01*
X52029Y44541D01*
X51994Y44621D01*
X51967Y44704D01*
X51939Y44744D01*
X51913Y44801D01*
X51817Y44914D01*
X51772Y44978D01*
X50024Y46726D01*
X50000Y46743D01*
X49981Y46766D01*
X49887Y46829D01*
X49797Y46897D01*
X49769Y46907D01*
X49745Y46923D01*
X49637Y46958D01*
X49531Y46998D01*
X49502Y47000D01*
X49474Y47009D01*
X49360Y47012D01*
X49248Y47021D01*
X49219Y47016D01*
X49190Y47016D01*
X49080Y46988D01*
X48969Y46966D01*
X48943Y46952D01*
X48915Y46945D01*
X48817Y46887D01*
X48717Y46835D01*
X48695Y46814D01*
X48670Y46799D01*
X48593Y46717D01*
X48511Y46639D01*
X48496Y46613D01*
X48476Y46592D01*
X48424Y46491D01*
X48367Y46394D01*
X48360Y46365D01*
X48346Y46339D01*
X48333Y46262D01*
X48297Y46118D01*
X48299Y46056D01*
X48291Y46008D01*
X48291Y44748D01*
X46802Y43259D01*
X33698Y43259D01*
X32468Y44489D01*
X32421Y44524D01*
X32381Y44567D01*
X32308Y44609D01*
X32241Y44660D01*
X32186Y44681D01*
X32136Y44710D01*
X32054Y44731D01*
X31975Y44761D01*
X31917Y44766D01*
X31860Y44780D01*
X31776Y44778D01*
X31692Y44785D01*
X31634Y44773D01*
X31576Y44771D01*
X31496Y44745D01*
X31413Y44729D01*
X31361Y44702D01*
X31305Y44684D01*
X31249Y44644D01*
X31161Y44598D01*
X31088Y44529D01*
X31032Y44489D01*
X29802Y43259D01*
X20980Y43259D01*
X20894Y43247D01*
X20806Y43244D01*
X20753Y43227D01*
X20699Y43219D01*
X20619Y43184D01*
X20536Y43157D01*
X20496Y43129D01*
X20439Y43103D01*
X20326Y43007D01*
X20262Y42962D01*
X18324Y41024D01*
X18307Y41000D01*
X18284Y40981D01*
X18221Y40887D01*
X18153Y40797D01*
X18143Y40769D01*
X18127Y40745D01*
X18092Y40637D01*
X18052Y40531D01*
X18050Y40502D01*
X18041Y40474D01*
X18038Y40360D01*
X18029Y40248D01*
X18034Y40219D01*
X18034Y40190D01*
X18062Y40080D01*
X18084Y39969D01*
X18098Y39943D01*
X18105Y39915D01*
X18163Y39817D01*
X18215Y39717D01*
X18236Y39695D01*
X18251Y39670D01*
X18333Y39593D01*
X18411Y39511D01*
X18437Y39496D01*
X18458Y39476D01*
X18559Y39424D01*
X18656Y39367D01*
X18685Y39360D01*
X18711Y39346D01*
X18788Y39333D01*
X18932Y39297D01*
X18994Y39299D01*
X19042Y39291D01*
X29802Y39291D01*
X31032Y38061D01*
X31079Y38026D01*
X31119Y37983D01*
X31192Y37941D01*
X31259Y37890D01*
X31314Y37869D01*
X31364Y37840D01*
X31446Y37819D01*
X31525Y37789D01*
X31583Y37784D01*
X31640Y37770D01*
X31724Y37772D01*
X31808Y37765D01*
X31866Y37777D01*
X31924Y37779D01*
X32004Y37805D01*
X32087Y37821D01*
X32139Y37848D01*
X32195Y37866D01*
X32251Y37906D01*
X32339Y37952D01*
X32412Y38021D01*
X32468Y38061D01*
X33698Y39291D01*
X46802Y39291D01*
X48291Y37802D01*
X48291Y36195D01*
X48299Y36137D01*
X48297Y36079D01*
X48319Y35997D01*
X48331Y35913D01*
X48354Y35860D01*
X48369Y35804D01*
X48412Y35731D01*
X48447Y35654D01*
X48485Y35609D01*
X48514Y35559D01*
X48576Y35501D01*
X48630Y35437D01*
X48679Y35405D01*
X48722Y35365D01*
X48797Y35326D01*
X48867Y35279D01*
X48923Y35262D01*
X48975Y35235D01*
X49043Y35224D01*
X49138Y35194D01*
X49238Y35191D01*
X49306Y35180D01*
X52974Y35180D01*
X53061Y35192D01*
X53148Y35195D01*
X53201Y35212D01*
X53255Y35220D01*
X53335Y35255D01*
X53418Y35282D01*
X53458Y35310D01*
X53515Y35336D01*
X53628Y35432D01*
X53692Y35477D01*
X54272Y36057D01*
X56139Y36831D01*
X58161Y36831D01*
X60028Y36057D01*
X61457Y34628D01*
X62231Y32761D01*
X62231Y30739D01*
X61457Y28872D01*
X60028Y27443D01*
X58161Y26669D01*
X56139Y26669D01*
X54272Y27443D01*
X53692Y28023D01*
X53622Y28075D01*
X53558Y28135D01*
X53509Y28161D01*
X53465Y28194D01*
X53383Y28225D01*
X53305Y28265D01*
X53257Y28273D01*
X53199Y28295D01*
X53051Y28307D01*
X52974Y28320D01*
X49306Y28320D01*
X49248Y28312D01*
X49190Y28314D01*
X49108Y28292D01*
X49024Y28280D01*
X48971Y28257D01*
X48915Y28242D01*
X48842Y28199D01*
X48765Y28164D01*
X48720Y28126D01*
X48670Y28097D01*
X48612Y28035D01*
X48548Y27981D01*
X48516Y27932D01*
X48476Y27889D01*
X48437Y27814D01*
X48390Y27744D01*
X48373Y27688D01*
X48346Y27636D01*
X48335Y27568D01*
X48305Y27473D01*
X48302Y27373D01*
X48291Y27305D01*
X48291Y25698D01*
X46802Y24209D01*
X33698Y24209D01*
X32468Y25439D01*
X32421Y25474D01*
X32381Y25517D01*
X32308Y25559D01*
X32241Y25610D01*
X32186Y25631D01*
X32136Y25660D01*
X32054Y25681D01*
X31975Y25711D01*
X31917Y25716D01*
X31860Y25730D01*
X31776Y25728D01*
X31692Y25735D01*
X31634Y25723D01*
X31576Y25721D01*
X31496Y25695D01*
X31413Y25679D01*
X31361Y25652D01*
X31305Y25634D01*
X31249Y25594D01*
X31161Y25548D01*
X31088Y25479D01*
X31032Y25439D01*
X29802Y24209D01*
X20980Y24209D01*
X20894Y24197D01*
X20806Y24194D01*
X20753Y24177D01*
X20699Y24169D01*
X20619Y24134D01*
X20536Y24107D01*
X20496Y24079D01*
X20439Y24053D01*
X20326Y23957D01*
X20262Y23912D01*
X18332Y21982D01*
X18280Y21912D01*
X18220Y21848D01*
X18194Y21799D01*
X18161Y21755D01*
X18130Y21673D01*
X18090Y21595D01*
X18082Y21547D01*
X18060Y21489D01*
X18048Y21341D01*
X18035Y21264D01*
X18035Y20325D01*
X17261Y18458D01*
X15832Y17029D01*
X13965Y16255D01*
X11943Y16255D01*
G37*
%LPD*%
%LPC*%
G36*
X246639Y147319D02*
X246639Y147319D01*
X244772Y148093D01*
X243343Y149522D01*
X242569Y151389D01*
X242569Y152030D01*
X242557Y152117D01*
X242554Y152204D01*
X242537Y152257D01*
X242529Y152312D01*
X242494Y152392D01*
X242490Y152404D01*
X242483Y152429D01*
X242480Y152435D01*
X242467Y152475D01*
X242439Y152514D01*
X242413Y152571D01*
X242365Y152628D01*
X242338Y152674D01*
X242299Y152710D01*
X242272Y152748D01*
X225043Y169977D01*
X225043Y173751D01*
X225031Y173838D01*
X225028Y173925D01*
X225011Y173978D01*
X225003Y174032D01*
X224968Y174112D01*
X224941Y174196D01*
X224913Y174235D01*
X224887Y174292D01*
X224791Y174405D01*
X224746Y174469D01*
X224293Y174922D01*
X223519Y176789D01*
X223519Y178811D01*
X224293Y180678D01*
X225722Y182107D01*
X227589Y182881D01*
X229611Y182881D01*
X230128Y182666D01*
X230212Y182645D01*
X230292Y182614D01*
X230349Y182610D01*
X230404Y182595D01*
X230490Y182598D01*
X230575Y182591D01*
X230631Y182602D01*
X230688Y182604D01*
X230770Y182630D01*
X230854Y182647D01*
X230904Y182673D01*
X230959Y182690D01*
X231030Y182738D01*
X231106Y182778D01*
X231147Y182817D01*
X231195Y182848D01*
X231250Y182914D01*
X231312Y182973D01*
X231341Y183023D01*
X231378Y183066D01*
X231412Y183144D01*
X231456Y183219D01*
X231470Y183274D01*
X231493Y183326D01*
X231505Y183411D01*
X231526Y183494D01*
X231524Y183551D01*
X231532Y183607D01*
X231520Y183692D01*
X231517Y183778D01*
X231500Y183833D01*
X231491Y183889D01*
X231456Y183967D01*
X231430Y184049D01*
X231401Y184089D01*
X231374Y184148D01*
X231280Y184258D01*
X231235Y184322D01*
X231109Y184448D01*
X231109Y184521D01*
X231093Y184634D01*
X231083Y184749D01*
X231073Y184775D01*
X231069Y184802D01*
X231023Y184907D01*
X230981Y185014D01*
X230964Y185036D01*
X230953Y185062D01*
X230879Y185149D01*
X230810Y185241D01*
X230787Y185257D01*
X230770Y185279D01*
X230674Y185342D01*
X230582Y185411D01*
X230556Y185421D01*
X230533Y185436D01*
X230423Y185471D01*
X230316Y185511D01*
X230288Y185514D01*
X230262Y185522D01*
X230147Y185525D01*
X230033Y185534D01*
X230008Y185528D01*
X229978Y185529D01*
X229720Y185462D01*
X229705Y185459D01*
X229611Y185419D01*
X227589Y185419D01*
X225722Y186193D01*
X224293Y187622D01*
X223519Y189489D01*
X223519Y191511D01*
X224293Y193378D01*
X225722Y194807D01*
X227589Y195581D01*
X229611Y195581D01*
X229705Y195541D01*
X229816Y195513D01*
X229926Y195478D01*
X229954Y195477D01*
X229981Y195470D01*
X230095Y195474D01*
X230210Y195471D01*
X230237Y195478D01*
X230265Y195479D01*
X230374Y195514D01*
X230485Y195543D01*
X230509Y195557D01*
X230536Y195565D01*
X230631Y195629D01*
X230730Y195688D01*
X230749Y195708D01*
X230772Y195724D01*
X230846Y195811D01*
X230924Y195895D01*
X230937Y195920D01*
X230955Y195941D01*
X231002Y196046D01*
X231054Y196148D01*
X231058Y196173D01*
X231070Y196201D01*
X231107Y196465D01*
X231109Y196479D01*
X231109Y196552D01*
X232598Y198041D01*
X245702Y198041D01*
X246932Y196811D01*
X246979Y196776D01*
X247019Y196733D01*
X247092Y196691D01*
X247159Y196640D01*
X247214Y196619D01*
X247264Y196590D01*
X247346Y196569D01*
X247425Y196539D01*
X247483Y196534D01*
X247540Y196520D01*
X247624Y196522D01*
X247708Y196515D01*
X247766Y196527D01*
X247824Y196529D01*
X247904Y196555D01*
X247987Y196571D01*
X248039Y196598D01*
X248095Y196616D01*
X248151Y196656D01*
X248239Y196702D01*
X248312Y196771D01*
X248368Y196811D01*
X249598Y198041D01*
X261016Y198041D01*
X261017Y198041D01*
X261019Y198041D01*
X261159Y198061D01*
X261297Y198081D01*
X261298Y198081D01*
X261300Y198081D01*
X261426Y198138D01*
X261556Y198197D01*
X261558Y198198D01*
X261559Y198199D01*
X261666Y198290D01*
X261773Y198380D01*
X261774Y198382D01*
X261776Y198383D01*
X261784Y198396D01*
X261931Y198617D01*
X261940Y198646D01*
X261953Y198667D01*
X262393Y199728D01*
X263822Y201157D01*
X265689Y201931D01*
X267711Y201931D01*
X269578Y201157D01*
X271007Y199728D01*
X271781Y197861D01*
X271781Y195839D01*
X271007Y193972D01*
X269578Y192543D01*
X267711Y191769D01*
X267070Y191769D01*
X266983Y191757D01*
X266896Y191754D01*
X266843Y191737D01*
X266788Y191729D01*
X266708Y191694D01*
X266625Y191667D01*
X266586Y191639D01*
X266529Y191613D01*
X266416Y191517D01*
X266352Y191472D01*
X264488Y189608D01*
X264436Y189538D01*
X264376Y189474D01*
X264350Y189425D01*
X264317Y189381D01*
X264286Y189299D01*
X264246Y189221D01*
X264238Y189174D01*
X264216Y189115D01*
X264204Y188968D01*
X264191Y188890D01*
X264191Y184448D01*
X262833Y183090D01*
X262815Y183066D01*
X262793Y183047D01*
X262730Y182953D01*
X262662Y182863D01*
X262652Y182835D01*
X262635Y182811D01*
X262601Y182703D01*
X262561Y182597D01*
X262558Y182568D01*
X262550Y182540D01*
X262547Y182426D01*
X262537Y182314D01*
X262543Y182285D01*
X262542Y182256D01*
X262571Y182146D01*
X262593Y182035D01*
X262607Y182009D01*
X262614Y181981D01*
X262672Y181883D01*
X262724Y181783D01*
X262744Y181761D01*
X262759Y181736D01*
X262842Y181659D01*
X262920Y181577D01*
X262945Y181562D01*
X262967Y181542D01*
X263068Y181490D01*
X263165Y181433D01*
X263194Y181426D01*
X263220Y181412D01*
X263297Y181399D01*
X263441Y181363D01*
X263503Y181365D01*
X263551Y181357D01*
X300944Y181357D01*
X301002Y181365D01*
X301060Y181363D01*
X301142Y181385D01*
X301226Y181397D01*
X301279Y181420D01*
X301335Y181435D01*
X301408Y181478D01*
X301485Y181513D01*
X301530Y181551D01*
X301580Y181580D01*
X301638Y181642D01*
X301702Y181696D01*
X301734Y181745D01*
X301774Y181788D01*
X301813Y181863D01*
X301860Y181933D01*
X301877Y181989D01*
X301904Y182041D01*
X301915Y182109D01*
X301945Y182204D01*
X301948Y182304D01*
X301959Y182372D01*
X301959Y184852D01*
X303448Y186341D01*
X313552Y186341D01*
X315041Y184852D01*
X315041Y170748D01*
X313552Y169259D01*
X305410Y169259D01*
X305323Y169247D01*
X305236Y169244D01*
X305183Y169227D01*
X305128Y169219D01*
X305048Y169184D01*
X304965Y169157D01*
X304926Y169129D01*
X304869Y169103D01*
X304756Y169007D01*
X304692Y168962D01*
X303515Y167785D01*
X303514Y167784D01*
X303513Y167783D01*
X303421Y167660D01*
X303344Y167558D01*
X303344Y167557D01*
X303343Y167555D01*
X303291Y167419D01*
X303243Y167293D01*
X303243Y167291D01*
X303243Y167289D01*
X303231Y167141D01*
X303220Y167009D01*
X303220Y167008D01*
X303220Y167006D01*
X303223Y166991D01*
X303276Y166731D01*
X303290Y166703D01*
X303295Y166679D01*
X303531Y166111D01*
X303531Y164089D01*
X302757Y162222D01*
X301328Y160793D01*
X299461Y160019D01*
X297439Y160019D01*
X295572Y160793D01*
X294143Y162222D01*
X293369Y164089D01*
X293369Y166111D01*
X294143Y167978D01*
X294596Y168431D01*
X294648Y168501D01*
X294708Y168565D01*
X294734Y168614D01*
X294767Y168658D01*
X294798Y168740D01*
X294838Y168818D01*
X294846Y168866D01*
X294868Y168924D01*
X294880Y169071D01*
X294893Y169149D01*
X294893Y169223D01*
X297274Y171604D01*
X298180Y172510D01*
X298198Y172534D01*
X298220Y172553D01*
X298283Y172647D01*
X298351Y172737D01*
X298361Y172765D01*
X298378Y172789D01*
X298412Y172897D01*
X298452Y173003D01*
X298455Y173032D01*
X298464Y173060D01*
X298466Y173174D01*
X298476Y173286D01*
X298470Y173315D01*
X298471Y173344D01*
X298442Y173454D01*
X298420Y173565D01*
X298406Y173591D01*
X298399Y173619D01*
X298341Y173717D01*
X298289Y173817D01*
X298269Y173839D01*
X298254Y173864D01*
X298171Y173941D01*
X298093Y174023D01*
X298068Y174038D01*
X298046Y174058D01*
X297945Y174110D01*
X297848Y174167D01*
X297819Y174174D01*
X297793Y174188D01*
X297716Y174201D01*
X297572Y174237D01*
X297510Y174235D01*
X297462Y174243D01*
X250377Y174243D01*
X241958Y182662D01*
X241888Y182714D01*
X241824Y182774D01*
X241775Y182800D01*
X241731Y182833D01*
X241649Y182864D01*
X241571Y182904D01*
X241524Y182912D01*
X241465Y182934D01*
X241318Y182946D01*
X241240Y182959D01*
X233077Y182959D01*
X233048Y182955D01*
X233019Y182958D01*
X232908Y182935D01*
X232795Y182919D01*
X232769Y182907D01*
X232740Y182902D01*
X232639Y182849D01*
X232536Y182803D01*
X232514Y182784D01*
X232488Y182771D01*
X232405Y182693D01*
X232319Y182620D01*
X232303Y182595D01*
X232282Y182575D01*
X232224Y182477D01*
X232161Y182383D01*
X232153Y182355D01*
X232138Y182330D01*
X232110Y182220D01*
X232076Y182112D01*
X232075Y182082D01*
X232068Y182054D01*
X232071Y181941D01*
X232068Y181828D01*
X232076Y181799D01*
X232077Y181770D01*
X232112Y181662D01*
X232140Y181553D01*
X232155Y181527D01*
X232164Y181499D01*
X232210Y181435D01*
X232285Y181308D01*
X232331Y181265D01*
X232359Y181226D01*
X232907Y180678D01*
X233681Y178811D01*
X233681Y176789D01*
X232907Y174922D01*
X232454Y174469D01*
X232402Y174399D01*
X232342Y174335D01*
X232316Y174286D01*
X232283Y174242D01*
X232252Y174160D01*
X232212Y174082D01*
X232204Y174035D01*
X232182Y173976D01*
X232170Y173828D01*
X232157Y173751D01*
X232157Y173344D01*
X232165Y173288D01*
X232163Y173242D01*
X232170Y173215D01*
X232172Y173170D01*
X232189Y173117D01*
X232197Y173062D01*
X232230Y172989D01*
X232235Y172967D01*
X232240Y172959D01*
X232259Y172899D01*
X232287Y172860D01*
X232313Y172803D01*
X232379Y172724D01*
X232380Y172722D01*
X232383Y172720D01*
X232409Y172690D01*
X232454Y172626D01*
X247302Y157778D01*
X247372Y157726D01*
X247436Y157666D01*
X247485Y157640D01*
X247529Y157607D01*
X247611Y157576D01*
X247689Y157536D01*
X247736Y157528D01*
X247795Y157506D01*
X247942Y157494D01*
X248020Y157481D01*
X248661Y157481D01*
X250528Y156707D01*
X251957Y155278D01*
X252731Y153411D01*
X252731Y151389D01*
X251957Y149522D01*
X250528Y148093D01*
X248661Y147319D01*
X246639Y147319D01*
G37*
%LPD*%
%LPC*%
G36*
X340548Y119459D02*
X340548Y119459D01*
X339059Y120948D01*
X339059Y121021D01*
X339043Y121134D01*
X339033Y121249D01*
X339023Y121275D01*
X339019Y121302D01*
X338973Y121407D01*
X338931Y121514D01*
X338914Y121536D01*
X338903Y121562D01*
X338829Y121649D01*
X338760Y121741D01*
X338737Y121757D01*
X338720Y121779D01*
X338624Y121842D01*
X338532Y121911D01*
X338506Y121921D01*
X338483Y121936D01*
X338373Y121971D01*
X338266Y122011D01*
X338238Y122014D01*
X338212Y122022D01*
X338097Y122025D01*
X337983Y122034D01*
X337958Y122028D01*
X337928Y122029D01*
X337670Y121962D01*
X337655Y121959D01*
X337561Y121919D01*
X335539Y121919D01*
X333672Y122693D01*
X332243Y124122D01*
X331469Y125989D01*
X331469Y128011D01*
X332243Y129878D01*
X333672Y131307D01*
X335539Y132081D01*
X337561Y132081D01*
X337655Y132041D01*
X337766Y132013D01*
X337876Y131978D01*
X337904Y131977D01*
X337931Y131970D01*
X338045Y131974D01*
X338160Y131971D01*
X338187Y131978D01*
X338215Y131979D01*
X338324Y132014D01*
X338435Y132043D01*
X338459Y132057D01*
X338486Y132065D01*
X338581Y132129D01*
X338680Y132188D01*
X338699Y132208D01*
X338722Y132224D01*
X338796Y132311D01*
X338874Y132395D01*
X338887Y132420D01*
X338905Y132441D01*
X338952Y132546D01*
X339004Y132648D01*
X339008Y132673D01*
X339020Y132701D01*
X339057Y132965D01*
X339059Y132979D01*
X339059Y133052D01*
X340548Y134541D01*
X353652Y134541D01*
X354924Y133270D01*
X354963Y133240D01*
X354996Y133204D01*
X355076Y133155D01*
X355151Y133099D01*
X355196Y133081D01*
X355238Y133056D01*
X355329Y133031D01*
X355416Y132997D01*
X355465Y132993D01*
X355512Y132980D01*
X355606Y132982D01*
X355700Y132974D01*
X355748Y132984D01*
X355796Y132984D01*
X355886Y133011D01*
X355978Y133030D01*
X356022Y133052D01*
X356069Y133066D01*
X356147Y133117D01*
X356231Y133161D01*
X356266Y133194D01*
X356307Y133221D01*
X356354Y133278D01*
X356437Y133357D01*
X356481Y133432D01*
X356521Y133480D01*
X356567Y133560D01*
X357040Y134033D01*
X357619Y134368D01*
X358266Y134541D01*
X361115Y134541D01*
X361144Y134545D01*
X361173Y134542D01*
X361284Y134565D01*
X361397Y134581D01*
X361423Y134593D01*
X361452Y134598D01*
X361553Y134651D01*
X361656Y134697D01*
X361678Y134716D01*
X361704Y134729D01*
X361787Y134807D01*
X361873Y134880D01*
X361889Y134905D01*
X361911Y134925D01*
X361968Y135023D01*
X362031Y135117D01*
X362039Y135145D01*
X362054Y135170D01*
X362082Y135280D01*
X362116Y135388D01*
X362117Y135418D01*
X362124Y135446D01*
X362121Y135559D01*
X362124Y135672D01*
X362116Y135701D01*
X362115Y135730D01*
X362080Y135838D01*
X362052Y135947D01*
X362037Y135973D01*
X362028Y136001D01*
X361982Y136065D01*
X361907Y136192D01*
X361861Y136235D01*
X361833Y136274D01*
X360759Y137348D01*
X360759Y145990D01*
X360752Y146041D01*
X360753Y146063D01*
X360747Y146085D01*
X360744Y146164D01*
X360727Y146217D01*
X360719Y146272D01*
X360684Y146352D01*
X360657Y146435D01*
X360629Y146474D01*
X360603Y146531D01*
X360507Y146644D01*
X360462Y146708D01*
X340331Y166839D01*
X340330Y166840D01*
X340329Y166841D01*
X340214Y166927D01*
X340104Y167010D01*
X340103Y167010D01*
X340101Y167011D01*
X339968Y167061D01*
X339839Y167111D01*
X339837Y167111D01*
X339835Y167111D01*
X339696Y167123D01*
X339555Y167134D01*
X339554Y167134D01*
X339552Y167134D01*
X339537Y167131D01*
X339277Y167078D01*
X339249Y167064D01*
X339225Y167059D01*
X337561Y166369D01*
X335539Y166369D01*
X333672Y167143D01*
X332243Y168572D01*
X332218Y168632D01*
X332217Y168634D01*
X332216Y168635D01*
X332149Y168749D01*
X332073Y168877D01*
X332072Y168879D01*
X332071Y168880D01*
X331969Y168975D01*
X331867Y169072D01*
X331865Y169073D01*
X331864Y169074D01*
X331735Y169141D01*
X331614Y169203D01*
X331612Y169203D01*
X331611Y169204D01*
X331595Y169206D01*
X331335Y169258D01*
X331304Y169255D01*
X331280Y169259D01*
X321448Y169259D01*
X319959Y170748D01*
X319959Y184852D01*
X321448Y186341D01*
X329590Y186341D01*
X329677Y186353D01*
X329764Y186356D01*
X329817Y186373D01*
X329872Y186381D01*
X329952Y186416D01*
X330035Y186443D01*
X330074Y186471D01*
X330131Y186497D01*
X330244Y186593D01*
X330308Y186638D01*
X331377Y187707D01*
X332501Y187707D01*
X332588Y187719D01*
X332675Y187722D01*
X332728Y187739D01*
X332782Y187747D01*
X332862Y187782D01*
X332945Y187809D01*
X332985Y187837D01*
X333042Y187863D01*
X333155Y187959D01*
X333219Y188004D01*
X333672Y188457D01*
X335539Y189231D01*
X337561Y189231D01*
X339428Y188457D01*
X340857Y187028D01*
X341631Y185161D01*
X341631Y183139D01*
X340857Y181272D01*
X339428Y179843D01*
X337561Y179069D01*
X335539Y179069D01*
X334445Y179523D01*
X334333Y179551D01*
X334224Y179586D01*
X334196Y179587D01*
X334169Y179594D01*
X334055Y179590D01*
X333940Y179593D01*
X333913Y179586D01*
X333885Y179586D01*
X333776Y179551D01*
X333665Y179522D01*
X333641Y179507D01*
X333614Y179499D01*
X333519Y179435D01*
X333420Y179376D01*
X333401Y179356D01*
X333378Y179341D01*
X333304Y179253D01*
X333226Y179169D01*
X333213Y179144D01*
X333195Y179123D01*
X333149Y179018D01*
X333096Y178916D01*
X333092Y178891D01*
X333080Y178863D01*
X333043Y178600D01*
X333041Y178585D01*
X333041Y177015D01*
X333057Y176901D01*
X333067Y176787D01*
X333077Y176761D01*
X333081Y176734D01*
X333128Y176629D01*
X333169Y176522D01*
X333185Y176500D01*
X333197Y176474D01*
X333271Y176387D01*
X333340Y176295D01*
X333363Y176278D01*
X333380Y176257D01*
X333476Y176194D01*
X333568Y176125D01*
X333594Y176115D01*
X333617Y176100D01*
X333727Y176065D01*
X333834Y176024D01*
X333862Y176022D01*
X333888Y176014D01*
X334003Y176011D01*
X334117Y176002D01*
X334142Y176007D01*
X334172Y176007D01*
X334429Y176074D01*
X334445Y176077D01*
X335539Y176531D01*
X337561Y176531D01*
X339428Y175757D01*
X339881Y175304D01*
X339951Y175252D01*
X340015Y175192D01*
X340064Y175166D01*
X340108Y175133D01*
X340190Y175102D01*
X340268Y175062D01*
X340316Y175054D01*
X340374Y175032D01*
X340522Y175020D01*
X340599Y175007D01*
X342223Y175007D01*
X344604Y172626D01*
X359026Y158204D01*
X359050Y158186D01*
X359069Y158164D01*
X359163Y158101D01*
X359253Y158033D01*
X359281Y158023D01*
X359305Y158006D01*
X359413Y157972D01*
X359519Y157932D01*
X359548Y157929D01*
X359576Y157920D01*
X359690Y157918D01*
X359802Y157908D01*
X359831Y157914D01*
X359860Y157913D01*
X359970Y157942D01*
X360081Y157964D01*
X360107Y157978D01*
X360135Y157985D01*
X360233Y158043D01*
X360333Y158095D01*
X360355Y158115D01*
X360380Y158130D01*
X360457Y158213D01*
X360539Y158291D01*
X360554Y158316D01*
X360574Y158338D01*
X360626Y158438D01*
X360683Y158536D01*
X360690Y158565D01*
X360704Y158591D01*
X360717Y158668D01*
X360753Y158812D01*
X360751Y158869D01*
X367284Y158869D01*
X367342Y158877D01*
X367400Y158875D01*
X367482Y158897D01*
X367565Y158909D01*
X367619Y158933D01*
X367675Y158947D01*
X367748Y158990D01*
X367825Y159025D01*
X367869Y159063D01*
X367920Y159093D01*
X367977Y159154D01*
X368042Y159209D01*
X368074Y159257D01*
X368114Y159300D01*
X368153Y159375D01*
X368199Y159445D01*
X368217Y159501D01*
X368244Y159553D01*
X368255Y159621D01*
X368285Y159716D01*
X368288Y159816D01*
X368299Y159884D01*
X368299Y160901D01*
X368301Y160901D01*
X368301Y159884D01*
X368309Y159826D01*
X368308Y159768D01*
X368329Y159686D01*
X368341Y159603D01*
X368365Y159549D01*
X368379Y159493D01*
X368422Y159420D01*
X368457Y159343D01*
X368495Y159298D01*
X368525Y159248D01*
X368586Y159190D01*
X368641Y159126D01*
X368689Y159094D01*
X368732Y159054D01*
X368807Y159015D01*
X368877Y158969D01*
X368933Y158951D01*
X368985Y158924D01*
X369053Y158913D01*
X369148Y158883D01*
X369248Y158880D01*
X369316Y158869D01*
X375841Y158869D01*
X375841Y155066D01*
X375668Y154419D01*
X375333Y153840D01*
X374860Y153367D01*
X374780Y153321D01*
X374741Y153291D01*
X374698Y153268D01*
X374630Y153203D01*
X374556Y153145D01*
X374527Y153106D01*
X374492Y153072D01*
X374445Y152991D01*
X374390Y152915D01*
X374373Y152869D01*
X374348Y152827D01*
X374325Y152736D01*
X374293Y152648D01*
X374290Y152599D01*
X374278Y152552D01*
X374281Y152458D01*
X374275Y152364D01*
X374286Y152316D01*
X374287Y152267D01*
X374316Y152178D01*
X374336Y152086D01*
X374360Y152043D01*
X374375Y151997D01*
X374418Y151936D01*
X374472Y151836D01*
X374533Y151775D01*
X374570Y151724D01*
X375847Y150446D01*
X375865Y150358D01*
X375881Y150245D01*
X375893Y150219D01*
X375898Y150190D01*
X375951Y150089D01*
X375997Y149986D01*
X376016Y149964D01*
X376029Y149938D01*
X376107Y149855D01*
X376180Y149769D01*
X376205Y149753D01*
X376225Y149732D01*
X376323Y149674D01*
X376417Y149611D01*
X376445Y149603D01*
X376470Y149588D01*
X376580Y149560D01*
X376688Y149526D01*
X376718Y149525D01*
X376746Y149518D01*
X376859Y149521D01*
X376972Y149518D01*
X377001Y149526D01*
X377030Y149527D01*
X377138Y149562D01*
X377247Y149590D01*
X377273Y149605D01*
X377301Y149614D01*
X377365Y149660D01*
X377492Y149735D01*
X377535Y149781D01*
X377574Y149809D01*
X378122Y150357D01*
X379989Y151131D01*
X382011Y151131D01*
X383878Y150357D01*
X385307Y148928D01*
X386081Y147061D01*
X386081Y145039D01*
X385307Y143172D01*
X383878Y141743D01*
X382011Y140969D01*
X381370Y140969D01*
X381283Y140957D01*
X381196Y140954D01*
X381143Y140937D01*
X381088Y140929D01*
X381008Y140894D01*
X380925Y140867D01*
X380886Y140839D01*
X380829Y140813D01*
X380716Y140717D01*
X380652Y140672D01*
X380323Y140343D01*
X376856Y140343D01*
X376798Y140335D01*
X376740Y140337D01*
X376658Y140315D01*
X376574Y140303D01*
X376521Y140280D01*
X376465Y140265D01*
X376392Y140222D01*
X376315Y140187D01*
X376270Y140149D01*
X376220Y140120D01*
X376162Y140058D01*
X376098Y140004D01*
X376066Y139955D01*
X376026Y139912D01*
X375987Y139837D01*
X375940Y139767D01*
X375923Y139711D01*
X375896Y139659D01*
X375885Y139591D01*
X375855Y139496D01*
X375852Y139396D01*
X375841Y139328D01*
X375841Y137348D01*
X374352Y135859D01*
X371785Y135859D01*
X371756Y135855D01*
X371727Y135858D01*
X371616Y135835D01*
X371503Y135819D01*
X371477Y135807D01*
X371448Y135802D01*
X371347Y135749D01*
X371244Y135703D01*
X371222Y135684D01*
X371196Y135671D01*
X371113Y135593D01*
X371027Y135520D01*
X371011Y135495D01*
X370989Y135475D01*
X370932Y135377D01*
X370869Y135283D01*
X370861Y135255D01*
X370846Y135230D01*
X370818Y135120D01*
X370784Y135012D01*
X370783Y134982D01*
X370776Y134954D01*
X370779Y134841D01*
X370776Y134728D01*
X370784Y134699D01*
X370785Y134670D01*
X370820Y134562D01*
X370848Y134453D01*
X370863Y134427D01*
X370872Y134399D01*
X370918Y134335D01*
X370993Y134208D01*
X371039Y134165D01*
X371067Y134126D01*
X371633Y133560D01*
X371968Y132981D01*
X372141Y132334D01*
X372141Y129031D01*
X365116Y129031D01*
X365058Y129023D01*
X365000Y129024D01*
X364918Y129003D01*
X364835Y128991D01*
X364781Y128967D01*
X364725Y128953D01*
X364652Y128910D01*
X364575Y128875D01*
X364531Y128837D01*
X364480Y128807D01*
X364423Y128746D01*
X364358Y128691D01*
X364326Y128643D01*
X364286Y128600D01*
X364247Y128525D01*
X364201Y128455D01*
X364183Y128399D01*
X364156Y128347D01*
X364145Y128279D01*
X364115Y128184D01*
X364112Y128084D01*
X364101Y128016D01*
X364101Y126999D01*
X363084Y126999D01*
X363026Y126991D01*
X362968Y126992D01*
X362886Y126971D01*
X362803Y126959D01*
X362749Y126935D01*
X362693Y126921D01*
X362620Y126878D01*
X362543Y126843D01*
X362498Y126805D01*
X362448Y126775D01*
X362390Y126714D01*
X362326Y126659D01*
X362294Y126611D01*
X362254Y126568D01*
X362215Y126493D01*
X362169Y126423D01*
X362151Y126367D01*
X362124Y126315D01*
X362113Y126247D01*
X362083Y126152D01*
X362080Y126052D01*
X362069Y125984D01*
X362069Y119459D01*
X358266Y119459D01*
X357619Y119632D01*
X357040Y119967D01*
X356567Y120440D01*
X356521Y120520D01*
X356491Y120558D01*
X356468Y120602D01*
X356403Y120670D01*
X356346Y120744D01*
X356306Y120773D01*
X356272Y120808D01*
X356191Y120855D01*
X356115Y120910D01*
X356069Y120927D01*
X356027Y120952D01*
X355936Y120975D01*
X355848Y121007D01*
X355799Y121010D01*
X355752Y121022D01*
X355658Y121019D01*
X355564Y121025D01*
X355516Y121014D01*
X355467Y121013D01*
X355378Y120984D01*
X355286Y120964D01*
X355243Y120940D01*
X355197Y120925D01*
X355136Y120882D01*
X355036Y120828D01*
X354975Y120767D01*
X354924Y120730D01*
X353652Y119459D01*
X340548Y119459D01*
G37*
%LPD*%
%LPC*%
G36*
X302425Y13461D02*
X302425Y13461D01*
X298037Y15279D01*
X294679Y18637D01*
X292861Y23025D01*
X292861Y27775D01*
X294679Y32163D01*
X298037Y35521D01*
X302425Y37339D01*
X307175Y37339D01*
X311563Y35521D01*
X314921Y32163D01*
X316562Y28201D01*
X316577Y28176D01*
X316586Y28148D01*
X316649Y28054D01*
X316707Y27957D01*
X316728Y27936D01*
X316744Y27912D01*
X316831Y27839D01*
X316913Y27761D01*
X316939Y27748D01*
X316962Y27729D01*
X317065Y27683D01*
X317166Y27631D01*
X317195Y27625D01*
X317222Y27614D01*
X317334Y27598D01*
X317445Y27576D01*
X317474Y27579D01*
X317503Y27575D01*
X317615Y27591D01*
X317728Y27601D01*
X317755Y27611D01*
X317784Y27615D01*
X317888Y27662D01*
X317993Y27703D01*
X318017Y27720D01*
X318044Y27732D01*
X318130Y27806D01*
X318220Y27874D01*
X318238Y27898D01*
X318260Y27917D01*
X318302Y27983D01*
X318390Y28102D01*
X318412Y28160D01*
X318438Y28201D01*
X320079Y32163D01*
X323437Y35521D01*
X327825Y37339D01*
X332575Y37339D01*
X336963Y35521D01*
X340321Y32163D01*
X341962Y28201D01*
X341977Y28176D01*
X341986Y28148D01*
X342049Y28054D01*
X342107Y27957D01*
X342128Y27936D01*
X342144Y27912D01*
X342231Y27839D01*
X342313Y27761D01*
X342339Y27748D01*
X342362Y27729D01*
X342465Y27683D01*
X342566Y27631D01*
X342595Y27625D01*
X342622Y27614D01*
X342734Y27598D01*
X342845Y27576D01*
X342874Y27579D01*
X342903Y27575D01*
X343015Y27591D01*
X343128Y27601D01*
X343155Y27611D01*
X343184Y27615D01*
X343288Y27662D01*
X343393Y27703D01*
X343417Y27720D01*
X343444Y27732D01*
X343530Y27806D01*
X343620Y27874D01*
X343638Y27898D01*
X343660Y27917D01*
X343702Y27983D01*
X343790Y28102D01*
X343812Y28160D01*
X343838Y28201D01*
X345479Y32163D01*
X348837Y35521D01*
X353225Y37339D01*
X357975Y37339D01*
X362363Y35521D01*
X365721Y32163D01*
X367539Y27775D01*
X367539Y23025D01*
X365721Y18637D01*
X362363Y15279D01*
X357975Y13461D01*
X353225Y13461D01*
X348837Y15279D01*
X345479Y18637D01*
X343838Y22599D01*
X343823Y22624D01*
X343814Y22652D01*
X343751Y22746D01*
X343693Y22843D01*
X343672Y22864D01*
X343656Y22888D01*
X343569Y22961D01*
X343487Y23039D01*
X343461Y23052D01*
X343438Y23071D01*
X343335Y23117D01*
X343234Y23169D01*
X343205Y23175D01*
X343178Y23186D01*
X343066Y23202D01*
X342955Y23224D01*
X342926Y23221D01*
X342897Y23225D01*
X342785Y23209D01*
X342672Y23199D01*
X342645Y23189D01*
X342615Y23185D01*
X342512Y23138D01*
X342407Y23097D01*
X342383Y23080D01*
X342356Y23068D01*
X342270Y22994D01*
X342180Y22926D01*
X342162Y22902D01*
X342140Y22883D01*
X342098Y22817D01*
X342010Y22698D01*
X341988Y22640D01*
X341962Y22599D01*
X340321Y18637D01*
X336963Y15279D01*
X332575Y13461D01*
X327825Y13461D01*
X323437Y15279D01*
X320079Y18637D01*
X318438Y22599D01*
X318423Y22624D01*
X318414Y22652D01*
X318351Y22746D01*
X318293Y22843D01*
X318272Y22864D01*
X318256Y22888D01*
X318169Y22961D01*
X318087Y23039D01*
X318061Y23052D01*
X318038Y23071D01*
X317935Y23117D01*
X317834Y23169D01*
X317805Y23175D01*
X317778Y23186D01*
X317666Y23202D01*
X317555Y23224D01*
X317526Y23221D01*
X317497Y23225D01*
X317385Y23209D01*
X317272Y23199D01*
X317245Y23189D01*
X317215Y23185D01*
X317112Y23138D01*
X317007Y23097D01*
X316983Y23080D01*
X316956Y23068D01*
X316870Y22994D01*
X316780Y22926D01*
X316762Y22902D01*
X316740Y22883D01*
X316698Y22817D01*
X316610Y22698D01*
X316588Y22640D01*
X316562Y22599D01*
X314921Y18637D01*
X311563Y15279D01*
X307175Y13461D01*
X302425Y13461D01*
G37*
%LPD*%
%LPC*%
G36*
X221239Y39369D02*
X221239Y39369D01*
X219372Y40143D01*
X217943Y41572D01*
X217169Y43439D01*
X217169Y45461D01*
X217943Y47328D01*
X219372Y48757D01*
X221239Y49531D01*
X221880Y49531D01*
X221967Y49543D01*
X222054Y49546D01*
X222107Y49563D01*
X222162Y49571D01*
X222242Y49606D01*
X222325Y49633D01*
X222364Y49661D01*
X222421Y49687D01*
X222534Y49783D01*
X222598Y49828D01*
X224462Y51692D01*
X224514Y51762D01*
X224574Y51826D01*
X224600Y51875D01*
X224633Y51919D01*
X224664Y52001D01*
X224704Y52079D01*
X224712Y52126D01*
X224734Y52185D01*
X224746Y52332D01*
X224759Y52410D01*
X224759Y53665D01*
X224755Y53694D01*
X224758Y53723D01*
X224735Y53834D01*
X224719Y53947D01*
X224707Y53973D01*
X224702Y54002D01*
X224649Y54103D01*
X224603Y54206D01*
X224584Y54228D01*
X224571Y54254D01*
X224493Y54337D01*
X224420Y54423D01*
X224395Y54439D01*
X224375Y54461D01*
X224277Y54518D01*
X224183Y54581D01*
X224155Y54589D01*
X224130Y54604D01*
X224020Y54632D01*
X223912Y54666D01*
X223882Y54667D01*
X223854Y54674D01*
X223741Y54671D01*
X223628Y54674D01*
X223599Y54666D01*
X223570Y54665D01*
X223462Y54630D01*
X223353Y54602D01*
X223327Y54587D01*
X223299Y54578D01*
X223235Y54532D01*
X223108Y54457D01*
X223065Y54411D01*
X223026Y54383D01*
X222460Y53817D01*
X221881Y53482D01*
X221234Y53309D01*
X217931Y53309D01*
X217931Y60334D01*
X217923Y60392D01*
X217924Y60450D01*
X217903Y60532D01*
X217891Y60615D01*
X217867Y60669D01*
X217853Y60725D01*
X217810Y60798D01*
X217775Y60875D01*
X217737Y60919D01*
X217707Y60970D01*
X217646Y61027D01*
X217591Y61092D01*
X217543Y61124D01*
X217500Y61164D01*
X217425Y61203D01*
X217355Y61249D01*
X217299Y61267D01*
X217247Y61294D01*
X217179Y61305D01*
X217084Y61335D01*
X216984Y61338D01*
X216916Y61349D01*
X215899Y61349D01*
X215899Y62366D01*
X215891Y62424D01*
X215892Y62482D01*
X215871Y62564D01*
X215859Y62647D01*
X215835Y62701D01*
X215821Y62757D01*
X215778Y62830D01*
X215743Y62907D01*
X215705Y62951D01*
X215675Y63002D01*
X215614Y63059D01*
X215559Y63124D01*
X215511Y63156D01*
X215468Y63196D01*
X215393Y63235D01*
X215323Y63281D01*
X215267Y63299D01*
X215215Y63326D01*
X215147Y63337D01*
X215052Y63367D01*
X214952Y63370D01*
X214884Y63381D01*
X208359Y63381D01*
X208359Y67184D01*
X208532Y67831D01*
X208867Y68410D01*
X209340Y68883D01*
X209420Y68929D01*
X209432Y68938D01*
X209443Y68944D01*
X209468Y68964D01*
X209502Y68982D01*
X209570Y69047D01*
X209644Y69105D01*
X209673Y69144D01*
X209708Y69178D01*
X209755Y69259D01*
X209810Y69335D01*
X209827Y69381D01*
X209852Y69423D01*
X209875Y69514D01*
X209907Y69602D01*
X209910Y69651D01*
X209922Y69698D01*
X209919Y69792D01*
X209925Y69886D01*
X209914Y69934D01*
X209913Y69983D01*
X209884Y70072D01*
X209864Y70164D01*
X209840Y70207D01*
X209825Y70253D01*
X209782Y70314D01*
X209728Y70414D01*
X209667Y70475D01*
X209630Y70526D01*
X208359Y71798D01*
X208359Y84902D01*
X209848Y86391D01*
X209921Y86391D01*
X210034Y86407D01*
X210149Y86417D01*
X210175Y86427D01*
X210202Y86431D01*
X210307Y86477D01*
X210414Y86519D01*
X210436Y86536D01*
X210462Y86547D01*
X210549Y86621D01*
X210641Y86690D01*
X210657Y86713D01*
X210679Y86730D01*
X210742Y86826D01*
X210811Y86918D01*
X210821Y86944D01*
X210836Y86967D01*
X210871Y87077D01*
X210911Y87184D01*
X210914Y87212D01*
X210922Y87238D01*
X210925Y87353D01*
X210934Y87467D01*
X210928Y87492D01*
X210929Y87522D01*
X210862Y87780D01*
X210859Y87795D01*
X210819Y87889D01*
X210819Y89911D01*
X211593Y91778D01*
X213022Y93207D01*
X214889Y93981D01*
X216911Y93981D01*
X218778Y93207D01*
X220207Y91778D01*
X220981Y89911D01*
X220981Y87889D01*
X220941Y87795D01*
X220913Y87684D01*
X220878Y87574D01*
X220877Y87546D01*
X220870Y87519D01*
X220874Y87405D01*
X220871Y87290D01*
X220878Y87263D01*
X220879Y87235D01*
X220914Y87126D01*
X220943Y87015D01*
X220957Y86991D01*
X220965Y86964D01*
X221029Y86869D01*
X221088Y86770D01*
X221108Y86751D01*
X221124Y86728D01*
X221211Y86654D01*
X221295Y86576D01*
X221320Y86563D01*
X221341Y86545D01*
X221446Y86498D01*
X221548Y86446D01*
X221573Y86442D01*
X221601Y86430D01*
X221865Y86393D01*
X221879Y86391D01*
X221952Y86391D01*
X223441Y84902D01*
X223441Y71798D01*
X222170Y70526D01*
X222140Y70488D01*
X222104Y70455D01*
X222055Y70374D01*
X221999Y70299D01*
X221981Y70254D01*
X221956Y70212D01*
X221931Y70122D01*
X221898Y70034D01*
X221893Y69985D01*
X221881Y69938D01*
X221882Y69844D01*
X221874Y69750D01*
X221884Y69703D01*
X221884Y69654D01*
X221911Y69564D01*
X221930Y69472D01*
X221952Y69428D01*
X221966Y69382D01*
X222018Y69303D01*
X222061Y69219D01*
X222094Y69184D01*
X222121Y69143D01*
X222178Y69096D01*
X222257Y69013D01*
X222292Y68992D01*
X222313Y68972D01*
X222351Y68953D01*
X222380Y68929D01*
X222460Y68883D01*
X222933Y68410D01*
X223268Y67831D01*
X223441Y67184D01*
X223441Y64335D01*
X223445Y64306D01*
X223442Y64277D01*
X223465Y64166D01*
X223481Y64053D01*
X223493Y64027D01*
X223498Y63998D01*
X223551Y63897D01*
X223597Y63794D01*
X223616Y63772D01*
X223629Y63746D01*
X223707Y63663D01*
X223780Y63577D01*
X223805Y63561D01*
X223825Y63539D01*
X223923Y63482D01*
X224017Y63419D01*
X224045Y63411D01*
X224070Y63396D01*
X224180Y63368D01*
X224288Y63334D01*
X224318Y63333D01*
X224346Y63326D01*
X224459Y63329D01*
X224572Y63326D01*
X224601Y63334D01*
X224630Y63335D01*
X224738Y63370D01*
X224847Y63398D01*
X224873Y63413D01*
X224901Y63422D01*
X224965Y63468D01*
X225092Y63543D01*
X225135Y63589D01*
X225174Y63617D01*
X226248Y64691D01*
X234890Y64691D01*
X234977Y64703D01*
X235064Y64706D01*
X235117Y64723D01*
X235172Y64731D01*
X235252Y64766D01*
X235335Y64793D01*
X235374Y64821D01*
X235431Y64847D01*
X235544Y64943D01*
X235608Y64988D01*
X267046Y96426D01*
X268596Y97976D01*
X268612Y97998D01*
X268623Y98008D01*
X268640Y98023D01*
X268644Y98029D01*
X270172Y99557D01*
X272039Y100331D01*
X274061Y100331D01*
X275928Y99557D01*
X277357Y98128D01*
X278131Y96261D01*
X278131Y94239D01*
X277357Y92372D01*
X275928Y90943D01*
X274061Y90169D01*
X272039Y90169D01*
X271825Y90258D01*
X271823Y90259D01*
X271822Y90259D01*
X271686Y90294D01*
X271549Y90329D01*
X271548Y90329D01*
X271546Y90330D01*
X271405Y90325D01*
X271265Y90321D01*
X271264Y90321D01*
X271262Y90321D01*
X271128Y90277D01*
X270994Y90234D01*
X270993Y90234D01*
X270992Y90233D01*
X270979Y90224D01*
X270758Y90076D01*
X270738Y90053D01*
X270718Y90038D01*
X247104Y66424D01*
X247086Y66400D01*
X247064Y66381D01*
X247001Y66287D01*
X246933Y66197D01*
X246923Y66169D01*
X246906Y66145D01*
X246872Y66037D01*
X246832Y65931D01*
X246829Y65902D01*
X246820Y65874D01*
X246818Y65760D01*
X246808Y65648D01*
X246814Y65619D01*
X246813Y65590D01*
X246842Y65480D01*
X246864Y65369D01*
X246878Y65343D01*
X246885Y65315D01*
X246943Y65217D01*
X246995Y65117D01*
X247015Y65095D01*
X247030Y65070D01*
X247113Y64993D01*
X247191Y64911D01*
X247216Y64896D01*
X247238Y64876D01*
X247338Y64824D01*
X247436Y64767D01*
X247465Y64760D01*
X247491Y64746D01*
X247568Y64733D01*
X247712Y64697D01*
X247769Y64699D01*
X247769Y58166D01*
X247777Y58108D01*
X247775Y58050D01*
X247797Y57968D01*
X247809Y57885D01*
X247833Y57831D01*
X247847Y57775D01*
X247890Y57702D01*
X247925Y57625D01*
X247963Y57581D01*
X247993Y57530D01*
X248054Y57473D01*
X248109Y57408D01*
X248157Y57376D01*
X248200Y57336D01*
X248275Y57297D01*
X248345Y57251D01*
X248401Y57233D01*
X248453Y57206D01*
X248521Y57195D01*
X248616Y57165D01*
X248716Y57162D01*
X248784Y57151D01*
X249801Y57151D01*
X249801Y57149D01*
X248784Y57149D01*
X248726Y57141D01*
X248668Y57142D01*
X248586Y57121D01*
X248503Y57109D01*
X248449Y57085D01*
X248393Y57071D01*
X248320Y57028D01*
X248243Y56993D01*
X248198Y56955D01*
X248148Y56925D01*
X248090Y56864D01*
X248026Y56809D01*
X247994Y56761D01*
X247954Y56718D01*
X247915Y56643D01*
X247869Y56573D01*
X247851Y56517D01*
X247824Y56465D01*
X247813Y56397D01*
X247783Y56302D01*
X247780Y56202D01*
X247769Y56134D01*
X247769Y49609D01*
X243966Y49609D01*
X243319Y49782D01*
X242740Y50117D01*
X242267Y50590D01*
X242221Y50670D01*
X242191Y50709D01*
X242168Y50752D01*
X242103Y50820D01*
X242045Y50894D01*
X242006Y50923D01*
X241972Y50958D01*
X241891Y51005D01*
X241815Y51060D01*
X241769Y51077D01*
X241727Y51102D01*
X241636Y51125D01*
X241548Y51157D01*
X241499Y51160D01*
X241452Y51172D01*
X241358Y51169D01*
X241264Y51175D01*
X241216Y51164D01*
X241167Y51163D01*
X241078Y51134D01*
X240986Y51114D01*
X240943Y51090D01*
X240897Y51075D01*
X240836Y51032D01*
X240736Y50978D01*
X240675Y50917D01*
X240624Y50880D01*
X239352Y49609D01*
X232860Y49609D01*
X232773Y49597D01*
X232686Y49594D01*
X232633Y49577D01*
X232578Y49569D01*
X232498Y49534D01*
X232415Y49507D01*
X232376Y49479D01*
X232319Y49453D01*
X232206Y49357D01*
X232142Y49312D01*
X227628Y44798D01*
X227576Y44728D01*
X227516Y44664D01*
X227490Y44615D01*
X227457Y44571D01*
X227426Y44489D01*
X227386Y44411D01*
X227378Y44364D01*
X227356Y44305D01*
X227344Y44158D01*
X227331Y44080D01*
X227331Y43439D01*
X226557Y41572D01*
X225128Y40143D01*
X223261Y39369D01*
X221239Y39369D01*
G37*
%LPD*%
%LPC*%
G36*
X297439Y198119D02*
X297439Y198119D01*
X295572Y198893D01*
X294143Y200322D01*
X293369Y202189D01*
X293369Y204211D01*
X294143Y206078D01*
X295572Y207507D01*
X297439Y208281D01*
X298080Y208281D01*
X298167Y208293D01*
X298254Y208296D01*
X298307Y208313D01*
X298362Y208321D01*
X298442Y208356D01*
X298525Y208383D01*
X298564Y208411D01*
X298621Y208437D01*
X298734Y208533D01*
X298798Y208578D01*
X305010Y214790D01*
X305062Y214860D01*
X305122Y214924D01*
X305148Y214973D01*
X305181Y215017D01*
X305212Y215099D01*
X305252Y215177D01*
X305260Y215224D01*
X305282Y215283D01*
X305294Y215430D01*
X305307Y215508D01*
X305307Y223789D01*
X305295Y223876D01*
X305292Y223963D01*
X305275Y224016D01*
X305267Y224070D01*
X305232Y224150D01*
X305205Y224233D01*
X305177Y224273D01*
X305151Y224330D01*
X305055Y224443D01*
X305010Y224507D01*
X304557Y224960D01*
X303783Y226827D01*
X303783Y228849D01*
X304557Y230716D01*
X305279Y231438D01*
X305314Y231485D01*
X305356Y231525D01*
X305399Y231598D01*
X305450Y231665D01*
X305471Y231720D01*
X305500Y231770D01*
X305521Y231852D01*
X305551Y231931D01*
X305556Y231989D01*
X305570Y232046D01*
X305568Y232130D01*
X305575Y232214D01*
X305563Y232272D01*
X305561Y232330D01*
X305535Y232410D01*
X305519Y232493D01*
X305492Y232545D01*
X305474Y232601D01*
X305434Y232657D01*
X305388Y232745D01*
X305319Y232818D01*
X305279Y232874D01*
X304811Y233342D01*
X304037Y235209D01*
X304037Y237231D01*
X304811Y239098D01*
X306240Y240527D01*
X308107Y241301D01*
X310129Y241301D01*
X311996Y240527D01*
X313425Y239098D01*
X314199Y237231D01*
X314199Y237156D01*
X314207Y237098D01*
X314205Y237040D01*
X314227Y236958D01*
X314239Y236874D01*
X314262Y236821D01*
X314277Y236765D01*
X314320Y236692D01*
X314355Y236615D01*
X314393Y236570D01*
X314422Y236520D01*
X314484Y236462D01*
X314538Y236398D01*
X314587Y236366D01*
X314630Y236326D01*
X314705Y236287D01*
X314775Y236240D01*
X314831Y236223D01*
X314883Y236196D01*
X314951Y236185D01*
X315046Y236155D01*
X315146Y236152D01*
X315214Y236141D01*
X328252Y236141D01*
X329524Y234870D01*
X329563Y234840D01*
X329596Y234804D01*
X329676Y234755D01*
X329751Y234699D01*
X329796Y234681D01*
X329838Y234656D01*
X329929Y234631D01*
X330016Y234597D01*
X330065Y234593D01*
X330112Y234580D01*
X330206Y234582D01*
X330300Y234574D01*
X330348Y234584D01*
X330396Y234584D01*
X330486Y234611D01*
X330578Y234630D01*
X330622Y234652D01*
X330669Y234666D01*
X330747Y234717D01*
X330831Y234761D01*
X330866Y234794D01*
X330907Y234821D01*
X330954Y234878D01*
X331037Y234957D01*
X331081Y235032D01*
X331121Y235080D01*
X331167Y235160D01*
X331640Y235633D01*
X332219Y235968D01*
X332866Y236141D01*
X336669Y236141D01*
X336669Y229616D01*
X336677Y229558D01*
X336675Y229500D01*
X336697Y229418D01*
X336709Y229335D01*
X336733Y229281D01*
X336747Y229225D01*
X336790Y229152D01*
X336825Y229075D01*
X336863Y229031D01*
X336893Y228980D01*
X336954Y228923D01*
X337009Y228858D01*
X337057Y228826D01*
X337100Y228786D01*
X337175Y228747D01*
X337245Y228701D01*
X337301Y228683D01*
X337353Y228656D01*
X337421Y228645D01*
X337516Y228615D01*
X337616Y228612D01*
X337684Y228601D01*
X338701Y228601D01*
X338701Y228599D01*
X337684Y228599D01*
X337626Y228591D01*
X337568Y228592D01*
X337486Y228571D01*
X337403Y228559D01*
X337349Y228535D01*
X337293Y228521D01*
X337220Y228478D01*
X337143Y228443D01*
X337098Y228405D01*
X337048Y228375D01*
X336990Y228314D01*
X336926Y228259D01*
X336894Y228211D01*
X336854Y228168D01*
X336815Y228093D01*
X336769Y228023D01*
X336751Y227967D01*
X336724Y227915D01*
X336713Y227847D01*
X336683Y227752D01*
X336680Y227652D01*
X336669Y227584D01*
X336669Y221059D01*
X334772Y221059D01*
X334714Y221051D01*
X334656Y221053D01*
X334574Y221031D01*
X334490Y221019D01*
X334437Y220996D01*
X334381Y220981D01*
X334308Y220938D01*
X334231Y220903D01*
X334186Y220865D01*
X334136Y220836D01*
X334078Y220774D01*
X334014Y220720D01*
X333982Y220671D01*
X333942Y220628D01*
X333903Y220553D01*
X333856Y220483D01*
X333839Y220427D01*
X333812Y220375D01*
X333801Y220307D01*
X333771Y220212D01*
X333768Y220112D01*
X333757Y220044D01*
X333757Y219949D01*
X333769Y219862D01*
X333772Y219775D01*
X333789Y219722D01*
X333797Y219668D01*
X333832Y219588D01*
X333859Y219505D01*
X333887Y219465D01*
X333913Y219408D01*
X334009Y219295D01*
X334054Y219231D01*
X334507Y218778D01*
X335281Y216911D01*
X335281Y214889D01*
X334507Y213022D01*
X333078Y211593D01*
X331211Y210819D01*
X329189Y210819D01*
X327322Y211593D01*
X325893Y213022D01*
X325119Y214889D01*
X325119Y216911D01*
X325809Y218575D01*
X325809Y218577D01*
X325810Y218578D01*
X325844Y218712D01*
X325880Y218850D01*
X325880Y218852D01*
X325880Y218853D01*
X325876Y218989D01*
X325871Y219134D01*
X325871Y219136D01*
X325871Y219138D01*
X325828Y219270D01*
X325785Y219405D01*
X325784Y219407D01*
X325783Y219408D01*
X325775Y219420D01*
X325627Y219641D01*
X325603Y219661D01*
X325589Y219681D01*
X324508Y220762D01*
X324438Y220814D01*
X324374Y220874D01*
X324325Y220900D01*
X324281Y220933D01*
X324199Y220964D01*
X324121Y221004D01*
X324074Y221012D01*
X324015Y221034D01*
X323868Y221046D01*
X323790Y221059D01*
X322969Y221059D01*
X322856Y221043D01*
X322741Y221033D01*
X322715Y221023D01*
X322688Y221019D01*
X322583Y220972D01*
X322476Y220931D01*
X322454Y220915D01*
X322429Y220903D01*
X322341Y220829D01*
X322249Y220760D01*
X322233Y220737D01*
X322212Y220720D01*
X322148Y220624D01*
X322079Y220532D01*
X322069Y220506D01*
X322054Y220483D01*
X322019Y220373D01*
X321979Y220266D01*
X321977Y220238D01*
X321968Y220212D01*
X321965Y220097D01*
X321956Y219983D01*
X321962Y219958D01*
X321961Y219928D01*
X322028Y219671D01*
X322031Y219655D01*
X322327Y218943D01*
X322327Y216921D01*
X321553Y215054D01*
X320124Y213625D01*
X318257Y212851D01*
X316235Y212851D01*
X314368Y213625D01*
X314154Y213839D01*
X314130Y213856D01*
X314111Y213879D01*
X314017Y213942D01*
X313927Y214010D01*
X313899Y214020D01*
X313875Y214037D01*
X313767Y214071D01*
X313661Y214111D01*
X313632Y214113D01*
X313604Y214122D01*
X313491Y214125D01*
X313378Y214135D01*
X313349Y214129D01*
X313320Y214130D01*
X313210Y214101D01*
X313099Y214079D01*
X313073Y214065D01*
X313045Y214058D01*
X312947Y214000D01*
X312847Y213948D01*
X312825Y213928D01*
X312800Y213913D01*
X312723Y213830D01*
X312641Y213752D01*
X312626Y213727D01*
X312606Y213705D01*
X312554Y213604D01*
X312497Y213507D01*
X312490Y213478D01*
X312476Y213452D01*
X312463Y213375D01*
X312427Y213231D01*
X312429Y213169D01*
X312421Y213121D01*
X312421Y212141D01*
X303828Y203548D01*
X303776Y203478D01*
X303716Y203414D01*
X303690Y203365D01*
X303657Y203321D01*
X303626Y203239D01*
X303586Y203161D01*
X303578Y203114D01*
X303556Y203055D01*
X303550Y202986D01*
X303545Y202968D01*
X303543Y202904D01*
X303531Y202830D01*
X303531Y202189D01*
X302757Y200322D01*
X301328Y198893D01*
X299461Y198119D01*
X297439Y198119D01*
G37*
%LPD*%
%LPC*%
G36*
X50799Y99449D02*
X50799Y99449D01*
X50799Y100466D01*
X50791Y100524D01*
X50792Y100582D01*
X50771Y100664D01*
X50759Y100747D01*
X50735Y100801D01*
X50721Y100857D01*
X50678Y100930D01*
X50643Y101007D01*
X50605Y101051D01*
X50575Y101102D01*
X50514Y101159D01*
X50459Y101224D01*
X50411Y101256D01*
X50368Y101296D01*
X50293Y101335D01*
X50223Y101381D01*
X50167Y101399D01*
X50115Y101426D01*
X50047Y101437D01*
X49952Y101467D01*
X49852Y101470D01*
X49784Y101481D01*
X43259Y101481D01*
X43259Y105284D01*
X43432Y105931D01*
X43767Y106510D01*
X44240Y106983D01*
X44320Y107029D01*
X44358Y107059D01*
X44402Y107082D01*
X44470Y107147D01*
X44544Y107204D01*
X44573Y107244D01*
X44608Y107278D01*
X44655Y107359D01*
X44710Y107435D01*
X44727Y107481D01*
X44752Y107523D01*
X44775Y107614D01*
X44807Y107702D01*
X44810Y107751D01*
X44822Y107798D01*
X44819Y107892D01*
X44825Y107986D01*
X44814Y108034D01*
X44813Y108083D01*
X44784Y108172D01*
X44764Y108264D01*
X44740Y108307D01*
X44725Y108353D01*
X44682Y108414D01*
X44628Y108514D01*
X44567Y108575D01*
X44530Y108626D01*
X43259Y109898D01*
X43259Y111878D01*
X43251Y111936D01*
X43253Y111994D01*
X43231Y112076D01*
X43219Y112160D01*
X43196Y112213D01*
X43181Y112269D01*
X43138Y112342D01*
X43103Y112419D01*
X43065Y112464D01*
X43036Y112514D01*
X42974Y112572D01*
X42920Y112636D01*
X42871Y112668D01*
X42828Y112708D01*
X42753Y112747D01*
X42683Y112794D01*
X42627Y112811D01*
X42575Y112838D01*
X42507Y112849D01*
X42412Y112879D01*
X42312Y112882D01*
X42244Y112893D01*
X40827Y112893D01*
X34543Y119177D01*
X34543Y122951D01*
X34531Y123038D01*
X34528Y123125D01*
X34511Y123178D01*
X34503Y123232D01*
X34468Y123312D01*
X34441Y123396D01*
X34413Y123435D01*
X34387Y123492D01*
X34291Y123605D01*
X34246Y123669D01*
X33793Y124122D01*
X33019Y125989D01*
X33019Y128011D01*
X33793Y129878D01*
X35222Y131307D01*
X37089Y132081D01*
X39111Y132081D01*
X40978Y131307D01*
X41431Y130854D01*
X41501Y130802D01*
X41565Y130742D01*
X41614Y130716D01*
X41658Y130683D01*
X41740Y130652D01*
X41818Y130612D01*
X41865Y130604D01*
X41924Y130582D01*
X42072Y130570D01*
X42149Y130557D01*
X65801Y130557D01*
X65888Y130569D01*
X65975Y130572D01*
X66028Y130589D01*
X66082Y130597D01*
X66162Y130632D01*
X66245Y130659D01*
X66285Y130687D01*
X66342Y130713D01*
X66455Y130809D01*
X66519Y130854D01*
X66972Y131307D01*
X68839Y132081D01*
X70861Y132081D01*
X72728Y131307D01*
X74157Y129878D01*
X74931Y128011D01*
X74931Y125989D01*
X74157Y124122D01*
X72728Y122693D01*
X70861Y121919D01*
X68839Y121919D01*
X66972Y122693D01*
X66519Y123146D01*
X66449Y123198D01*
X66385Y123258D01*
X66336Y123284D01*
X66292Y123317D01*
X66210Y123348D01*
X66132Y123388D01*
X66084Y123396D01*
X66026Y123418D01*
X65878Y123430D01*
X65801Y123443D01*
X59356Y123443D01*
X59298Y123435D01*
X59240Y123437D01*
X59158Y123415D01*
X59074Y123403D01*
X59021Y123380D01*
X58965Y123365D01*
X58892Y123322D01*
X58815Y123287D01*
X58770Y123249D01*
X58720Y123220D01*
X58662Y123158D01*
X58598Y123104D01*
X58566Y123055D01*
X58526Y123012D01*
X58487Y122937D01*
X58440Y122867D01*
X58423Y122811D01*
X58396Y122759D01*
X58385Y122691D01*
X58355Y122596D01*
X58352Y122496D01*
X58341Y122428D01*
X58341Y109898D01*
X57070Y108626D01*
X57040Y108587D01*
X57004Y108554D01*
X56955Y108474D01*
X56899Y108399D01*
X56881Y108354D01*
X56856Y108312D01*
X56831Y108221D01*
X56797Y108134D01*
X56793Y108085D01*
X56780Y108038D01*
X56782Y107944D01*
X56774Y107850D01*
X56784Y107802D01*
X56784Y107754D01*
X56811Y107664D01*
X56830Y107572D01*
X56852Y107528D01*
X56866Y107481D01*
X56917Y107403D01*
X56961Y107319D01*
X56994Y107284D01*
X57021Y107243D01*
X57078Y107196D01*
X57157Y107113D01*
X57232Y107069D01*
X57280Y107029D01*
X57360Y106983D01*
X57833Y106510D01*
X58168Y105931D01*
X58341Y105284D01*
X58341Y101481D01*
X51816Y101481D01*
X51758Y101473D01*
X51700Y101474D01*
X51618Y101453D01*
X51535Y101441D01*
X51481Y101417D01*
X51425Y101403D01*
X51352Y101360D01*
X51275Y101325D01*
X51231Y101287D01*
X51180Y101257D01*
X51123Y101196D01*
X51058Y101141D01*
X51026Y101093D01*
X50986Y101050D01*
X50947Y100975D01*
X50901Y100905D01*
X50883Y100849D01*
X50856Y100797D01*
X50845Y100729D01*
X50815Y100634D01*
X50812Y100534D01*
X50801Y100466D01*
X50801Y99449D01*
X50799Y99449D01*
G37*
%LPD*%
%LPC*%
G36*
X170439Y191769D02*
X170439Y191769D01*
X168572Y192543D01*
X167143Y193972D01*
X166369Y195839D01*
X166369Y196480D01*
X166357Y196567D01*
X166354Y196654D01*
X166337Y196707D01*
X166329Y196762D01*
X166294Y196842D01*
X166267Y196925D01*
X166239Y196964D01*
X166213Y197021D01*
X166117Y197134D01*
X166072Y197198D01*
X161558Y201712D01*
X161488Y201764D01*
X161424Y201824D01*
X161375Y201850D01*
X161331Y201883D01*
X161249Y201914D01*
X161171Y201954D01*
X161124Y201962D01*
X161065Y201984D01*
X160918Y201996D01*
X160840Y202009D01*
X154348Y202009D01*
X153118Y203239D01*
X153071Y203274D01*
X153031Y203317D01*
X152958Y203359D01*
X152891Y203410D01*
X152836Y203431D01*
X152786Y203460D01*
X152704Y203481D01*
X152625Y203511D01*
X152567Y203516D01*
X152510Y203530D01*
X152426Y203528D01*
X152342Y203535D01*
X152284Y203523D01*
X152226Y203521D01*
X152146Y203495D01*
X152063Y203479D01*
X152011Y203452D01*
X151955Y203434D01*
X151899Y203394D01*
X151811Y203348D01*
X151738Y203279D01*
X151682Y203239D01*
X150452Y202009D01*
X137348Y202009D01*
X135859Y203498D01*
X135859Y204978D01*
X135851Y205036D01*
X135853Y205094D01*
X135831Y205176D01*
X135819Y205260D01*
X135796Y205313D01*
X135781Y205369D01*
X135738Y205442D01*
X135703Y205519D01*
X135665Y205564D01*
X135636Y205614D01*
X135574Y205672D01*
X135520Y205736D01*
X135471Y205768D01*
X135428Y205808D01*
X135353Y205847D01*
X135283Y205894D01*
X135227Y205911D01*
X135175Y205938D01*
X135107Y205949D01*
X135012Y205979D01*
X134912Y205982D01*
X134844Y205993D01*
X131049Y205993D01*
X130962Y205981D01*
X130875Y205978D01*
X130822Y205961D01*
X130768Y205953D01*
X130688Y205918D01*
X130605Y205891D01*
X130565Y205863D01*
X130508Y205837D01*
X130395Y205741D01*
X130331Y205696D01*
X129878Y205243D01*
X128011Y204469D01*
X125989Y204469D01*
X124122Y205243D01*
X122693Y206672D01*
X121919Y208539D01*
X121919Y210561D01*
X122693Y212428D01*
X124122Y213857D01*
X125989Y214631D01*
X128011Y214631D01*
X129878Y213857D01*
X130331Y213404D01*
X130401Y213352D01*
X130465Y213292D01*
X130514Y213266D01*
X130558Y213233D01*
X130640Y213202D01*
X130718Y213162D01*
X130766Y213154D01*
X130824Y213132D01*
X130972Y213120D01*
X131049Y213107D01*
X134844Y213107D01*
X134902Y213115D01*
X134960Y213113D01*
X135042Y213135D01*
X135126Y213147D01*
X135179Y213170D01*
X135235Y213185D01*
X135308Y213228D01*
X135385Y213263D01*
X135430Y213301D01*
X135480Y213330D01*
X135538Y213392D01*
X135602Y213446D01*
X135634Y213495D01*
X135674Y213538D01*
X135713Y213613D01*
X135760Y213683D01*
X135777Y213739D01*
X135804Y213791D01*
X135815Y213859D01*
X135845Y213954D01*
X135848Y214054D01*
X135859Y214122D01*
X135859Y215602D01*
X137348Y217091D01*
X150452Y217091D01*
X151682Y215861D01*
X151729Y215826D01*
X151769Y215783D01*
X151842Y215741D01*
X151909Y215690D01*
X151964Y215669D01*
X152014Y215640D01*
X152096Y215619D01*
X152175Y215589D01*
X152233Y215584D01*
X152290Y215570D01*
X152374Y215572D01*
X152458Y215565D01*
X152516Y215577D01*
X152574Y215579D01*
X152654Y215605D01*
X152737Y215621D01*
X152789Y215648D01*
X152845Y215666D01*
X152901Y215706D01*
X152989Y215752D01*
X153062Y215821D01*
X153118Y215861D01*
X154348Y217091D01*
X167452Y217091D01*
X168941Y215602D01*
X168941Y204810D01*
X168948Y204755D01*
X168947Y204715D01*
X168954Y204689D01*
X168956Y204636D01*
X168973Y204583D01*
X168981Y204528D01*
X169016Y204448D01*
X169043Y204365D01*
X169071Y204326D01*
X169097Y204269D01*
X169193Y204155D01*
X169238Y204092D01*
X171102Y202228D01*
X171172Y202176D01*
X171236Y202116D01*
X171285Y202090D01*
X171329Y202057D01*
X171411Y202026D01*
X171489Y201986D01*
X171536Y201978D01*
X171595Y201956D01*
X171742Y201944D01*
X171820Y201931D01*
X172461Y201931D01*
X174328Y201157D01*
X175757Y199728D01*
X176531Y197861D01*
X176531Y195839D01*
X175757Y193972D01*
X174328Y192543D01*
X172461Y191769D01*
X170439Y191769D01*
G37*
%LPD*%
%LPC*%
G36*
X302425Y51561D02*
X302425Y51561D01*
X298037Y53379D01*
X294679Y56737D01*
X292861Y61125D01*
X292861Y65875D01*
X294679Y70263D01*
X298037Y73621D01*
X302155Y75327D01*
X302186Y75345D01*
X302220Y75356D01*
X302248Y75376D01*
X302279Y75388D01*
X302335Y75433D01*
X302400Y75471D01*
X302425Y75497D01*
X302454Y75517D01*
X302476Y75544D01*
X302502Y75565D01*
X302543Y75623D01*
X302595Y75678D01*
X302612Y75710D01*
X302634Y75737D01*
X302648Y75769D01*
X302667Y75796D01*
X302691Y75863D01*
X302726Y75931D01*
X302732Y75966D01*
X302746Y75998D01*
X302751Y76033D01*
X302762Y76064D01*
X302766Y76135D01*
X302781Y76210D01*
X302778Y76245D01*
X302782Y76280D01*
X302777Y76315D01*
X302778Y76348D01*
X302763Y76418D01*
X302756Y76493D01*
X302743Y76526D01*
X302738Y76561D01*
X302723Y76593D01*
X302716Y76625D01*
X302681Y76688D01*
X302654Y76758D01*
X302633Y76787D01*
X302618Y76819D01*
X302595Y76845D01*
X302579Y76874D01*
X302528Y76925D01*
X302483Y76985D01*
X302454Y77006D01*
X302431Y77033D01*
X302402Y77052D01*
X302378Y77075D01*
X302324Y77104D01*
X302255Y77155D01*
X302222Y77168D01*
X302192Y77187D01*
X302133Y77203D01*
X302080Y77231D01*
X300217Y77836D01*
X298543Y78689D01*
X297022Y79794D01*
X295694Y81122D01*
X294589Y82643D01*
X293736Y84317D01*
X293155Y86104D01*
X293034Y86869D01*
X303784Y86869D01*
X303842Y86877D01*
X303900Y86875D01*
X303982Y86897D01*
X304065Y86909D01*
X304119Y86933D01*
X304175Y86947D01*
X304248Y86990D01*
X304325Y87025D01*
X304369Y87063D01*
X304420Y87093D01*
X304477Y87154D01*
X304542Y87209D01*
X304574Y87257D01*
X304614Y87300D01*
X304653Y87375D01*
X304699Y87445D01*
X304717Y87501D01*
X304744Y87553D01*
X304755Y87621D01*
X304785Y87716D01*
X304788Y87816D01*
X304799Y87884D01*
X304799Y88901D01*
X304801Y88901D01*
X304801Y87884D01*
X304809Y87826D01*
X304808Y87768D01*
X304829Y87686D01*
X304841Y87603D01*
X304865Y87549D01*
X304879Y87493D01*
X304922Y87420D01*
X304957Y87343D01*
X304995Y87298D01*
X305025Y87248D01*
X305086Y87190D01*
X305141Y87126D01*
X305189Y87094D01*
X305232Y87054D01*
X305307Y87015D01*
X305377Y86969D01*
X305433Y86951D01*
X305485Y86924D01*
X305553Y86913D01*
X305648Y86883D01*
X305748Y86880D01*
X305816Y86869D01*
X316566Y86869D01*
X316445Y86104D01*
X315864Y84317D01*
X315011Y82643D01*
X313906Y81122D01*
X312578Y79794D01*
X311057Y78689D01*
X309383Y77836D01*
X307520Y77231D01*
X307489Y77216D01*
X307456Y77208D01*
X307425Y77190D01*
X307391Y77179D01*
X307330Y77138D01*
X307264Y77106D01*
X307240Y77083D01*
X307209Y77066D01*
X307185Y77041D01*
X307155Y77021D01*
X307107Y76963D01*
X307053Y76915D01*
X307036Y76887D01*
X307012Y76862D01*
X306995Y76830D01*
X306972Y76803D01*
X306942Y76734D01*
X306904Y76673D01*
X306895Y76642D01*
X306878Y76611D01*
X306871Y76576D01*
X306857Y76543D01*
X306846Y76468D01*
X306827Y76399D01*
X306827Y76367D01*
X306820Y76332D01*
X306823Y76297D01*
X306818Y76262D01*
X306829Y76187D01*
X306829Y76115D01*
X306839Y76084D01*
X306841Y76049D01*
X306853Y76016D01*
X306859Y75980D01*
X306890Y75911D01*
X306910Y75843D01*
X306928Y75815D01*
X306940Y75782D01*
X306961Y75754D01*
X306976Y75721D01*
X307025Y75664D01*
X307063Y75603D01*
X307088Y75582D01*
X307109Y75554D01*
X307137Y75532D01*
X307160Y75505D01*
X307214Y75471D01*
X307277Y75416D01*
X307307Y75402D01*
X307334Y75381D01*
X307400Y75355D01*
X307445Y75327D01*
X311563Y73621D01*
X314921Y70263D01*
X316739Y65875D01*
X316739Y61125D01*
X314921Y56737D01*
X311563Y53379D01*
X307175Y51561D01*
X302425Y51561D01*
G37*
%LPD*%
%LPC*%
G36*
X209431Y233759D02*
X209431Y233759D01*
X209431Y240284D01*
X209423Y240342D01*
X209424Y240400D01*
X209403Y240482D01*
X209391Y240565D01*
X209367Y240619D01*
X209353Y240675D01*
X209310Y240748D01*
X209275Y240825D01*
X209237Y240869D01*
X209207Y240920D01*
X209146Y240977D01*
X209091Y241042D01*
X209043Y241074D01*
X209000Y241114D01*
X208925Y241153D01*
X208855Y241199D01*
X208799Y241217D01*
X208747Y241244D01*
X208679Y241255D01*
X208584Y241285D01*
X208484Y241288D01*
X208416Y241299D01*
X207399Y241299D01*
X207399Y241301D01*
X208416Y241301D01*
X208474Y241309D01*
X208532Y241308D01*
X208614Y241329D01*
X208697Y241341D01*
X208751Y241365D01*
X208807Y241379D01*
X208880Y241422D01*
X208957Y241457D01*
X209001Y241495D01*
X209052Y241525D01*
X209109Y241586D01*
X209174Y241641D01*
X209206Y241689D01*
X209246Y241732D01*
X209285Y241807D01*
X209331Y241877D01*
X209349Y241933D01*
X209376Y241985D01*
X209387Y242053D01*
X209417Y242148D01*
X209420Y242248D01*
X209431Y242316D01*
X209431Y248841D01*
X213234Y248841D01*
X213881Y248668D01*
X214460Y248333D01*
X214933Y247860D01*
X214979Y247780D01*
X215009Y247742D01*
X215032Y247698D01*
X215097Y247630D01*
X215154Y247556D01*
X215194Y247527D01*
X215228Y247492D01*
X215309Y247445D01*
X215385Y247390D01*
X215431Y247373D01*
X215473Y247348D01*
X215564Y247325D01*
X215652Y247293D01*
X215701Y247290D01*
X215748Y247278D01*
X215842Y247281D01*
X215936Y247275D01*
X215984Y247286D01*
X216033Y247287D01*
X216122Y247316D01*
X216214Y247336D01*
X216257Y247360D01*
X216303Y247375D01*
X216364Y247418D01*
X216464Y247472D01*
X216525Y247533D01*
X216576Y247570D01*
X217848Y248841D01*
X230952Y248841D01*
X232441Y247352D01*
X232441Y247279D01*
X232457Y247166D01*
X232467Y247051D01*
X232477Y247025D01*
X232481Y246998D01*
X232527Y246893D01*
X232569Y246786D01*
X232586Y246764D01*
X232597Y246738D01*
X232671Y246651D01*
X232740Y246559D01*
X232763Y246543D01*
X232780Y246521D01*
X232876Y246458D01*
X232968Y246389D01*
X232994Y246379D01*
X233017Y246364D01*
X233127Y246329D01*
X233234Y246289D01*
X233262Y246286D01*
X233288Y246278D01*
X233403Y246275D01*
X233517Y246266D01*
X233542Y246272D01*
X233572Y246271D01*
X233830Y246338D01*
X233845Y246341D01*
X233939Y246381D01*
X235961Y246381D01*
X237828Y245607D01*
X239257Y244178D01*
X240031Y242311D01*
X240031Y240289D01*
X239257Y238422D01*
X237828Y236993D01*
X235961Y236219D01*
X233939Y236219D01*
X233845Y236259D01*
X233734Y236287D01*
X233624Y236322D01*
X233596Y236323D01*
X233569Y236330D01*
X233455Y236326D01*
X233340Y236329D01*
X233313Y236322D01*
X233285Y236321D01*
X233176Y236286D01*
X233065Y236257D01*
X233041Y236243D01*
X233014Y236235D01*
X232919Y236171D01*
X232820Y236112D01*
X232801Y236092D01*
X232778Y236076D01*
X232704Y235989D01*
X232626Y235905D01*
X232613Y235880D01*
X232595Y235859D01*
X232548Y235754D01*
X232496Y235652D01*
X232492Y235627D01*
X232480Y235599D01*
X232464Y235486D01*
X232455Y235456D01*
X232454Y235410D01*
X232443Y235335D01*
X232441Y235321D01*
X232441Y235248D01*
X230952Y233759D01*
X217848Y233759D01*
X216576Y235030D01*
X216537Y235060D01*
X216504Y235096D01*
X216424Y235145D01*
X216349Y235201D01*
X216304Y235219D01*
X216262Y235244D01*
X216171Y235269D01*
X216084Y235303D01*
X216035Y235307D01*
X215988Y235320D01*
X215894Y235318D01*
X215800Y235326D01*
X215752Y235316D01*
X215704Y235316D01*
X215614Y235289D01*
X215522Y235270D01*
X215478Y235248D01*
X215431Y235234D01*
X215353Y235183D01*
X215269Y235139D01*
X215234Y235106D01*
X215193Y235079D01*
X215146Y235022D01*
X215063Y234943D01*
X215019Y234868D01*
X214979Y234820D01*
X214933Y234740D01*
X214460Y234267D01*
X213881Y233932D01*
X213234Y233759D01*
X209431Y233759D01*
G37*
%LPD*%
%LPC*%
G36*
X221239Y128269D02*
X221239Y128269D01*
X219372Y129043D01*
X217943Y130472D01*
X217169Y132339D01*
X217169Y134361D01*
X217943Y136228D01*
X219372Y137657D01*
X221239Y138431D01*
X223261Y138431D01*
X225128Y137657D01*
X225581Y137204D01*
X225651Y137152D01*
X225715Y137092D01*
X225764Y137066D01*
X225808Y137033D01*
X225890Y137002D01*
X225968Y136962D01*
X226016Y136954D01*
X226074Y136932D01*
X226222Y136920D01*
X226299Y136907D01*
X256301Y136907D01*
X256388Y136919D01*
X256475Y136922D01*
X256528Y136939D01*
X256582Y136947D01*
X256662Y136982D01*
X256745Y137009D01*
X256785Y137037D01*
X256842Y137063D01*
X256955Y137159D01*
X257019Y137204D01*
X257472Y137657D01*
X259339Y138431D01*
X261361Y138431D01*
X263228Y137657D01*
X264657Y136228D01*
X265431Y134361D01*
X265431Y132339D01*
X264657Y130472D01*
X263228Y129043D01*
X261361Y128269D01*
X259339Y128269D01*
X257472Y129043D01*
X257019Y129496D01*
X256949Y129548D01*
X256885Y129608D01*
X256836Y129634D01*
X256792Y129667D01*
X256710Y129698D01*
X256632Y129738D01*
X256584Y129746D01*
X256526Y129768D01*
X256378Y129780D01*
X256301Y129793D01*
X226299Y129793D01*
X226212Y129781D01*
X226125Y129778D01*
X226072Y129761D01*
X226018Y129753D01*
X225938Y129718D01*
X225855Y129691D01*
X225815Y129663D01*
X225758Y129637D01*
X225645Y129541D01*
X225581Y129496D01*
X225128Y129043D01*
X223261Y128269D01*
X221239Y128269D01*
G37*
%LPD*%
G36*
X186056Y138154D02*
X186056Y138154D01*
X186171Y138151D01*
X186198Y138158D01*
X186226Y138158D01*
X186335Y138193D01*
X186446Y138222D01*
X186470Y138237D01*
X186497Y138245D01*
X186592Y138309D01*
X186691Y138368D01*
X186710Y138388D01*
X186733Y138403D01*
X186807Y138491D01*
X186885Y138575D01*
X186898Y138600D01*
X186916Y138621D01*
X186963Y138726D01*
X187015Y138828D01*
X187019Y138853D01*
X187031Y138881D01*
X187068Y139145D01*
X187070Y139159D01*
X187070Y152941D01*
X187054Y153055D01*
X187044Y153169D01*
X187034Y153195D01*
X187030Y153222D01*
X186983Y153327D01*
X186942Y153434D01*
X186926Y153456D01*
X186914Y153482D01*
X186840Y153569D01*
X186771Y153661D01*
X186748Y153678D01*
X186731Y153699D01*
X186635Y153762D01*
X186543Y153831D01*
X186517Y153841D01*
X186494Y153856D01*
X186384Y153891D01*
X186277Y153932D01*
X186249Y153934D01*
X186223Y153942D01*
X186108Y153945D01*
X185994Y153954D01*
X185969Y153949D01*
X185939Y153949D01*
X185682Y153882D01*
X185666Y153879D01*
X185161Y153669D01*
X183139Y153669D01*
X181272Y154443D01*
X180692Y155023D01*
X180622Y155075D01*
X180558Y155135D01*
X180509Y155161D01*
X180465Y155194D01*
X180383Y155225D01*
X180305Y155265D01*
X180257Y155273D01*
X180199Y155295D01*
X180051Y155307D01*
X179974Y155320D01*
X154241Y155320D01*
X154155Y155308D01*
X154067Y155305D01*
X154014Y155288D01*
X153960Y155280D01*
X153880Y155245D01*
X153797Y155218D01*
X153757Y155190D01*
X153700Y155164D01*
X153587Y155068D01*
X153523Y155023D01*
X147808Y149308D01*
X147791Y149284D01*
X147768Y149265D01*
X147705Y149171D01*
X147637Y149081D01*
X147627Y149053D01*
X147611Y149029D01*
X147576Y148921D01*
X147536Y148815D01*
X147534Y148786D01*
X147525Y148758D01*
X147522Y148644D01*
X147513Y148532D01*
X147518Y148503D01*
X147518Y148474D01*
X147546Y148364D01*
X147568Y148253D01*
X147582Y148227D01*
X147589Y148199D01*
X147647Y148101D01*
X147699Y148001D01*
X147720Y147979D01*
X147735Y147954D01*
X147817Y147877D01*
X147895Y147795D01*
X147921Y147780D01*
X147942Y147760D01*
X148043Y147708D01*
X148140Y147651D01*
X148169Y147644D01*
X148195Y147630D01*
X148272Y147617D01*
X148416Y147581D01*
X148478Y147583D01*
X148526Y147575D01*
X148654Y147575D01*
X148740Y147587D01*
X148828Y147590D01*
X148881Y147607D01*
X148935Y147615D01*
X149015Y147650D01*
X149098Y147677D01*
X149138Y147705D01*
X149195Y147731D01*
X149308Y147827D01*
X149372Y147872D01*
X150979Y149480D01*
X172871Y149480D01*
X177780Y144570D01*
X177850Y144518D01*
X177914Y144458D01*
X177963Y144432D01*
X178007Y144399D01*
X178089Y144368D01*
X178167Y144328D01*
X178215Y144320D01*
X178273Y144298D01*
X178421Y144286D01*
X178498Y144273D01*
X179573Y144273D01*
X181440Y143499D01*
X182869Y142070D01*
X183643Y140203D01*
X183643Y139446D01*
X183651Y139388D01*
X183649Y139330D01*
X183671Y139248D01*
X183683Y139164D01*
X183706Y139111D01*
X183721Y139055D01*
X183764Y138982D01*
X183799Y138905D01*
X183837Y138860D01*
X183866Y138810D01*
X183928Y138752D01*
X183982Y138688D01*
X184031Y138656D01*
X184074Y138616D01*
X184149Y138577D01*
X184219Y138530D01*
X184275Y138513D01*
X184327Y138486D01*
X184395Y138475D01*
X184490Y138445D01*
X184590Y138442D01*
X184658Y138431D01*
X185161Y138431D01*
X185666Y138221D01*
X185778Y138193D01*
X185887Y138158D01*
X185915Y138157D01*
X185942Y138150D01*
X186056Y138154D01*
G37*
G36*
X141391Y67061D02*
X141391Y67061D01*
X141421Y67058D01*
X141532Y67081D01*
X141644Y67097D01*
X141670Y67109D01*
X141699Y67114D01*
X141800Y67166D01*
X141903Y67213D01*
X141926Y67232D01*
X141952Y67245D01*
X142034Y67323D01*
X142120Y67396D01*
X142136Y67421D01*
X142158Y67441D01*
X142215Y67539D01*
X142278Y67633D01*
X142287Y67661D01*
X142301Y67686D01*
X142329Y67796D01*
X142364Y67904D01*
X142364Y67934D01*
X142372Y67962D01*
X142368Y68075D01*
X142371Y68188D01*
X142363Y68217D01*
X142362Y68246D01*
X142328Y68354D01*
X142299Y68463D01*
X142284Y68489D01*
X142275Y68517D01*
X142230Y68580D01*
X142154Y68708D01*
X142108Y68751D01*
X142080Y68790D01*
X132574Y78296D01*
X132550Y78314D01*
X132531Y78336D01*
X132437Y78399D01*
X132347Y78467D01*
X132319Y78477D01*
X132295Y78494D01*
X132187Y78528D01*
X132081Y78568D01*
X132052Y78571D01*
X132024Y78580D01*
X131910Y78582D01*
X131798Y78592D01*
X131769Y78586D01*
X131740Y78587D01*
X131630Y78558D01*
X131519Y78536D01*
X131493Y78522D01*
X131465Y78515D01*
X131367Y78457D01*
X131267Y78405D01*
X131245Y78385D01*
X131220Y78370D01*
X131143Y78287D01*
X131061Y78209D01*
X131046Y78184D01*
X131026Y78162D01*
X130974Y78062D01*
X130917Y77964D01*
X130910Y77935D01*
X130896Y77909D01*
X130883Y77832D01*
X130847Y77688D01*
X130849Y77626D01*
X130841Y77578D01*
X130841Y77216D01*
X130668Y76569D01*
X130333Y75990D01*
X129860Y75517D01*
X129281Y75182D01*
X128634Y75009D01*
X124831Y75009D01*
X124831Y81534D01*
X124823Y81592D01*
X124824Y81650D01*
X124803Y81732D01*
X124791Y81815D01*
X124767Y81869D01*
X124753Y81925D01*
X124710Y81998D01*
X124675Y82075D01*
X124637Y82119D01*
X124607Y82170D01*
X124546Y82227D01*
X124491Y82292D01*
X124443Y82324D01*
X124400Y82364D01*
X124325Y82403D01*
X124255Y82449D01*
X124199Y82467D01*
X124147Y82494D01*
X124079Y82505D01*
X123984Y82535D01*
X123884Y82538D01*
X123816Y82549D01*
X121784Y82549D01*
X121726Y82541D01*
X121668Y82542D01*
X121586Y82521D01*
X121503Y82509D01*
X121449Y82485D01*
X121393Y82471D01*
X121320Y82428D01*
X121243Y82393D01*
X121198Y82355D01*
X121148Y82325D01*
X121090Y82264D01*
X121026Y82209D01*
X120994Y82161D01*
X120954Y82118D01*
X120915Y82043D01*
X120869Y81973D01*
X120851Y81917D01*
X120824Y81865D01*
X120813Y81797D01*
X120783Y81702D01*
X120780Y81602D01*
X120769Y81534D01*
X120769Y75009D01*
X116966Y75009D01*
X116319Y75182D01*
X115740Y75517D01*
X115267Y75990D01*
X115221Y76070D01*
X115191Y76109D01*
X115168Y76152D01*
X115103Y76220D01*
X115045Y76294D01*
X115006Y76323D01*
X114972Y76358D01*
X114891Y76405D01*
X114815Y76460D01*
X114769Y76477D01*
X114727Y76502D01*
X114636Y76525D01*
X114548Y76557D01*
X114499Y76560D01*
X114452Y76572D01*
X114358Y76569D01*
X114264Y76575D01*
X114216Y76564D01*
X114167Y76563D01*
X114078Y76534D01*
X113986Y76514D01*
X113943Y76490D01*
X113897Y76475D01*
X113836Y76432D01*
X113736Y76378D01*
X113675Y76317D01*
X113624Y76280D01*
X112352Y75009D01*
X110372Y75009D01*
X110314Y75001D01*
X110256Y75003D01*
X110174Y74981D01*
X110090Y74969D01*
X110037Y74946D01*
X109981Y74931D01*
X109908Y74888D01*
X109831Y74853D01*
X109786Y74815D01*
X109736Y74786D01*
X109678Y74724D01*
X109614Y74670D01*
X109582Y74621D01*
X109542Y74578D01*
X109503Y74503D01*
X109456Y74433D01*
X109439Y74377D01*
X109412Y74325D01*
X109401Y74257D01*
X109371Y74162D01*
X109368Y74062D01*
X109357Y73994D01*
X109357Y72056D01*
X109365Y71998D01*
X109363Y71940D01*
X109385Y71858D01*
X109397Y71774D01*
X109420Y71721D01*
X109435Y71665D01*
X109478Y71592D01*
X109513Y71515D01*
X109551Y71470D01*
X109580Y71420D01*
X109642Y71362D01*
X109696Y71298D01*
X109745Y71266D01*
X109788Y71226D01*
X109863Y71187D01*
X109933Y71140D01*
X109989Y71123D01*
X110041Y71096D01*
X110109Y71085D01*
X110204Y71055D01*
X110304Y71052D01*
X110372Y71041D01*
X112352Y71041D01*
X113582Y69811D01*
X113629Y69776D01*
X113669Y69733D01*
X113742Y69691D01*
X113809Y69640D01*
X113864Y69619D01*
X113914Y69590D01*
X113996Y69569D01*
X114075Y69539D01*
X114133Y69534D01*
X114190Y69520D01*
X114274Y69522D01*
X114358Y69515D01*
X114416Y69527D01*
X114474Y69529D01*
X114554Y69555D01*
X114637Y69571D01*
X114689Y69598D01*
X114745Y69616D01*
X114801Y69656D01*
X114889Y69702D01*
X114962Y69771D01*
X115018Y69811D01*
X116248Y71041D01*
X129352Y71041D01*
X130841Y69552D01*
X130841Y68072D01*
X130849Y68014D01*
X130847Y67956D01*
X130869Y67874D01*
X130881Y67790D01*
X130904Y67737D01*
X130919Y67681D01*
X130962Y67608D01*
X130997Y67531D01*
X131035Y67486D01*
X131064Y67436D01*
X131126Y67378D01*
X131180Y67314D01*
X131229Y67282D01*
X131272Y67242D01*
X131347Y67203D01*
X131417Y67156D01*
X131473Y67139D01*
X131525Y67112D01*
X131593Y67101D01*
X131688Y67071D01*
X131788Y67068D01*
X131856Y67057D01*
X141362Y67057D01*
X141391Y67061D01*
G37*
G36*
X208474Y285759D02*
X208474Y285759D01*
X208532Y285758D01*
X208614Y285779D01*
X208697Y285791D01*
X208751Y285815D01*
X208807Y285829D01*
X208880Y285872D01*
X208957Y285907D01*
X209001Y285945D01*
X209052Y285975D01*
X209109Y286036D01*
X209174Y286091D01*
X209206Y286139D01*
X209246Y286182D01*
X209285Y286257D01*
X209331Y286327D01*
X209349Y286383D01*
X209376Y286435D01*
X209387Y286503D01*
X209417Y286598D01*
X209420Y286698D01*
X209431Y286766D01*
X209431Y293291D01*
X213234Y293291D01*
X213881Y293118D01*
X214460Y292783D01*
X214933Y292310D01*
X214979Y292230D01*
X215009Y292192D01*
X215032Y292148D01*
X215097Y292080D01*
X215154Y292006D01*
X215194Y291977D01*
X215228Y291942D01*
X215309Y291895D01*
X215385Y291840D01*
X215431Y291823D01*
X215473Y291798D01*
X215564Y291775D01*
X215652Y291743D01*
X215701Y291740D01*
X215748Y291728D01*
X215842Y291731D01*
X215936Y291725D01*
X215984Y291736D01*
X216033Y291737D01*
X216122Y291766D01*
X216214Y291786D01*
X216257Y291810D01*
X216303Y291825D01*
X216364Y291868D01*
X216464Y291922D01*
X216525Y291983D01*
X216576Y292020D01*
X217848Y293291D01*
X230952Y293291D01*
X232441Y291802D01*
X232441Y291285D01*
X232445Y291256D01*
X232442Y291227D01*
X232465Y291116D01*
X232481Y291003D01*
X232493Y290977D01*
X232498Y290948D01*
X232551Y290847D01*
X232597Y290744D01*
X232616Y290722D01*
X232629Y290696D01*
X232707Y290613D01*
X232780Y290527D01*
X232805Y290511D01*
X232825Y290489D01*
X232923Y290432D01*
X233017Y290369D01*
X233045Y290361D01*
X233070Y290346D01*
X233180Y290318D01*
X233288Y290284D01*
X233318Y290283D01*
X233346Y290276D01*
X233459Y290279D01*
X233572Y290276D01*
X233601Y290284D01*
X233630Y290285D01*
X233738Y290320D01*
X233847Y290348D01*
X233873Y290363D01*
X233901Y290372D01*
X233965Y290418D01*
X234092Y290493D01*
X234135Y290539D01*
X234174Y290567D01*
X235030Y291424D01*
X235053Y291454D01*
X235069Y291467D01*
X235075Y291476D01*
X235096Y291495D01*
X235145Y291576D01*
X235201Y291651D01*
X235215Y291687D01*
X235226Y291704D01*
X235229Y291714D01*
X235244Y291738D01*
X235269Y291828D01*
X235302Y291916D01*
X235306Y291955D01*
X235312Y291975D01*
X235312Y291986D01*
X235319Y292012D01*
X235318Y292106D01*
X235326Y292200D01*
X235319Y292237D01*
X235319Y292259D01*
X235316Y292270D01*
X235316Y292296D01*
X235289Y292386D01*
X235270Y292478D01*
X235253Y292511D01*
X235247Y292534D01*
X235240Y292546D01*
X235234Y292568D01*
X235183Y292647D01*
X235139Y292731D01*
X235116Y292755D01*
X235102Y292778D01*
X235091Y292789D01*
X235079Y292807D01*
X235022Y292854D01*
X234943Y292937D01*
X234916Y292953D01*
X234895Y292973D01*
X234851Y292995D01*
X234820Y293021D01*
X234740Y293067D01*
X234267Y293540D01*
X233932Y294119D01*
X233759Y294766D01*
X233759Y297615D01*
X233755Y297644D01*
X233758Y297673D01*
X233735Y297784D01*
X233719Y297897D01*
X233707Y297923D01*
X233702Y297952D01*
X233649Y298053D01*
X233603Y298156D01*
X233584Y298178D01*
X233571Y298204D01*
X233493Y298287D01*
X233420Y298373D01*
X233395Y298389D01*
X233375Y298411D01*
X233277Y298468D01*
X233183Y298531D01*
X233155Y298539D01*
X233130Y298554D01*
X233020Y298582D01*
X232912Y298616D01*
X232882Y298617D01*
X232854Y298624D01*
X232741Y298621D01*
X232628Y298624D01*
X232599Y298616D01*
X232570Y298615D01*
X232462Y298580D01*
X232353Y298552D01*
X232327Y298537D01*
X232299Y298528D01*
X232235Y298482D01*
X232108Y298407D01*
X232065Y298361D01*
X232026Y298333D01*
X230952Y297259D01*
X217848Y297259D01*
X216618Y298489D01*
X216571Y298524D01*
X216531Y298567D01*
X216458Y298609D01*
X216391Y298660D01*
X216336Y298681D01*
X216286Y298710D01*
X216204Y298731D01*
X216125Y298761D01*
X216067Y298766D01*
X216010Y298780D01*
X215926Y298778D01*
X215842Y298785D01*
X215784Y298773D01*
X215726Y298771D01*
X215646Y298745D01*
X215563Y298729D01*
X215511Y298702D01*
X215455Y298684D01*
X215399Y298644D01*
X215311Y298598D01*
X215238Y298529D01*
X215182Y298489D01*
X213952Y297259D01*
X200848Y297259D01*
X199774Y298333D01*
X199750Y298351D01*
X199731Y298373D01*
X199637Y298436D01*
X199547Y298504D01*
X199519Y298514D01*
X199495Y298531D01*
X199387Y298565D01*
X199281Y298605D01*
X199252Y298608D01*
X199224Y298616D01*
X199110Y298619D01*
X198998Y298629D01*
X198969Y298623D01*
X198940Y298624D01*
X198830Y298595D01*
X198719Y298573D01*
X198693Y298559D01*
X198665Y298552D01*
X198567Y298494D01*
X198467Y298442D01*
X198445Y298422D01*
X198420Y298407D01*
X198343Y298324D01*
X198261Y298246D01*
X198246Y298221D01*
X198226Y298199D01*
X198174Y298098D01*
X198117Y298001D01*
X198110Y297972D01*
X198096Y297946D01*
X198083Y297869D01*
X198047Y297725D01*
X198049Y297663D01*
X198041Y297615D01*
X198041Y294048D01*
X196770Y292776D01*
X196740Y292737D01*
X196704Y292704D01*
X196655Y292624D01*
X196599Y292549D01*
X196581Y292504D01*
X196556Y292462D01*
X196531Y292371D01*
X196497Y292284D01*
X196493Y292235D01*
X196480Y292188D01*
X196482Y292094D01*
X196474Y292000D01*
X196484Y291952D01*
X196484Y291904D01*
X196511Y291814D01*
X196530Y291722D01*
X196552Y291678D01*
X196566Y291631D01*
X196617Y291553D01*
X196661Y291469D01*
X196694Y291434D01*
X196721Y291393D01*
X196778Y291346D01*
X196857Y291263D01*
X196932Y291219D01*
X196980Y291179D01*
X197060Y291133D01*
X197624Y290570D01*
X197651Y290534D01*
X197676Y290516D01*
X197696Y290494D01*
X197791Y290433D01*
X197882Y290367D01*
X197910Y290357D01*
X197935Y290341D01*
X198043Y290309D01*
X198149Y290271D01*
X198179Y290269D01*
X198208Y290260D01*
X198321Y290259D01*
X198433Y290252D01*
X198462Y290258D01*
X198492Y290258D01*
X198601Y290289D01*
X198710Y290313D01*
X198737Y290327D01*
X198766Y290335D01*
X198861Y290395D01*
X198960Y290448D01*
X198982Y290469D01*
X199007Y290485D01*
X199083Y290569D01*
X199163Y290648D01*
X199178Y290674D01*
X199198Y290696D01*
X199230Y290768D01*
X199302Y290896D01*
X199317Y290957D01*
X199337Y291002D01*
X199532Y291731D01*
X199867Y292310D01*
X200340Y292783D01*
X200919Y293118D01*
X201566Y293291D01*
X205369Y293291D01*
X205369Y286766D01*
X205377Y286708D01*
X205375Y286650D01*
X205397Y286568D01*
X205409Y286485D01*
X205433Y286431D01*
X205447Y286375D01*
X205490Y286302D01*
X205525Y286225D01*
X205563Y286181D01*
X205593Y286130D01*
X205654Y286073D01*
X205709Y286008D01*
X205757Y285976D01*
X205800Y285936D01*
X205875Y285897D01*
X205945Y285851D01*
X206001Y285833D01*
X206053Y285806D01*
X206121Y285795D01*
X206216Y285765D01*
X206316Y285762D01*
X206384Y285751D01*
X208416Y285751D01*
X208474Y285759D01*
G37*
%LPC*%
G36*
X145039Y255269D02*
X145039Y255269D01*
X143172Y256043D01*
X141743Y257472D01*
X140969Y259339D01*
X140969Y261361D01*
X141743Y263228D01*
X143172Y264657D01*
X145039Y265431D01*
X147061Y265431D01*
X148928Y264657D01*
X150357Y263228D01*
X151131Y261361D01*
X151131Y259339D01*
X150357Y257472D01*
X148928Y256043D01*
X147061Y255269D01*
X145039Y255269D01*
G37*
%LPD*%
%LPC*%
G36*
X141731Y277369D02*
X141731Y277369D01*
X151587Y277369D01*
X151578Y277355D01*
X151504Y277254D01*
X151499Y277240D01*
X151489Y277224D01*
X151400Y276954D01*
X151400Y276945D01*
X151397Y276936D01*
X151345Y276604D01*
X150764Y274817D01*
X149911Y273143D01*
X148806Y271622D01*
X147478Y270294D01*
X145957Y269189D01*
X144283Y268336D01*
X142496Y267755D01*
X141731Y267634D01*
X141731Y277369D01*
G37*
%LPD*%
%LPC*%
G36*
X162304Y267755D02*
X162304Y267755D01*
X160517Y268336D01*
X158843Y269189D01*
X157322Y270294D01*
X155994Y271622D01*
X154889Y273143D01*
X154036Y274817D01*
X153455Y276604D01*
X153403Y276936D01*
X153366Y277056D01*
X153333Y277177D01*
X153324Y277191D01*
X153319Y277208D01*
X153251Y277313D01*
X153217Y277369D01*
X163069Y277369D01*
X163069Y267634D01*
X162304Y267755D01*
G37*
%LPD*%
%LPC*%
G36*
X262381Y27431D02*
X262381Y27431D01*
X262381Y37166D01*
X263146Y37045D01*
X264933Y36464D01*
X266607Y35611D01*
X268128Y34506D01*
X269456Y33178D01*
X270561Y31657D01*
X271414Y29983D01*
X271995Y28196D01*
X272116Y27431D01*
X262381Y27431D01*
G37*
%LPD*%
%LPC*%
G36*
X306831Y90931D02*
X306831Y90931D01*
X306831Y100666D01*
X307596Y100545D01*
X309383Y99964D01*
X311057Y99111D01*
X312578Y98006D01*
X313906Y96678D01*
X315011Y95157D01*
X315864Y93483D01*
X316445Y91696D01*
X316566Y90931D01*
X306831Y90931D01*
G37*
%LPD*%
%LPC*%
G36*
X293034Y90931D02*
X293034Y90931D01*
X293155Y91696D01*
X293736Y93483D01*
X294589Y95157D01*
X295694Y96678D01*
X297022Y98006D01*
X298543Y99111D01*
X300217Y99964D01*
X302004Y100545D01*
X302769Y100666D01*
X302769Y90931D01*
X293034Y90931D01*
G37*
%LPD*%
%LPC*%
G36*
X167131Y277369D02*
X167131Y277369D01*
X176866Y277369D01*
X176745Y276604D01*
X176164Y274817D01*
X175311Y273143D01*
X174206Y271622D01*
X172878Y270294D01*
X171357Y269189D01*
X169683Y268336D01*
X167896Y267755D01*
X167131Y267634D01*
X167131Y277369D01*
G37*
%LPD*%
%LPC*%
G36*
X262381Y23369D02*
X262381Y23369D01*
X272116Y23369D01*
X271995Y22604D01*
X271414Y20817D01*
X270561Y19143D01*
X269456Y17622D01*
X268128Y16294D01*
X266607Y15189D01*
X264933Y14336D01*
X263146Y13755D01*
X262381Y13634D01*
X262381Y23369D01*
G37*
%LPD*%
%LPC*%
G36*
X136904Y267755D02*
X136904Y267755D01*
X135117Y268336D01*
X133443Y269189D01*
X131922Y270294D01*
X130594Y271622D01*
X129489Y273143D01*
X128636Y274817D01*
X128055Y276604D01*
X127934Y277369D01*
X137669Y277369D01*
X137669Y267634D01*
X136904Y267755D01*
G37*
%LPD*%
%LPC*%
G36*
X294131Y302631D02*
X294131Y302631D01*
X294131Y308641D01*
X297434Y308641D01*
X298081Y308468D01*
X298660Y308133D01*
X299133Y307660D01*
X299468Y307081D01*
X299641Y306434D01*
X299641Y302631D01*
X294131Y302631D01*
G37*
%LPD*%
%LPC*%
G36*
X313181Y302631D02*
X313181Y302631D01*
X313181Y308641D01*
X316484Y308641D01*
X317131Y308468D01*
X317710Y308133D01*
X318183Y307660D01*
X318518Y307081D01*
X318691Y306434D01*
X318691Y302631D01*
X313181Y302631D01*
G37*
%LPD*%
%LPC*%
G36*
X370331Y162931D02*
X370331Y162931D01*
X370331Y168941D01*
X373634Y168941D01*
X374281Y168768D01*
X374860Y168433D01*
X375333Y167960D01*
X375668Y167381D01*
X375841Y166734D01*
X375841Y162931D01*
X370331Y162931D01*
G37*
%LPD*%
%LPC*%
G36*
X93081Y160781D02*
X93081Y160781D01*
X93081Y166291D01*
X96884Y166291D01*
X97531Y166118D01*
X98110Y165783D01*
X98583Y165310D01*
X98918Y164731D01*
X99091Y164084D01*
X99091Y160781D01*
X93081Y160781D01*
G37*
%LPD*%
%LPC*%
G36*
X340731Y230631D02*
X340731Y230631D01*
X340731Y236141D01*
X344534Y236141D01*
X345181Y235968D01*
X345760Y235633D01*
X346233Y235160D01*
X346568Y234581D01*
X346741Y233934D01*
X346741Y230631D01*
X340731Y230631D01*
G37*
%LPD*%
%LPC*%
G36*
X340731Y262381D02*
X340731Y262381D01*
X340731Y267891D01*
X344534Y267891D01*
X345181Y267718D01*
X345760Y267383D01*
X346233Y266910D01*
X346568Y266331D01*
X346741Y265684D01*
X346741Y262381D01*
X340731Y262381D01*
G37*
%LPD*%
%LPC*%
G36*
X251831Y59181D02*
X251831Y59181D01*
X251831Y64691D01*
X255634Y64691D01*
X256281Y64518D01*
X256860Y64183D01*
X257333Y63710D01*
X257668Y63131D01*
X257841Y62484D01*
X257841Y59181D01*
X251831Y59181D01*
G37*
%LPD*%
%LPC*%
G36*
X199359Y217931D02*
X199359Y217931D01*
X199359Y221234D01*
X199532Y221881D01*
X199867Y222460D01*
X200340Y222933D01*
X200919Y223268D01*
X201566Y223441D01*
X205369Y223441D01*
X205369Y217931D01*
X199359Y217931D01*
G37*
%LPD*%
%LPC*%
G36*
X199359Y243331D02*
X199359Y243331D01*
X199359Y246634D01*
X199532Y247281D01*
X199867Y247860D01*
X200340Y248333D01*
X200919Y248668D01*
X201566Y248841D01*
X205369Y248841D01*
X205369Y243331D01*
X199359Y243331D01*
G37*
%LPD*%
%LPC*%
G36*
X52831Y91409D02*
X52831Y91409D01*
X52831Y97419D01*
X58341Y97419D01*
X58341Y93616D01*
X58168Y92969D01*
X57833Y92390D01*
X57360Y91917D01*
X56781Y91582D01*
X56134Y91409D01*
X52831Y91409D01*
G37*
%LPD*%
%LPC*%
G36*
X46959Y256031D02*
X46959Y256031D01*
X46959Y259334D01*
X47132Y259981D01*
X47467Y260560D01*
X47940Y261033D01*
X48519Y261368D01*
X49166Y261541D01*
X52969Y261541D01*
X52969Y256031D01*
X46959Y256031D01*
G37*
%LPD*%
%LPC*%
G36*
X97759Y135381D02*
X97759Y135381D01*
X97759Y138684D01*
X97932Y139331D01*
X98267Y139910D01*
X98740Y140383D01*
X99319Y140718D01*
X99966Y140891D01*
X103769Y140891D01*
X103769Y135381D01*
X97759Y135381D01*
G37*
%LPD*%
%LPC*%
G36*
X179831Y40609D02*
X179831Y40609D01*
X179831Y46619D01*
X185341Y46619D01*
X185341Y42816D01*
X185168Y42169D01*
X184833Y41590D01*
X184360Y41117D01*
X183781Y40782D01*
X183134Y40609D01*
X179831Y40609D01*
G37*
%LPD*%
%LPC*%
G36*
X303609Y302631D02*
X303609Y302631D01*
X303609Y306434D01*
X303782Y307081D01*
X304117Y307660D01*
X304590Y308133D01*
X305169Y308468D01*
X305816Y308641D01*
X309119Y308641D01*
X309119Y302631D01*
X303609Y302631D01*
G37*
%LPD*%
%LPC*%
G36*
X93081Y151209D02*
X93081Y151209D01*
X93081Y156719D01*
X99091Y156719D01*
X99091Y153416D01*
X98918Y152769D01*
X98583Y152190D01*
X98110Y151717D01*
X97531Y151382D01*
X96884Y151209D01*
X93081Y151209D01*
G37*
%LPD*%
%LPC*%
G36*
X340731Y221059D02*
X340731Y221059D01*
X340731Y226569D01*
X346741Y226569D01*
X346741Y223266D01*
X346568Y222619D01*
X346233Y222040D01*
X345760Y221567D01*
X345181Y221232D01*
X344534Y221059D01*
X340731Y221059D01*
G37*
%LPD*%
%LPC*%
G36*
X366131Y119459D02*
X366131Y119459D01*
X366131Y124969D01*
X372141Y124969D01*
X372141Y121666D01*
X371968Y121019D01*
X371633Y120440D01*
X371160Y119967D01*
X370581Y119632D01*
X369934Y119459D01*
X366131Y119459D01*
G37*
%LPD*%
%LPC*%
G36*
X360759Y162931D02*
X360759Y162931D01*
X360759Y166734D01*
X360932Y167381D01*
X361267Y167960D01*
X361740Y168433D01*
X362319Y168768D01*
X362966Y168941D01*
X366269Y168941D01*
X366269Y162931D01*
X360759Y162931D01*
G37*
%LPD*%
%LPC*%
G36*
X340731Y252809D02*
X340731Y252809D01*
X340731Y258319D01*
X346741Y258319D01*
X346741Y255016D01*
X346568Y254369D01*
X346233Y253790D01*
X345760Y253317D01*
X345181Y252982D01*
X344534Y252809D01*
X340731Y252809D01*
G37*
%LPD*%
%LPC*%
G36*
X185166Y275559D02*
X185166Y275559D01*
X184519Y275732D01*
X183940Y276067D01*
X183467Y276540D01*
X183132Y277119D01*
X182959Y277766D01*
X182959Y281569D01*
X188469Y281569D01*
X188469Y275559D01*
X185166Y275559D01*
G37*
%LPD*%
%LPC*%
G36*
X201566Y208359D02*
X201566Y208359D01*
X200919Y208532D01*
X200340Y208867D01*
X199867Y209340D01*
X199532Y209919D01*
X199359Y210566D01*
X199359Y213869D01*
X205369Y213869D01*
X205369Y208359D01*
X201566Y208359D01*
G37*
%LPD*%
%LPC*%
G36*
X99966Y125809D02*
X99966Y125809D01*
X99319Y125982D01*
X98740Y126317D01*
X98267Y126790D01*
X97932Y127369D01*
X97759Y128016D01*
X97759Y131319D01*
X103769Y131319D01*
X103769Y125809D01*
X99966Y125809D01*
G37*
%LPD*%
%LPC*%
G36*
X201566Y233759D02*
X201566Y233759D01*
X200919Y233932D01*
X200340Y234267D01*
X199867Y234740D01*
X199532Y235319D01*
X199359Y235966D01*
X199359Y239269D01*
X205369Y239269D01*
X205369Y233759D01*
X201566Y233759D01*
G37*
%LPD*%
%LPC*%
G36*
X45466Y91409D02*
X45466Y91409D01*
X44819Y91582D01*
X44240Y91917D01*
X43767Y92390D01*
X43432Y92969D01*
X43259Y93616D01*
X43259Y97419D01*
X48769Y97419D01*
X48769Y91409D01*
X45466Y91409D01*
G37*
%LPD*%
%LPC*%
G36*
X49166Y246459D02*
X49166Y246459D01*
X48519Y246632D01*
X47940Y246967D01*
X47467Y247440D01*
X47132Y248019D01*
X46959Y248666D01*
X46959Y251969D01*
X52969Y251969D01*
X52969Y246459D01*
X49166Y246459D01*
G37*
%LPD*%
%LPC*%
G36*
X210566Y53309D02*
X210566Y53309D01*
X209919Y53482D01*
X209340Y53817D01*
X208867Y54290D01*
X208532Y54869D01*
X208359Y55516D01*
X208359Y59319D01*
X213869Y59319D01*
X213869Y53309D01*
X210566Y53309D01*
G37*
%LPD*%
%LPC*%
G36*
X172466Y40609D02*
X172466Y40609D01*
X171819Y40782D01*
X171240Y41117D01*
X170767Y41590D01*
X170432Y42169D01*
X170259Y42816D01*
X170259Y46619D01*
X175769Y46619D01*
X175769Y40609D01*
X172466Y40609D01*
G37*
%LPD*%
D10*
X224400Y241300D03*
X207400Y241300D03*
D11*
X292100Y283600D03*
X292100Y300600D03*
D10*
X321700Y260350D03*
X338700Y260350D03*
D11*
X241300Y283600D03*
X241300Y300600D03*
D10*
X275200Y285750D03*
X258200Y285750D03*
X275200Y304800D03*
X258200Y304800D03*
X224400Y304800D03*
X207400Y304800D03*
X224400Y285750D03*
X207400Y285750D03*
D11*
X190500Y300600D03*
X190500Y283600D03*
D10*
X105800Y133350D03*
X122800Y133350D03*
X74050Y158750D03*
X91050Y158750D03*
D11*
X368300Y143900D03*
X368300Y160900D03*
D10*
X232800Y57150D03*
X249800Y57150D03*
D11*
X50800Y99450D03*
X50800Y116450D03*
X311150Y283600D03*
X311150Y300600D03*
D10*
X224400Y215900D03*
X207400Y215900D03*
D12*
X260350Y25400D03*
X234950Y25400D03*
X209550Y25400D03*
X184150Y25400D03*
X158750Y25400D03*
X133350Y25400D03*
X107950Y25400D03*
D13*
X308500Y177800D03*
X326500Y177800D03*
D12*
X304800Y63500D03*
X304800Y88900D03*
D10*
X364100Y127000D03*
X347100Y127000D03*
D11*
X177800Y48650D03*
X177800Y65650D03*
D10*
X321700Y228600D03*
X338700Y228600D03*
X239150Y190500D03*
X256150Y190500D03*
D11*
X215900Y61350D03*
X215900Y78350D03*
D10*
X91050Y177800D03*
X74050Y177800D03*
X55000Y254000D03*
X72000Y254000D03*
D12*
X165100Y304800D03*
X139700Y304800D03*
X165100Y279400D03*
X139700Y279400D03*
D10*
X143900Y209550D03*
X160900Y209550D03*
X23250Y69850D03*
X40250Y69850D03*
X23250Y50800D03*
X40250Y50800D03*
X23250Y31750D03*
X40250Y31750D03*
D12*
X304800Y25400D03*
X330200Y25400D03*
X355600Y25400D03*
D10*
X105800Y63500D03*
X122800Y63500D03*
X122800Y82550D03*
X105800Y82550D03*
D12*
X88900Y381000D03*
X114300Y381000D03*
D14*
X190500Y283600D02*
X190500Y273050D01*
D15*
X190500Y273050D03*
X82550Y361950D03*
X292100Y311150D03*
D16*
X292100Y300600D01*
X338700Y228600D02*
X357886Y228600D01*
D15*
X349250Y260350D03*
D16*
X338700Y260350D01*
D15*
X196850Y241300D03*
D16*
X207400Y241300D01*
X207400Y215900D02*
X196850Y215900D01*
D15*
X196850Y215900D03*
X311150Y311150D03*
D16*
X311150Y300600D01*
D15*
X260350Y57150D03*
D16*
X249800Y57150D01*
D15*
X203200Y57150D03*
D16*
X207400Y61350D01*
X215900Y61350D01*
D15*
X44450Y190500D03*
D16*
X44450Y241300D01*
D15*
X44450Y241300D03*
D16*
X44450Y243450D02*
X55000Y254000D01*
X44450Y243450D02*
X44450Y241300D01*
X368300Y171450D02*
X368300Y160900D01*
D15*
X368300Y171450D03*
X28448Y152400D03*
D16*
X28448Y174498D01*
X44450Y190500D01*
D15*
X38100Y101600D03*
X249682Y86360D03*
X228600Y88900D03*
X215646Y102870D03*
X322580Y120904D03*
D16*
X323596Y120904D01*
X323850Y120650D01*
D15*
X338328Y153924D03*
X235458Y251460D03*
X342900Y215900D03*
X374650Y279400D03*
X241300Y203200D03*
X181356Y186436D03*
X130556Y193294D03*
X178054Y152400D03*
X95191Y122741D03*
X109100Y123190D03*
X59182Y85090D03*
X59182Y74930D03*
X53848Y80010D03*
X82550Y127000D03*
X171450Y228600D03*
D16*
X82550Y317500D02*
X82550Y361950D01*
D15*
X44450Y292100D03*
X237490Y225552D03*
D17*
X381000Y69850D03*
D15*
X260350Y133350D03*
D16*
X222250Y133350D01*
D15*
X222250Y133350D03*
X300482Y273050D03*
D16*
X311032Y283600D01*
X311150Y283600D01*
D15*
X38100Y127000D03*
D16*
X72000Y254000D02*
X78350Y260350D01*
X82550Y260350D01*
D15*
X82550Y260350D03*
X82550Y190500D03*
D16*
X82550Y260350D01*
D15*
X50800Y184150D03*
D16*
X57150Y190500D01*
X82550Y190500D01*
X122800Y143900D02*
X122800Y133350D01*
X122800Y143900D02*
X120650Y146050D01*
D15*
X120650Y146050D03*
X69850Y127000D03*
D16*
X38100Y127000D01*
X42300Y116450D02*
X50800Y116450D01*
X42300Y116450D02*
X38100Y120650D01*
X38100Y127000D01*
X292100Y273050D02*
X300482Y273050D01*
X292100Y273050D02*
X285750Y266700D01*
X285750Y260350D01*
X228600Y260350D01*
D15*
X228600Y260350D03*
X146050Y260350D03*
D16*
X143900Y209550D02*
X127000Y209550D01*
D15*
X127000Y209550D03*
X155194Y53594D03*
D16*
X155194Y60706D01*
X133350Y82550D01*
X133350Y122800D01*
X122800Y133350D01*
X122800Y63500D02*
X139700Y63500D01*
X149606Y53594D02*
X155194Y53594D01*
X149606Y53594D02*
X139700Y63500D01*
X215900Y78350D02*
X215900Y88900D01*
D15*
X215900Y88900D03*
X95250Y190500D03*
D16*
X107950Y203200D01*
X107950Y368300D01*
X107950Y374650D01*
X114300Y381000D01*
X340750Y171450D02*
X368300Y143900D01*
X340750Y171450D02*
X336550Y171450D01*
D15*
X336550Y171450D03*
D16*
X368300Y143900D02*
X378850Y143900D01*
X381000Y146050D01*
D15*
X381000Y146050D03*
D16*
X74050Y158750D02*
X74050Y177800D01*
D15*
X44450Y152400D03*
D16*
X69850Y152400D01*
X74050Y156600D01*
X74050Y158750D01*
D15*
X247650Y38100D03*
D16*
X260350Y50800D01*
X266700Y50800D01*
D15*
X266700Y50800D03*
X128270Y42164D03*
D16*
X105800Y63500D02*
X105800Y82550D01*
X105800Y63500D02*
X127136Y42164D01*
X128270Y42164D01*
D15*
X107950Y184150D03*
D16*
X101600Y177800D01*
X91050Y177800D01*
D15*
X31750Y142900D03*
D16*
X66700Y142900D01*
X69850Y146050D01*
D15*
X69850Y146050D03*
D16*
X326500Y177800D02*
X332850Y184150D01*
X336550Y184150D01*
D15*
X336550Y184150D03*
X336550Y127000D03*
D16*
X347100Y127000D01*
D15*
X234950Y215900D03*
D16*
X224400Y215900D01*
D15*
X228600Y190500D03*
D16*
X239150Y190500D01*
D15*
X307848Y256794D03*
D16*
X308500Y177800D02*
X251850Y177800D01*
X239150Y190500D01*
X298450Y167750D02*
X308500Y177800D01*
X298450Y167750D02*
X298450Y165100D01*
D15*
X298450Y165100D03*
D16*
X303276Y252222D02*
X307848Y256794D01*
X303276Y252222D02*
X292862Y252222D01*
X256540Y215900D01*
X234950Y215900D01*
X188350Y76200D02*
X177800Y65650D01*
X188350Y76200D02*
X190500Y76200D01*
D15*
X190500Y76200D03*
X309118Y236220D03*
D16*
X316738Y228600D01*
X321700Y228600D01*
X330200Y220100D01*
X330200Y215900D01*
D15*
X330200Y215900D03*
X317246Y217932D03*
D16*
X260350Y190500D02*
X256150Y190500D01*
X260350Y190500D02*
X266700Y196850D01*
D15*
X266700Y196850D03*
D16*
X234950Y241300D02*
X224400Y241300D01*
D15*
X234950Y241300D03*
D16*
X281550Y273050D02*
X292100Y283600D01*
X281550Y273050D02*
X279400Y273050D01*
D15*
X279400Y273050D03*
X308102Y266700D03*
D16*
X315350Y266700D02*
X321700Y260350D01*
X315350Y266700D02*
X308102Y266700D01*
D15*
X241300Y311150D03*
D16*
X230750Y311150D02*
X224400Y304800D01*
X230750Y311150D02*
X241300Y311150D01*
X251850Y311150D02*
X258200Y304800D01*
X251850Y311150D02*
X241300Y311150D01*
D15*
X241300Y273050D03*
D16*
X241300Y283600D01*
X190500Y300600D02*
X190500Y311150D01*
D18*
X190500Y311150D03*
D16*
X194700Y304800D02*
X190500Y300600D01*
X194700Y304800D02*
X207400Y304800D01*
D15*
X228600Y273050D03*
D16*
X228600Y281550D01*
X224400Y285750D01*
D15*
X184150Y133350D03*
D19*
X158750Y133350D01*
X155956Y136144D01*
D15*
X155956Y138938D03*
D19*
X155956Y136144D01*
D15*
X178562Y139192D03*
D19*
X178308Y139192D01*
X171450Y146050D01*
X152400Y146050D01*
X149098Y142748D01*
X149098Y142240D01*
X148844Y142494D01*
D15*
X148844Y142494D03*
X260350Y273050D03*
D16*
X260350Y283600D01*
X258200Y285750D01*
D15*
X275082Y295402D03*
D16*
X275082Y285868D01*
X275200Y285750D01*
D15*
X190500Y177800D03*
D19*
X190500Y132588D01*
X181356Y123444D02*
X181102Y123444D01*
X181356Y123190D01*
D15*
X181356Y123190D03*
D19*
X181356Y123444D02*
X190500Y132588D01*
D15*
X308864Y227838D03*
D16*
X308864Y213614D01*
D15*
X298450Y203200D03*
D16*
X308864Y213614D01*
D15*
X228600Y177800D03*
X184150Y158750D03*
D19*
X152400Y158750D01*
X139700Y146050D01*
X139700Y133350D01*
D15*
X139700Y133350D03*
X247650Y152400D03*
D16*
X228600Y171450D01*
X228600Y177800D01*
D15*
X165100Y57150D03*
D16*
X139700Y82550D01*
X139700Y133350D01*
D15*
X171450Y196850D03*
D16*
X160900Y207400D01*
X160900Y209550D01*
D19*
X23250Y31750D02*
X12836Y21336D01*
D16*
X12700Y21336D01*
X12836Y21336D02*
X12954Y21336D01*
D15*
X12954Y21336D03*
D16*
X12836Y40386D02*
X12700Y40386D01*
D15*
X12836Y40386D03*
D19*
X23250Y50800D01*
D15*
X12700Y59690D03*
D19*
X22860Y69850D01*
D16*
X23250Y69850D01*
D15*
X57150Y63500D03*
D19*
X50800Y69850D01*
X40250Y69850D01*
D15*
X57150Y44450D03*
D19*
X50800Y50800D01*
X40250Y50800D01*
D15*
X57150Y31750D03*
D19*
X40250Y31750D01*
D16*
X232800Y57150D02*
X270900Y95250D01*
X273050Y95250D01*
D15*
X273050Y95250D03*
X222250Y44450D03*
D16*
X232800Y55000D01*
X232800Y57150D01*
X95250Y374650D02*
X88900Y381000D01*
X95250Y374650D02*
X95250Y241300D01*
D17*
X95250Y241300D03*
M02*
