M48
;GenerationSoftware,Autodesk,EAGLE,8.6.1*%
;CreationDate,2018-03-12T23:29:26Z*%
FMAT,2
ICI,OFF
METRIC,TZ,000.000
T4C0.254
T3C0.300
T2C0.350
T1C1.016
%
G90
M71
T1
X11430Y38100
X20955Y2540
X26035Y2540
X23495Y2540
X18415Y2540
X15875Y2540
X13335Y2540
X10795Y2540
X30480Y6350
X30480Y8890
X16510Y30480
X13970Y30480
X16510Y27940
X13970Y27940
X30480Y2540
X33020Y2540
X35560Y2540
X8890Y38100
T2
X19050Y31115
T3
X38100Y6985
X9525Y24130
T4
X34290Y21590
X37465Y27940
X24130Y20320
X18136Y18644
X13056Y19329
X17805Y15240
X9519Y12274
X10910Y12319
X5918Y8509
X5918Y7493
X5385Y8001
X8255Y12700
X17145Y22860
X4445Y29210
X23749Y22555
X26035Y13335
X22225Y13335
X30048Y27305
X3810Y12700
X8255Y26035
X8255Y19050
X5080Y18415
X12065Y14605
X6985Y12700
X22860Y26035
X14605Y26035
X12700Y20955
X15519Y5359
X21590Y8890
X9525Y19050
X33655Y17145
X38100Y14605
X4445Y15240
X24765Y3810
X26670Y5080
X12827Y4216
X10795Y18415
X3175Y14290
X6985Y14605
X22860Y8890
X33655Y12700
X23495Y21590
X22860Y19050
X30785Y25679
X29845Y16510
X19050Y7620
X30912Y23622
X33020Y21590
X31725Y21793
X26670Y19685
X23495Y24130
X27940Y27305
X30810Y26670
X24130Y31115
X24130Y27305
X19050Y27305
X22860Y27305
X18415Y13335
X15596Y13894
X17856Y13919
X14884Y14249
X26035Y27305
X27508Y29540
X19050Y17780
X18136Y12319
X30886Y22784
X29845Y20320
X22860Y17780
X18415Y15875
X8255Y36195
X24765Y15240
X16510Y5715
X17145Y19685
X1295Y2134
X1284Y4039
X1270Y5969
X5715Y6350
X5715Y4445
X5715Y3175
X27305Y9525
X22225Y4445
X29210Y31115
X34925Y26035
X19685Y24130
X33655Y18415
X19685Y21590
X31115Y31115
X26035Y5715
X20320Y5715
X4445Y19050
X4445Y24130
X36830Y17145
X2845Y15240
X3810Y10160
X24968Y8636
X21565Y10287
X32258Y12090
X33833Y15392
X23546Y25146
X13970Y13335
M30