G04 EAGLE Gerber X2 export*
%TF.Part,Single*%
%TF.FileFunction,Other,Top Solder Mask*%
%TF.FilePolarity,Positive*%
%TF.GenerationSoftware,Autodesk,EAGLE,8.6.1*%
%TF.CreationDate,2018-03-12T23:29:27Z*%
G75*
%MOMM*%
%FSLAX34Y34*%
%LPD*%
%AMOC8*
5,1,8,0,0,1.08239X$1,22.5*%
G01*
%ADD10R,1.127000X1.227000*%
%ADD11R,1.227000X1.127000*%
%ADD12C,0.350400*%
%ADD13R,0.300000X0.600000*%
%ADD14R,1.700000X2.450000*%
%ADD15R,0.760000X0.350000*%
%ADD16R,0.600000X0.300000*%
%ADD17R,2.450000X1.700000*%
%ADD18R,0.350000X0.760000*%
%ADD19R,1.327000X0.677000*%
%ADD20C,2.006600*%
%ADD21R,1.327000X0.927000*%
%ADD22R,1.100000X0.800000*%
%ADD23R,0.411600X0.927000*%
%ADD24R,0.927000X0.411600*%
%ADD25R,3.277000X3.277000*%
%ADD26R,0.927000X0.477000*%
%ADD27R,0.477000X0.927000*%
%ADD28R,2.600000X2.600000*%
%ADD29C,0.101600*%
%ADD30R,5.080000X5.080000*%
%ADD31R,1.227000X1.327000*%
%ADD32C,0.338100*%
%ADD33C,0.635000*%
%ADD34C,0.681000*%
%ADD35C,0.731000*%


D10*
X292100Y283600D03*
X292100Y300600D03*
D11*
X321700Y260350D03*
X338700Y260350D03*
X258200Y285750D03*
X275200Y285750D03*
D10*
X241300Y300600D03*
X241300Y283600D03*
D11*
X334400Y63500D03*
X351400Y63500D03*
X207400Y285750D03*
X224400Y285750D03*
D10*
X190500Y300600D03*
X190500Y283600D03*
D11*
X105800Y133350D03*
X122800Y133350D03*
D10*
X50800Y99450D03*
X50800Y116450D03*
X349250Y160900D03*
X349250Y143900D03*
D11*
X376800Y215900D03*
X359800Y215900D03*
D10*
X368300Y143900D03*
X368300Y160900D03*
D11*
X249800Y76200D03*
X232800Y76200D03*
X232800Y57150D03*
X249800Y57150D03*
X376800Y266700D03*
X359800Y266700D03*
X74050Y158750D03*
X91050Y158750D03*
D10*
X311150Y283600D03*
X311150Y300600D03*
D11*
X224400Y215900D03*
X207400Y215900D03*
X224400Y241300D03*
X207400Y241300D03*
D12*
X252950Y97950D03*
X252950Y102950D03*
X252950Y107950D03*
X252950Y112950D03*
X252950Y117950D03*
X229650Y117950D03*
X229650Y112950D03*
X229650Y107950D03*
X229650Y102950D03*
X229650Y97950D03*
D13*
X238550Y91700D03*
X244050Y91700D03*
D14*
X241300Y107950D03*
D15*
X256750Y97950D03*
X256750Y102950D03*
X256750Y107950D03*
X256750Y112950D03*
X256750Y117950D03*
X225850Y117950D03*
X225850Y112950D03*
X225850Y107950D03*
X225850Y102950D03*
X225850Y97950D03*
D13*
X244050Y124200D03*
X238550Y124200D03*
D12*
X327500Y157700D03*
X322500Y157700D03*
X317500Y157700D03*
X312500Y157700D03*
X307500Y157700D03*
X307500Y134400D03*
X312500Y134400D03*
X317500Y134400D03*
X322500Y134400D03*
X327500Y134400D03*
D16*
X333750Y143300D03*
X333750Y148800D03*
D17*
X317500Y146050D03*
D18*
X327500Y161500D03*
X322500Y161500D03*
X317500Y161500D03*
X312500Y161500D03*
X307500Y161500D03*
X307500Y130600D03*
X312500Y130600D03*
X317500Y130600D03*
X322500Y130600D03*
X327500Y130600D03*
D16*
X301250Y148800D03*
X301250Y143300D03*
D19*
X190801Y47650D03*
X190801Y57150D03*
X190801Y66650D03*
X164799Y66650D03*
X164799Y47650D03*
D20*
X260350Y25400D03*
X234950Y25400D03*
X209550Y25400D03*
X184150Y25400D03*
X158750Y25400D03*
X133350Y25400D03*
X107950Y25400D03*
D11*
X258200Y304800D03*
X275200Y304800D03*
X207400Y304800D03*
X224400Y304800D03*
D21*
X279400Y129650D03*
X279400Y111650D03*
D20*
X304800Y63500D03*
X304800Y88900D03*
D10*
X374650Y80400D03*
X374650Y97400D03*
X25400Y224400D03*
X25400Y207400D03*
D11*
X347100Y127000D03*
X364100Y127000D03*
X321700Y228600D03*
X338700Y228600D03*
D10*
X101600Y207400D03*
X101600Y224400D03*
D11*
X239150Y190500D03*
X256150Y190500D03*
D10*
X215900Y78350D03*
X215900Y61350D03*
D11*
X74050Y177800D03*
X91050Y177800D03*
D22*
X355900Y98400D03*
X355900Y79400D03*
X329900Y79400D03*
X329900Y88900D03*
X329900Y98400D03*
D23*
X290550Y259950D03*
X285550Y259950D03*
X280550Y259950D03*
X275550Y259950D03*
X270550Y259950D03*
X265550Y259950D03*
X260550Y259950D03*
X255550Y259950D03*
D24*
X248050Y252450D03*
X248050Y247450D03*
X248050Y242450D03*
X248050Y237450D03*
X248050Y232450D03*
X248050Y227450D03*
X248050Y222450D03*
X248050Y217450D03*
D23*
X255550Y209950D03*
X260550Y209950D03*
X265550Y209950D03*
X270550Y209950D03*
X275550Y209950D03*
X280550Y209950D03*
X285550Y209950D03*
X290550Y209950D03*
D24*
X298050Y217450D03*
X298050Y222450D03*
X298050Y227450D03*
X298050Y232450D03*
X298050Y237450D03*
X298050Y242450D03*
X298050Y247450D03*
X298050Y252450D03*
D25*
X273050Y234950D03*
D26*
X83500Y206150D03*
X83500Y212650D03*
X83500Y219150D03*
X83500Y225650D03*
D27*
X73250Y235900D03*
X66750Y235900D03*
X60250Y235900D03*
X53750Y235900D03*
D26*
X43500Y225650D03*
X43500Y219150D03*
X43500Y212650D03*
X43500Y206150D03*
D27*
X53750Y195900D03*
X60250Y195900D03*
X66750Y195900D03*
X73250Y195900D03*
D28*
X63500Y215900D03*
D22*
X44750Y161900D03*
X44750Y142900D03*
X18750Y142900D03*
X18750Y152400D03*
X18750Y161900D03*
D29*
X66650Y111000D02*
X71050Y111000D01*
X71050Y109100D01*
X66650Y109100D01*
X66650Y111000D01*
X67150Y110050D02*
X70550Y110050D01*
X71050Y106000D02*
X66650Y106000D01*
X71050Y106000D02*
X71050Y104100D01*
X66650Y104100D01*
X66650Y106000D01*
X67150Y105050D02*
X70550Y105050D01*
X71050Y101000D02*
X66650Y101000D01*
X71050Y101000D02*
X71050Y99100D01*
X66650Y99100D01*
X66650Y101000D01*
X67150Y100050D02*
X70550Y100050D01*
X71050Y96000D02*
X66650Y96000D01*
X71050Y96000D02*
X71050Y94100D01*
X66650Y94100D01*
X66650Y96000D01*
X67150Y95050D02*
X70550Y95050D01*
X71050Y91000D02*
X66650Y91000D01*
X71050Y91000D02*
X71050Y89100D01*
X66650Y89100D01*
X66650Y91000D01*
X67150Y90050D02*
X70550Y90050D01*
X71050Y86000D02*
X66650Y86000D01*
X71050Y86000D02*
X71050Y84100D01*
X66650Y84100D01*
X66650Y86000D01*
X67150Y85050D02*
X70550Y85050D01*
X71050Y81000D02*
X66650Y81000D01*
X71050Y81000D02*
X71050Y79100D01*
X66650Y79100D01*
X66650Y81000D01*
X67150Y80050D02*
X70550Y80050D01*
X71050Y76000D02*
X66650Y76000D01*
X71050Y76000D02*
X71050Y74100D01*
X66650Y74100D01*
X66650Y76000D01*
X67150Y75050D02*
X70550Y75050D01*
X71050Y71000D02*
X66650Y71000D01*
X71050Y71000D02*
X71050Y69100D01*
X66650Y69100D01*
X66650Y71000D01*
X67150Y70050D02*
X70550Y70050D01*
X71050Y66000D02*
X66650Y66000D01*
X71050Y66000D02*
X71050Y64100D01*
X66650Y64100D01*
X66650Y66000D01*
X67150Y65050D02*
X70550Y65050D01*
X71050Y61000D02*
X66650Y61000D01*
X71050Y61000D02*
X71050Y59100D01*
X66650Y59100D01*
X66650Y61000D01*
X67150Y60050D02*
X70550Y60050D01*
X71050Y56000D02*
X66650Y56000D01*
X71050Y56000D02*
X71050Y54100D01*
X66650Y54100D01*
X66650Y56000D01*
X67150Y55050D02*
X70550Y55050D01*
X73150Y52000D02*
X73150Y47600D01*
X73150Y52000D02*
X75050Y52000D01*
X75050Y47600D01*
X73150Y47600D01*
X74100Y48100D02*
X74100Y51500D01*
X78150Y52000D02*
X78150Y47600D01*
X78150Y52000D02*
X80050Y52000D01*
X80050Y47600D01*
X78150Y47600D01*
X79100Y48100D02*
X79100Y51500D01*
X83150Y52000D02*
X83150Y47600D01*
X83150Y52000D02*
X85050Y52000D01*
X85050Y47600D01*
X83150Y47600D01*
X84100Y48100D02*
X84100Y51500D01*
X88150Y52000D02*
X88150Y47600D01*
X88150Y52000D02*
X90050Y52000D01*
X90050Y47600D01*
X88150Y47600D01*
X89100Y48100D02*
X89100Y51500D01*
X93150Y52000D02*
X93150Y47600D01*
X93150Y52000D02*
X95050Y52000D01*
X95050Y47600D01*
X93150Y47600D01*
X94100Y48100D02*
X94100Y51500D01*
X98150Y52000D02*
X98150Y47600D01*
X98150Y52000D02*
X100050Y52000D01*
X100050Y47600D01*
X98150Y47600D01*
X99100Y48100D02*
X99100Y51500D01*
X103150Y52000D02*
X103150Y47600D01*
X103150Y52000D02*
X105050Y52000D01*
X105050Y47600D01*
X103150Y47600D01*
X104100Y48100D02*
X104100Y51500D01*
X108150Y52000D02*
X108150Y47600D01*
X108150Y52000D02*
X110050Y52000D01*
X110050Y47600D01*
X108150Y47600D01*
X109100Y48100D02*
X109100Y51500D01*
X113150Y52000D02*
X113150Y47600D01*
X113150Y52000D02*
X115050Y52000D01*
X115050Y47600D01*
X113150Y47600D01*
X114100Y48100D02*
X114100Y51500D01*
X118150Y52000D02*
X118150Y47600D01*
X118150Y52000D02*
X120050Y52000D01*
X120050Y47600D01*
X118150Y47600D01*
X119100Y48100D02*
X119100Y51500D01*
X123150Y52000D02*
X123150Y47600D01*
X123150Y52000D02*
X125050Y52000D01*
X125050Y47600D01*
X123150Y47600D01*
X124100Y48100D02*
X124100Y51500D01*
X128150Y52000D02*
X128150Y47600D01*
X128150Y52000D02*
X130050Y52000D01*
X130050Y47600D01*
X128150Y47600D01*
X129100Y48100D02*
X129100Y51500D01*
X132150Y54100D02*
X136550Y54100D01*
X132150Y54100D02*
X132150Y56000D01*
X136550Y56000D01*
X136550Y54100D01*
X136050Y55050D02*
X132650Y55050D01*
X132150Y59100D02*
X136550Y59100D01*
X132150Y59100D02*
X132150Y61000D01*
X136550Y61000D01*
X136550Y59100D01*
X136050Y60050D02*
X132650Y60050D01*
X132150Y64100D02*
X136550Y64100D01*
X132150Y64100D02*
X132150Y66000D01*
X136550Y66000D01*
X136550Y64100D01*
X136050Y65050D02*
X132650Y65050D01*
X132150Y69100D02*
X136550Y69100D01*
X132150Y69100D02*
X132150Y71000D01*
X136550Y71000D01*
X136550Y69100D01*
X136050Y70050D02*
X132650Y70050D01*
X132150Y74100D02*
X136550Y74100D01*
X132150Y74100D02*
X132150Y76000D01*
X136550Y76000D01*
X136550Y74100D01*
X136050Y75050D02*
X132650Y75050D01*
X132150Y79100D02*
X136550Y79100D01*
X132150Y79100D02*
X132150Y81000D01*
X136550Y81000D01*
X136550Y79100D01*
X136050Y80050D02*
X132650Y80050D01*
X132150Y84100D02*
X136550Y84100D01*
X132150Y84100D02*
X132150Y86000D01*
X136550Y86000D01*
X136550Y84100D01*
X136050Y85050D02*
X132650Y85050D01*
X132150Y89100D02*
X136550Y89100D01*
X132150Y89100D02*
X132150Y91000D01*
X136550Y91000D01*
X136550Y89100D01*
X136050Y90050D02*
X132650Y90050D01*
X132150Y94100D02*
X136550Y94100D01*
X132150Y94100D02*
X132150Y96000D01*
X136550Y96000D01*
X136550Y94100D01*
X136050Y95050D02*
X132650Y95050D01*
X132150Y99100D02*
X136550Y99100D01*
X132150Y99100D02*
X132150Y101000D01*
X136550Y101000D01*
X136550Y99100D01*
X136050Y100050D02*
X132650Y100050D01*
X132150Y104100D02*
X136550Y104100D01*
X132150Y104100D02*
X132150Y106000D01*
X136550Y106000D01*
X136550Y104100D01*
X136050Y105050D02*
X132650Y105050D01*
X132150Y109100D02*
X136550Y109100D01*
X132150Y109100D02*
X132150Y111000D01*
X136550Y111000D01*
X136550Y109100D01*
X136050Y110050D02*
X132650Y110050D01*
X130050Y113100D02*
X130050Y117500D01*
X130050Y113100D02*
X128150Y113100D01*
X128150Y117500D01*
X130050Y117500D01*
X129100Y117000D02*
X129100Y113600D01*
X125050Y113100D02*
X125050Y117500D01*
X125050Y113100D02*
X123150Y113100D01*
X123150Y117500D01*
X125050Y117500D01*
X124100Y117000D02*
X124100Y113600D01*
X120050Y113100D02*
X120050Y117500D01*
X120050Y113100D02*
X118150Y113100D01*
X118150Y117500D01*
X120050Y117500D01*
X119100Y117000D02*
X119100Y113600D01*
X115050Y113100D02*
X115050Y117500D01*
X115050Y113100D02*
X113150Y113100D01*
X113150Y117500D01*
X115050Y117500D01*
X114100Y117000D02*
X114100Y113600D01*
X110050Y113100D02*
X110050Y117500D01*
X110050Y113100D02*
X108150Y113100D01*
X108150Y117500D01*
X110050Y117500D01*
X109100Y117000D02*
X109100Y113600D01*
X105050Y113100D02*
X105050Y117500D01*
X105050Y113100D02*
X103150Y113100D01*
X103150Y117500D01*
X105050Y117500D01*
X104100Y117000D02*
X104100Y113600D01*
X100050Y113100D02*
X100050Y117500D01*
X100050Y113100D02*
X98150Y113100D01*
X98150Y117500D01*
X100050Y117500D01*
X99100Y117000D02*
X99100Y113600D01*
X95050Y113100D02*
X95050Y117500D01*
X95050Y113100D02*
X93150Y113100D01*
X93150Y117500D01*
X95050Y117500D01*
X94100Y117000D02*
X94100Y113600D01*
X90050Y113100D02*
X90050Y117500D01*
X90050Y113100D02*
X88150Y113100D01*
X88150Y117500D01*
X90050Y117500D01*
X89100Y117000D02*
X89100Y113600D01*
X85050Y113100D02*
X85050Y117500D01*
X85050Y113100D02*
X83150Y113100D01*
X83150Y117500D01*
X85050Y117500D01*
X84100Y117000D02*
X84100Y113600D01*
X80050Y113100D02*
X80050Y117500D01*
X80050Y113100D02*
X78150Y113100D01*
X78150Y117500D01*
X80050Y117500D01*
X79100Y117000D02*
X79100Y113600D01*
X75050Y113100D02*
X75050Y117500D01*
X75050Y113100D02*
X73150Y113100D01*
X73150Y117500D01*
X75050Y117500D01*
X74100Y117000D02*
X74100Y113600D01*
D30*
X101600Y82550D03*
D31*
X359550Y253050D03*
X359550Y229550D03*
X377050Y229550D03*
X377050Y253050D03*
D11*
X55000Y254000D03*
X72000Y254000D03*
X23250Y177800D03*
X40250Y177800D03*
D20*
X165100Y304800D03*
X139700Y304800D03*
X165100Y279400D03*
X139700Y279400D03*
D11*
X110100Y311150D03*
X93100Y311150D03*
X110100Y292100D03*
X93100Y292100D03*
X55000Y292100D03*
X72000Y292100D03*
X55000Y273050D03*
X72000Y273050D03*
X55000Y311150D03*
X72000Y311150D03*
D27*
X142650Y151450D03*
X149150Y151450D03*
X155650Y151450D03*
X162150Y151450D03*
D26*
X172400Y161700D03*
X172400Y168200D03*
X172400Y174700D03*
X172400Y181200D03*
D27*
X162150Y191450D03*
X155650Y191450D03*
X149150Y191450D03*
X142650Y191450D03*
D26*
X132400Y181200D03*
X132400Y174700D03*
X132400Y168200D03*
X132400Y161700D03*
D28*
X152400Y171450D03*
D11*
X143900Y209550D03*
X160900Y209550D03*
X143900Y228600D03*
X160900Y228600D03*
D32*
X36575Y73795D02*
X36575Y65905D01*
X36575Y73795D02*
X44465Y73795D01*
X44465Y65905D01*
X36575Y65905D01*
X36575Y69285D02*
X44465Y69285D01*
X44465Y72665D02*
X36575Y72665D01*
X19035Y73795D02*
X19035Y65905D01*
X19035Y73795D02*
X26925Y73795D01*
X26925Y65905D01*
X19035Y65905D01*
X19035Y69285D02*
X26925Y69285D01*
X26925Y72665D02*
X19035Y72665D01*
X36575Y54745D02*
X36575Y46855D01*
X36575Y54745D02*
X44465Y54745D01*
X44465Y46855D01*
X36575Y46855D01*
X36575Y50235D02*
X44465Y50235D01*
X44465Y53615D02*
X36575Y53615D01*
X19035Y54745D02*
X19035Y46855D01*
X19035Y54745D02*
X26925Y54745D01*
X26925Y46855D01*
X19035Y46855D01*
X19035Y50235D02*
X26925Y50235D01*
X26925Y53615D02*
X19035Y53615D01*
X36575Y35695D02*
X36575Y27805D01*
X36575Y35695D02*
X44465Y35695D01*
X44465Y27805D01*
X36575Y27805D01*
X36575Y31185D02*
X44465Y31185D01*
X44465Y34565D02*
X36575Y34565D01*
X19035Y35695D02*
X19035Y27805D01*
X19035Y35695D02*
X26925Y35695D01*
X26925Y27805D01*
X19035Y27805D01*
X19035Y31185D02*
X26925Y31185D01*
X26925Y34565D02*
X19035Y34565D01*
D20*
X304800Y25400D03*
X330200Y25400D03*
X355600Y25400D03*
X88900Y381000D03*
X114300Y381000D03*
D33*
X190500Y273050D03*
X82550Y361950D03*
X292100Y311150D03*
X349250Y260350D03*
X196850Y241300D03*
X196850Y215900D03*
X311150Y311150D03*
X260350Y57150D03*
X203200Y57150D03*
X44450Y190500D03*
X44450Y241300D03*
X368300Y171450D03*
X28448Y152400D03*
X38100Y101600D03*
X249682Y86360D03*
X228600Y88900D03*
X215646Y102870D03*
X322580Y120904D03*
X338328Y153924D03*
X235458Y251460D03*
X342900Y215900D03*
X374650Y279400D03*
X241300Y203200D03*
X181356Y186436D03*
X130556Y193294D03*
X178054Y152400D03*
X95191Y122741D03*
X109100Y123190D03*
X59182Y85090D03*
X59182Y74930D03*
X53848Y80010D03*
X82550Y127000D03*
X171450Y228600D03*
X44450Y292100D03*
X237490Y225552D03*
D34*
X381000Y69850D03*
D33*
X260350Y133350D03*
X222250Y133350D03*
X300482Y273050D03*
X38100Y127000D03*
X82550Y260350D03*
X82550Y190500D03*
X50800Y184150D03*
X120650Y146050D03*
X69850Y127000D03*
X228600Y260350D03*
X146050Y260350D03*
X127000Y209550D03*
X155194Y53594D03*
X215900Y88900D03*
X95250Y190500D03*
X336550Y171450D03*
X381000Y146050D03*
X44450Y152400D03*
X247650Y38100D03*
X266700Y50800D03*
X128270Y42164D03*
X107950Y184150D03*
X31750Y142900D03*
X69850Y146050D03*
X336550Y184150D03*
X336550Y127000D03*
X234950Y215900D03*
X228600Y190500D03*
X307848Y256794D03*
X298450Y165100D03*
X190500Y76200D03*
X309118Y236220D03*
X330200Y215900D03*
X317246Y217932D03*
X266700Y196850D03*
X234950Y241300D03*
X279400Y273050D03*
X308102Y266700D03*
X241300Y311150D03*
X241300Y273050D03*
D35*
X190500Y311150D03*
D33*
X228600Y273050D03*
X184150Y133350D03*
X155956Y138938D03*
X178562Y139192D03*
X148844Y142494D03*
X260350Y273050D03*
X275082Y295402D03*
X190500Y177800D03*
X181356Y123190D03*
X308864Y227838D03*
X298450Y203200D03*
X228600Y177800D03*
X184150Y158750D03*
X139700Y133350D03*
X247650Y152400D03*
X165100Y57150D03*
X171450Y196850D03*
X12954Y21336D03*
X12836Y40386D03*
X12700Y59690D03*
X57150Y63500D03*
X57150Y44450D03*
X57150Y31750D03*
X273050Y95250D03*
X222250Y44450D03*
D34*
X95250Y241300D03*
M02*
